<?xml version="1.0" encoding="UTF-8" standalone="no"?>
<!DOCTYPE svg PUBLIC "-//W3C//DTD SVG 1.1//EN"
 "http://www.w3.org/Graphics/SVG/1.1/DTD/svg11.dtd">
<!-- Generated by graphviz version 2.43.0 (0)
 -->
<!-- Title: firmware/sys/at_commands_uart/include/at_uart.h Pages: 1 -->
<svg width="189pt" height="101pt"
 viewBox="0.00 0.00 189.00 101.00" xmlns="http://www.w3.org/2000/svg" xmlns:xlink="http://www.w3.org/1999/xlink">
<g id="graph0" class="graph" transform="scale(1 1) rotate(0) translate(4 97)">
<title>firmware/sys/at_commands_uart/include/at_uart.h</title>
<!-- Node1 -->
<g id="node1" class="node">
<title>Node1</title>
<g id="a_node1"><a xlink:title="AT command handler.">
<polygon fill="#bfbfbf" stroke="black" points="0,-58.5 0,-92.5 181,-92.5 181,-58.5 0,-58.5"/>
<text text-anchor="start" x="8" y="-78.9" font-family="Helvetica,sans-Serif" font-size="12.00">firmware/sys/at_commands</text>
<text text-anchor="middle" x="90.5" y="-65.9" font-family="Helvetica,sans-Serif" font-size="12.00">_uart/include/at_uart.h</text>
</a>
</g>
</g>
<!-- Node2 -->
<g id="node2" class="node">
<title>Node2</title>
<g id="a_node2"><a xlink:title=" ">
<polygon fill="none" stroke="#bfbfbf" points="3.5,-0.5 3.5,-21.5 89.5,-21.5 89.5,-0.5 3.5,-0.5"/>
<text text-anchor="middle" x="46.5" y="-7.9" font-family="Helvetica,sans-Serif" font-size="12.00">ringbuffer.h</text>
</a>
</g>
</g>
<!-- Node1&#45;&gt;Node2 -->
<g id="edge1" class="edge">
<title>Node1&#45;&gt;Node2</title>
<path fill="none" stroke="midnightblue" d="M79.17,-58.4C73.06,-49.72 65.5,-38.99 59.19,-30.03"/>
<polygon fill="midnightblue" stroke="midnightblue" points="62.02,-27.96 53.4,-21.8 56.29,-31.99 62.02,-27.96"/>
</g>
<!-- Node3 -->
<g id="node3" class="node">
<title>Node3</title>
<g id="a_node3"><a xlink:title=" ">
<polygon fill="none" stroke="#bfbfbf" points="107.5,-0.5 107.5,-21.5 163.5,-21.5 163.5,-0.5 107.5,-0.5"/>
<text text-anchor="middle" x="135.5" y="-7.9" font-family="Helvetica,sans-Serif" font-size="12.00">stdio.h</text>
</a>
</g>
</g>
<!-- Node1&#45;&gt;Node3 -->
<g id="edge2" class="edge">
<title>Node1&#45;&gt;Node3</title>
<path fill="none" stroke="midnightblue" d="M102.09,-58.4C108.34,-49.72 116.07,-38.99 122.52,-30.03"/>
<polygon fill="midnightblue" stroke="midnightblue" points="125.44,-31.96 128.44,-21.8 119.76,-27.87 125.44,-31.96"/>
</g>
</g>
</svg>
