<?xml version="1.0" encoding="UTF-8" standalone="no"?>
<!DOCTYPE svg PUBLIC "-//W3C//DTD SVG 1.1//EN"
 "http://www.w3.org/Graphics/SVG/1.1/DTD/svg11.dtd">
<!-- Generated by graphviz version 2.43.0 (0)
 -->
<!-- Title: firmware/sys/at_client/include/at_client.h Pages: 1 -->
<svg width="168pt" height="101pt"
 viewBox="0.00 0.00 168.00 101.00" xmlns="http://www.w3.org/2000/svg" xmlns:xlink="http://www.w3.org/1999/xlink">
<g id="graph0" class="graph" transform="scale(1 1) rotate(0) translate(4 97)">
<title>firmware/sys/at_client/include/at_client.h</title>
<!-- Node1 -->
<g id="node1" class="node">
<title>Node1</title>
<g id="a_node1"><a xlink:title="AT command handler.">
<polygon fill="#bfbfbf" stroke="black" points="14,-58.5 14,-92.5 160,-92.5 160,-58.5 14,-58.5"/>
<text text-anchor="start" x="22" y="-78.9" font-family="Helvetica,sans-Serif" font-size="12.00">firmware/sys/at_client</text>
<text text-anchor="middle" x="87" y="-65.9" font-family="Helvetica,sans-Serif" font-size="12.00">/include/at_client.h</text>
</a>
</g>
</g>
<!-- Node2 -->
<g id="node2" class="node">
<title>Node2</title>
<g id="a_node2"><a xlink:title=" ">
<polygon fill="none" stroke="#bfbfbf" points="0,-0.5 0,-21.5 86,-21.5 86,-0.5 0,-0.5"/>
<text text-anchor="middle" x="43" y="-7.9" font-family="Helvetica,sans-Serif" font-size="12.00">ringbuffer.h</text>
</a>
</g>
</g>
<!-- Node1&#45;&gt;Node2 -->
<g id="edge1" class="edge">
<title>Node1&#45;&gt;Node2</title>
<path fill="none" stroke="midnightblue" d="M75.67,-58.4C69.56,-49.72 62,-38.99 55.69,-30.03"/>
<polygon fill="midnightblue" stroke="midnightblue" points="58.52,-27.96 49.9,-21.8 52.79,-31.99 58.52,-27.96"/>
</g>
<!-- Node3 -->
<g id="node3" class="node">
<title>Node3</title>
<g id="a_node3"><a xlink:title=" ">
<polygon fill="none" stroke="#bfbfbf" points="104,-0.5 104,-21.5 160,-21.5 160,-0.5 104,-0.5"/>
<text text-anchor="middle" x="132" y="-7.9" font-family="Helvetica,sans-Serif" font-size="12.00">stdio.h</text>
</a>
</g>
</g>
<!-- Node1&#45;&gt;Node3 -->
<g id="edge2" class="edge">
<title>Node1&#45;&gt;Node3</title>
<path fill="none" stroke="midnightblue" d="M98.59,-58.4C104.84,-49.72 112.57,-38.99 119.02,-30.03"/>
<polygon fill="midnightblue" stroke="midnightblue" points="121.94,-31.96 124.94,-21.8 116.26,-27.87 121.94,-31.96"/>
</g>
</g>
</svg>
