<?xml version="1.0" encoding="UTF-8" standalone="no"?>
<!DOCTYPE svg PUBLIC "-//W3C//DTD SVG 1.1//EN"
 "http://www.w3.org/Graphics/SVG/1.1/DTD/svg11.dtd">
<!-- Generated by graphviz version 2.43.0 (0)
 -->
<!-- Title: firmware/network/border_router/include/border_router.h Pages: 1 -->
<svg width="240pt" height="114pt"
 viewBox="0.00 0.00 239.50 114.00" xmlns="http://www.w3.org/2000/svg" xmlns:xlink="http://www.w3.org/1999/xlink">
<g id="graph0" class="graph" transform="scale(1 1) rotate(0) translate(4 110)">
<title>firmware/network/border_router/include/border_router.h</title>
<!-- Node1 -->
<g id="node1" class="node">
<title>Node1</title>
<g id="a_node1"><a xlink:title="this module content all functions of Border Router">
<polygon fill="#bfbfbf" stroke="black" points="32,-58.5 32,-105.5 198,-105.5 198,-58.5 32,-58.5"/>
<text text-anchor="start" x="40" y="-91.9" font-family="Helvetica,sans-Serif" font-size="12.00">firmware/network/border</text>
<text text-anchor="start" x="40" y="-78.9" font-family="Helvetica,sans-Serif" font-size="12.00">_router/include/border</text>
<text text-anchor="middle" x="115" y="-65.9" font-family="Helvetica,sans-Serif" font-size="12.00">_router.h</text>
</a>
</g>
</g>
<!-- Node2 -->
<g id="node2" class="node">
<title>Node2</title>
<g id="a_node2"><a xlink:title=" ">
<polygon fill="none" stroke="#bfbfbf" points="0,-0.5 0,-21.5 106,-21.5 106,-0.5 0,-0.5"/>
<text text-anchor="middle" x="53" y="-7.9" font-family="Helvetica,sans-Serif" font-size="12.00">net/ipv6/addr.h</text>
</a>
</g>
</g>
<!-- Node1&#45;&gt;Node2 -->
<g id="edge1" class="edge">
<title>Node1&#45;&gt;Node2</title>
<path fill="none" stroke="midnightblue" d="M94.7,-58.41C86.15,-48.9 76.37,-38.01 68.43,-29.18"/>
<polygon fill="midnightblue" stroke="midnightblue" points="71.03,-26.83 61.75,-21.74 65.83,-31.51 71.03,-26.83"/>
</g>
<!-- Node3 -->
<g id="node3" class="node">
<title>Node3</title>
<g id="a_node3"><a xlink:title=" ">
<polygon fill="none" stroke="#bfbfbf" points="124.5,-0.5 124.5,-21.5 231.5,-21.5 231.5,-0.5 124.5,-0.5"/>
<text text-anchor="middle" x="178" y="-7.9" font-family="Helvetica,sans-Serif" font-size="12.00">net/gnrc/netif.h</text>
</a>
</g>
</g>
<!-- Node1&#45;&gt;Node3 -->
<g id="edge2" class="edge">
<title>Node1&#45;&gt;Node3</title>
<path fill="none" stroke="midnightblue" d="M135.63,-58.41C144.31,-48.9 154.25,-38.01 162.32,-29.18"/>
<polygon fill="midnightblue" stroke="midnightblue" points="164.95,-31.48 169.11,-21.74 159.78,-26.76 164.95,-31.48"/>
</g>
</g>
</svg>
