<?xml version="1.0" encoding="UTF-8" standalone="no"?>
<!DOCTYPE svg PUBLIC "-//W3C//DTD SVG 1.1//EN"
 "http://www.w3.org/Graphics/SVG/1.1/DTD/svg11.dtd">
<!-- Generated by graphviz version 2.43.0 (0)
 -->
<!-- Title: firmware/network/chamos/include/chamos.h Pages: 1 -->
<svg width="332pt" height="101pt"
 viewBox="0.00 0.00 331.50 101.00" xmlns="http://www.w3.org/2000/svg" xmlns:xlink="http://www.w3.org/1999/xlink">
<g id="graph0" class="graph" transform="scale(1 1) rotate(0) translate(4 97)">
<title>firmware/network/chamos/include/chamos.h</title>
<!-- Node1 -->
<g id="node1" class="node">
<title>Node1</title>
<g id="a_node1"><a xlink:title="CHAMOS Communication Handler for Addressing Management | Origin Server.">
<polygon fill="#bfbfbf" stroke="black" points="61,-58.5 61,-92.5 234,-92.5 234,-58.5 61,-58.5"/>
<text text-anchor="start" x="69" y="-78.9" font-family="Helvetica,sans-Serif" font-size="12.00">firmware/network/chamos</text>
<text text-anchor="middle" x="147.5" y="-65.9" font-family="Helvetica,sans-Serif" font-size="12.00">/include/chamos.h</text>
</a>
</g>
</g>
<!-- Node2 -->
<g id="node2" class="node">
<title>Node2</title>
<g id="a_node2"><a xlink:title=" ">
<polygon fill="none" stroke="#bfbfbf" points="0,-0.5 0,-21.5 77,-21.5 77,-0.5 0,-0.5"/>
<text text-anchor="middle" x="38.5" y="-7.9" font-family="Helvetica,sans-Serif" font-size="12.00">net/gnrc.h</text>
</a>
</g>
</g>
<!-- Node1&#45;&gt;Node2 -->
<g id="edge1" class="edge">
<title>Node1&#45;&gt;Node2</title>
<path fill="none" stroke="midnightblue" d="M119.43,-58.4C102.45,-48.67 80.96,-36.34 64.39,-26.84"/>
<polygon fill="midnightblue" stroke="midnightblue" points="65.69,-23.55 55.27,-21.62 62.21,-29.63 65.69,-23.55"/>
</g>
<!-- Node3 -->
<g id="node3" class="node">
<title>Node3</title>
<g id="a_node3"><a xlink:title=" ">
<polygon fill="none" stroke="#bfbfbf" points="95.5,-0.5 95.5,-21.5 199.5,-21.5 199.5,-0.5 95.5,-0.5"/>
<text text-anchor="middle" x="147.5" y="-7.9" font-family="Helvetica,sans-Serif" font-size="12.00">net/sock/udp.h</text>
</a>
</g>
</g>
<!-- Node1&#45;&gt;Node3 -->
<g id="edge2" class="edge">
<title>Node1&#45;&gt;Node3</title>
<path fill="none" stroke="midnightblue" d="M147.5,-58.4C147.5,-50.36 147.5,-40.54 147.5,-32.01"/>
<polygon fill="midnightblue" stroke="midnightblue" points="151,-31.8 147.5,-21.8 144,-31.8 151,-31.8"/>
</g>
<!-- Node4 -->
<g id="node4" class="node">
<title>Node4</title>
<g id="a_node4"><a xlink:title=" ">
<polygon fill="none" stroke="#bfbfbf" points="217.5,-0.5 217.5,-21.5 323.5,-21.5 323.5,-0.5 217.5,-0.5"/>
<text text-anchor="middle" x="270.5" y="-7.9" font-family="Helvetica,sans-Serif" font-size="12.00">net/ipv6/addr.h</text>
</a>
</g>
</g>
<!-- Node1&#45;&gt;Node4 -->
<g id="edge3" class="edge">
<title>Node1&#45;&gt;Node4</title>
<path fill="none" stroke="midnightblue" d="M179.18,-58.4C198.78,-48.44 223.73,-35.77 242.59,-26.18"/>
<polygon fill="midnightblue" stroke="midnightblue" points="244.24,-29.27 251.57,-21.62 241.07,-23.03 244.24,-29.27"/>
</g>
</g>
</svg>
