<?xml version="1.0" encoding="UTF-8" standalone="no"?>
<!DOCTYPE svg PUBLIC "-//W3C//DTD SVG 1.1//EN"
 "http://www.w3.org/Graphics/SVG/1.1/DTD/svg11.dtd">
<!-- Generated by graphviz version 2.43.0 (0)
 -->
<!-- Title: dist/tools/chamoc/include/chamoc_msg.h Pages: 1 -->
<svg width="455pt" height="159pt"
 viewBox="0.00 0.00 454.50 159.00" xmlns="http://www.w3.org/2000/svg" xmlns:xlink="http://www.w3.org/1999/xlink">
<g id="graph0" class="graph" transform="scale(1 1) rotate(0) translate(4 155)">
<title>dist/tools/chamoc/include/chamoc_msg.h</title>
<!-- Node1 -->
<g id="node1" class="node">
<title>Node1</title>
<g id="a_node1"><a xlink:title="Message structures and functions under CHAMOS, refers all intercomunication, sending and receiving me...">
<polygon fill="#bfbfbf" stroke="black" points="58,-116.5 58,-150.5 226,-150.5 226,-116.5 58,-116.5"/>
<text text-anchor="start" x="66" y="-136.9" font-family="Helvetica,sans-Serif" font-size="12.00">dist/tools/chamoc/include</text>
<text text-anchor="middle" x="142" y="-123.9" font-family="Helvetica,sans-Serif" font-size="12.00">/chamoc_msg.h</text>
</a>
</g>
</g>
<!-- Node2 -->
<g id="node2" class="node">
<title>Node2</title>
<g id="a_node2"><a xlink:title=" ">
<polygon fill="none" stroke="#bfbfbf" points="0,-0.5 0,-21.5 56,-21.5 56,-0.5 0,-0.5"/>
<text text-anchor="middle" x="28" y="-7.9" font-family="Helvetica,sans-Serif" font-size="12.00">stdio.h</text>
</a>
</g>
</g>
<!-- Node1&#45;&gt;Node2 -->
<g id="edge1" class="edge">
<title>Node1&#45;&gt;Node2</title>
<path fill="none" stroke="midnightblue" d="M126.63,-116.25C105.1,-93.49 66.15,-52.32 44.19,-29.11"/>
<polygon fill="midnightblue" stroke="midnightblue" points="46.6,-26.57 37.19,-21.71 41.52,-31.38 46.6,-26.57"/>
</g>
<!-- Node3 -->
<g id="node3" class="node">
<title>Node3</title>
<g id="a_node3"><a xlink:title=" ">
<polygon fill="none" stroke="#bfbfbf" points="74.5,-0.5 74.5,-21.5 135.5,-21.5 135.5,-0.5 74.5,-0.5"/>
<text text-anchor="middle" x="105" y="-7.9" font-family="Helvetica,sans-Serif" font-size="12.00">stdint.h</text>
</a>
</g>
</g>
<!-- Node1&#45;&gt;Node3 -->
<g id="edge2" class="edge">
<title>Node1&#45;&gt;Node3</title>
<path fill="none" stroke="midnightblue" d="M137.01,-116.25C130.24,-94.19 118.15,-54.82 110.92,-31.29"/>
<polygon fill="midnightblue" stroke="midnightblue" points="114.26,-30.24 107.98,-21.71 107.57,-32.3 114.26,-30.24"/>
</g>
<!-- Node4 -->
<g id="node4" class="node">
<title>Node4</title>
<g id="a_node4"><a xlink:title=" ">
<polygon fill="none" stroke="#bfbfbf" points="357.5,-0.5 357.5,-21.5 446.5,-21.5 446.5,-0.5 357.5,-0.5"/>
<text text-anchor="middle" x="402" y="-7.9" font-family="Helvetica,sans-Serif" font-size="12.00">sys/socket.h</text>
</a>
</g>
</g>
<!-- Node1&#45;&gt;Node4 -->
<g id="edge3" class="edge">
<title>Node1&#45;&gt;Node4</title>
<path fill="none" stroke="midnightblue" d="M176.53,-116.5C227.83,-92.72 323.35,-48.45 371.94,-25.93"/>
<polygon fill="midnightblue" stroke="midnightblue" points="373.68,-28.98 381.28,-21.6 370.74,-22.63 373.68,-28.98"/>
</g>
<!-- Node5 -->
<g id="node5" class="node">
<title>Node5</title>
<g id="a_node5"><a xlink:href="client_8h.html" target="_top" xlink:title="CHAMOC client socket connection.">
<polygon fill="none" stroke="black" points="157,-58.5 157,-79.5 217,-79.5 217,-58.5 157,-58.5"/>
<text text-anchor="middle" x="187" y="-65.9" font-family="Helvetica,sans-Serif" font-size="12.00">client.h</text>
</a>
</g>
</g>
<!-- Node1&#45;&gt;Node5 -->
<g id="edge4" class="edge">
<title>Node1&#45;&gt;Node5</title>
<path fill="none" stroke="midnightblue" d="M153.59,-116.4C159.84,-107.72 167.57,-96.99 174.02,-88.03"/>
<polygon fill="midnightblue" stroke="midnightblue" points="176.94,-89.96 179.94,-79.8 171.26,-85.87 176.94,-89.96"/>
</g>
<!-- Node5&#45;&gt;Node2 -->
<g id="edge5" class="edge">
<title>Node5&#45;&gt;Node2</title>
<path fill="none" stroke="midnightblue" d="M159.67,-58.37C133.46,-49.14 93.7,-35.14 64.73,-24.94"/>
<polygon fill="midnightblue" stroke="midnightblue" points="65.57,-21.52 54.98,-21.5 63.25,-28.12 65.57,-21.52"/>
</g>
<!-- Node5&#45;&gt;Node3 -->
<g id="edge6" class="edge">
<title>Node5&#45;&gt;Node3</title>
<path fill="none" stroke="midnightblue" d="M172.72,-58.25C160.25,-49.73 141.95,-37.24 127.52,-27.38"/>
<polygon fill="midnightblue" stroke="midnightblue" points="129.35,-24.39 119.12,-21.64 125.4,-30.17 129.35,-24.39"/>
</g>
<!-- Node5&#45;&gt;Node4 -->
<g id="edge7" class="edge">
<title>Node5&#45;&gt;Node4</title>
<path fill="none" stroke="midnightblue" d="M217.35,-60.1C253.35,-50.72 313.77,-34.98 355.64,-24.08"/>
<polygon fill="midnightblue" stroke="midnightblue" points="356.54,-27.46 365.33,-21.55 354.77,-20.68 356.54,-27.46"/>
</g>
<!-- Node6 -->
<g id="node6" class="node">
<title>Node6</title>
<g id="a_node6"><a xlink:title=" ">
<polygon fill="none" stroke="#bfbfbf" points="256.5,-0.5 256.5,-21.5 339.5,-21.5 339.5,-0.5 256.5,-0.5"/>
<text text-anchor="middle" x="298" y="-7.9" font-family="Helvetica,sans-Serif" font-size="12.00">sys/types.h</text>
</a>
</g>
</g>
<!-- Node5&#45;&gt;Node6 -->
<g id="edge8" class="edge">
<title>Node5&#45;&gt;Node6</title>
<path fill="none" stroke="midnightblue" d="M206.08,-58.37C223.74,-49.46 250.21,-36.11 270.21,-26.02"/>
<polygon fill="midnightblue" stroke="midnightblue" points="271.82,-29.13 279.17,-21.5 268.66,-22.88 271.82,-29.13"/>
</g>
<!-- Node7 -->
<g id="node7" class="node">
<title>Node7</title>
<g id="a_node7"><a xlink:title=" ">
<polygon fill="none" stroke="#bfbfbf" points="154,-0.5 154,-21.5 238,-21.5 238,-0.5 154,-0.5"/>
<text text-anchor="middle" x="196" y="-7.9" font-family="Helvetica,sans-Serif" font-size="12.00">netinet/in.h</text>
</a>
</g>
</g>
<!-- Node5&#45;&gt;Node7 -->
<g id="edge9" class="edge">
<title>Node5&#45;&gt;Node7</title>
<path fill="none" stroke="midnightblue" d="M188.57,-58.25C189.74,-50.94 191.39,-40.69 192.83,-31.7"/>
<polygon fill="midnightblue" stroke="midnightblue" points="196.32,-32.07 194.45,-21.64 189.41,-30.96 196.32,-32.07"/>
</g>
</g>
</svg>
