<?xml version="1.0" encoding="UTF-8" standalone="no"?>
<!DOCTYPE svg PUBLIC "-//W3C//DTD SVG 1.1//EN"
 "http://www.w3.org/Graphics/SVG/1.1/DTD/svg11.dtd">
<!-- Generated by graphviz version 2.43.0 (0)
 -->
<!-- Title: dist/tools/chamoc/include/client.h Pages: 1 -->
<svg width="454pt" height="101pt"
 viewBox="0.00 0.00 454.00 101.00" xmlns="http://www.w3.org/2000/svg" xmlns:xlink="http://www.w3.org/1999/xlink">
<g id="graph0" class="graph" transform="scale(1 1) rotate(0) translate(4 97)">
<title>dist/tools/chamoc/include/client.h</title>
<!-- Node1 -->
<g id="node1" class="node">
<title>Node1</title>
<g id="a_node1"><a xlink:title="CHAMOC client socket connection.">
<polygon fill="#bfbfbf" stroke="black" points="114,-58.5 114,-92.5 282,-92.5 282,-58.5 114,-58.5"/>
<text text-anchor="start" x="122" y="-78.9" font-family="Helvetica,sans-Serif" font-size="12.00">dist/tools/chamoc/include</text>
<text text-anchor="middle" x="198" y="-65.9" font-family="Helvetica,sans-Serif" font-size="12.00">/client.h</text>
</a>
</g>
</g>
<!-- Node2 -->
<g id="node2" class="node">
<title>Node2</title>
<g id="a_node2"><a xlink:title=" ">
<polygon fill="none" stroke="#bfbfbf" points="0,-0.5 0,-21.5 56,-21.5 56,-0.5 0,-0.5"/>
<text text-anchor="middle" x="28" y="-7.9" font-family="Helvetica,sans-Serif" font-size="12.00">stdio.h</text>
</a>
</g>
</g>
<!-- Node1&#45;&gt;Node2 -->
<g id="edge1" class="edge">
<title>Node1&#45;&gt;Node2</title>
<path fill="none" stroke="midnightblue" d="M154.22,-58.4C126.13,-48.08 90.12,-34.84 63.75,-25.14"/>
<polygon fill="midnightblue" stroke="midnightblue" points="64.75,-21.78 54.16,-21.62 62.34,-28.35 64.75,-21.78"/>
</g>
<!-- Node3 -->
<g id="node3" class="node">
<title>Node3</title>
<g id="a_node3"><a xlink:title=" ">
<polygon fill="none" stroke="#bfbfbf" points="74.5,-0.5 74.5,-21.5 135.5,-21.5 135.5,-0.5 74.5,-0.5"/>
<text text-anchor="middle" x="105" y="-7.9" font-family="Helvetica,sans-Serif" font-size="12.00">stdint.h</text>
</a>
</g>
</g>
<!-- Node1&#45;&gt;Node3 -->
<g id="edge2" class="edge">
<title>Node1&#45;&gt;Node3</title>
<path fill="none" stroke="midnightblue" d="M174.05,-58.4C159.83,-48.85 141.91,-36.8 127.88,-27.38"/>
<polygon fill="midnightblue" stroke="midnightblue" points="129.56,-24.29 119.31,-21.62 125.66,-30.1 129.56,-24.29"/>
</g>
<!-- Node4 -->
<g id="node4" class="node">
<title>Node4</title>
<g id="a_node4"><a xlink:title=" ">
<polygon fill="none" stroke="#bfbfbf" points="153.5,-0.5 153.5,-21.5 242.5,-21.5 242.5,-0.5 153.5,-0.5"/>
<text text-anchor="middle" x="198" y="-7.9" font-family="Helvetica,sans-Serif" font-size="12.00">sys/socket.h</text>
</a>
</g>
</g>
<!-- Node1&#45;&gt;Node4 -->
<g id="edge3" class="edge">
<title>Node1&#45;&gt;Node4</title>
<path fill="none" stroke="midnightblue" d="M198,-58.4C198,-50.36 198,-40.54 198,-32.01"/>
<polygon fill="midnightblue" stroke="midnightblue" points="201.5,-31.8 198,-21.8 194.5,-31.8 201.5,-31.8"/>
</g>
<!-- Node5 -->
<g id="node5" class="node">
<title>Node5</title>
<g id="a_node5"><a xlink:title=" ">
<polygon fill="none" stroke="#bfbfbf" points="260.5,-0.5 260.5,-21.5 343.5,-21.5 343.5,-0.5 260.5,-0.5"/>
<text text-anchor="middle" x="302" y="-7.9" font-family="Helvetica,sans-Serif" font-size="12.00">sys/types.h</text>
</a>
</g>
</g>
<!-- Node1&#45;&gt;Node5 -->
<g id="edge4" class="edge">
<title>Node1&#45;&gt;Node5</title>
<path fill="none" stroke="midnightblue" d="M224.78,-58.4C240.98,-48.67 261.49,-36.34 277.3,-26.84"/>
<polygon fill="midnightblue" stroke="midnightblue" points="279.23,-29.77 286,-21.62 275.62,-23.77 279.23,-29.77"/>
</g>
<!-- Node6 -->
<g id="node6" class="node">
<title>Node6</title>
<g id="a_node6"><a xlink:title=" ">
<polygon fill="none" stroke="#bfbfbf" points="362,-0.5 362,-21.5 446,-21.5 446,-0.5 362,-0.5"/>
<text text-anchor="middle" x="404" y="-7.9" font-family="Helvetica,sans-Serif" font-size="12.00">netinet/in.h</text>
</a>
</g>
</g>
<!-- Node1&#45;&gt;Node6 -->
<g id="edge5" class="edge">
<title>Node1&#45;&gt;Node6</title>
<path fill="none" stroke="midnightblue" d="M250.78,-58.49C285.53,-47.94 330.36,-34.34 362.55,-24.58"/>
<polygon fill="midnightblue" stroke="midnightblue" points="363.97,-27.8 372.52,-21.55 361.93,-21.11 363.97,-27.8"/>
</g>
</g>
</svg>
