<?xml version="1.0" encoding="UTF-8" standalone="no"?>
<!DOCTYPE svg PUBLIC "-//W3C//DTD SVG 1.1//EN"
 "http://www.w3.org/Graphics/SVG/1.1/DTD/svg11.dtd">
<!-- Generated by graphviz version 2.43.0 (0)
 -->
<!-- Title: firmware/sys/storage/include/storage.h Pages: 1 -->
<svg width="198pt" height="101pt"
 viewBox="0.00 0.00 198.00 101.00" xmlns="http://www.w3.org/2000/svg" xmlns:xlink="http://www.w3.org/1999/xlink">
<g id="graph0" class="graph" transform="scale(1 1) rotate(0) translate(4 97)">
<title>firmware/sys/storage/include/storage.h</title>
<!-- Node1 -->
<g id="node1" class="node">
<title>Node1</title>
<g id="a_node1"><a xlink:title="This is the storage module where you can save data in the flash memory. This data should not be great...">
<polygon fill="#bfbfbf" stroke="black" points="9,-58.5 9,-92.5 151,-92.5 151,-58.5 9,-58.5"/>
<text text-anchor="start" x="17" y="-78.9" font-family="Helvetica,sans-Serif" font-size="12.00">firmware/sys/storage</text>
<text text-anchor="middle" x="80" y="-65.9" font-family="Helvetica,sans-Serif" font-size="12.00">/include/storage.h</text>
</a>
</g>
</g>
<!-- Node2 -->
<g id="node2" class="node">
<title>Node2</title>
<g id="a_node2"><a xlink:title=" ">
<polygon fill="none" stroke="#bfbfbf" points="0,-0.5 0,-21.5 56,-21.5 56,-0.5 0,-0.5"/>
<text text-anchor="middle" x="28" y="-7.9" font-family="Helvetica,sans-Serif" font-size="12.00">stdio.h</text>
</a>
</g>
</g>
<!-- Node1&#45;&gt;Node2 -->
<g id="edge1" class="edge">
<title>Node1&#45;&gt;Node2</title>
<path fill="none" stroke="midnightblue" d="M66.61,-58.4C59.31,-49.63 50.27,-38.76 42.76,-29.75"/>
<polygon fill="midnightblue" stroke="midnightblue" points="45.24,-27.25 36.15,-21.8 39.86,-31.73 45.24,-27.25"/>
</g>
<!-- Node3 -->
<g id="node3" class="node">
<title>Node3</title>
<g id="a_node3"><a xlink:title=" ">
<polygon fill="none" stroke="#bfbfbf" points="74,-0.5 74,-21.5 190,-21.5 190,-0.5 74,-0.5"/>
<text text-anchor="middle" x="132" y="-7.9" font-family="Helvetica,sans-Serif" font-size="12.00">mtd_flashpage.h</text>
</a>
</g>
</g>
<!-- Node1&#45;&gt;Node3 -->
<g id="edge2" class="edge">
<title>Node1&#45;&gt;Node3</title>
<path fill="none" stroke="midnightblue" d="M93.39,-58.4C100.69,-49.63 109.73,-38.76 117.24,-29.75"/>
<polygon fill="midnightblue" stroke="midnightblue" points="120.14,-31.73 123.85,-21.8 114.76,-27.25 120.14,-31.73"/>
</g>
</g>
</svg>
