<?xml version="1.0" encoding="UTF-8" standalone="no"?>
<!DOCTYPE svg PUBLIC "-//W3C//DTD SVG 1.1//EN"
 "http://www.w3.org/Graphics/SVG/1.1/DTD/svg11.dtd">
<!-- Generated by graphviz version 2.43.0 (0)
 -->
<!-- Title: wifi&#45;subsys/components/protocols/src/httpsclient.h Pages: 1 -->
<svg width="214pt" height="101pt"
 viewBox="0.00 0.00 214.00 101.00" xmlns="http://www.w3.org/2000/svg" xmlns:xlink="http://www.w3.org/1999/xlink">
<g id="graph0" class="graph" transform="scale(1 1) rotate(0) translate(4 97)">
<title>wifi&#45;subsys/components/protocols/src/httpsclient.h</title>
<!-- Node1 -->
<g id="node1" class="node">
<title>Node1</title>
<g id="a_node1"><a xlink:title="Configure a https client to make a request.">
<polygon fill="#bfbfbf" stroke="black" points="5,-58.5 5,-92.5 178,-92.5 178,-58.5 5,-58.5"/>
<text text-anchor="start" x="13" y="-78.9" font-family="Helvetica,sans-Serif" font-size="12.00">wifi&#45;subsys/components</text>
<text text-anchor="middle" x="91.5" y="-65.9" font-family="Helvetica,sans-Serif" font-size="12.00">/protocols/src/httpsclient.h</text>
</a>
</g>
</g>
<!-- Node2 -->
<g id="node2" class="node">
<title>Node2</title>
<g id="a_node2"><a xlink:title=" ">
<polygon fill="none" stroke="#bfbfbf" points="0,-0.5 0,-21.5 71,-21.5 71,-0.5 0,-0.5"/>
<text text-anchor="middle" x="35.5" y="-7.9" font-family="Helvetica,sans-Serif" font-size="12.00">esp_err.h</text>
</a>
</g>
</g>
<!-- Node1&#45;&gt;Node2 -->
<g id="edge1" class="edge">
<title>Node1&#45;&gt;Node2</title>
<path fill="none" stroke="midnightblue" d="M77.08,-58.4C69.14,-49.54 59.28,-38.54 51.15,-29.47"/>
<polygon fill="midnightblue" stroke="midnightblue" points="53.56,-26.91 44.28,-21.8 48.35,-31.58 53.56,-26.91"/>
</g>
<!-- Node3 -->
<g id="node3" class="node">
<title>Node3</title>
<g id="a_node3"><a xlink:title=" ">
<polygon fill="none" stroke="#bfbfbf" points="89,-0.5 89,-21.5 206,-21.5 206,-0.5 89,-0.5"/>
<text text-anchor="middle" x="147.5" y="-7.9" font-family="Helvetica,sans-Serif" font-size="12.00">esp_http_client.h</text>
</a>
</g>
</g>
<!-- Node1&#45;&gt;Node3 -->
<g id="edge2" class="edge">
<title>Node1&#45;&gt;Node3</title>
<path fill="none" stroke="midnightblue" d="M105.92,-58.4C113.86,-49.54 123.72,-38.54 131.85,-29.47"/>
<polygon fill="midnightblue" stroke="midnightblue" points="134.65,-31.58 138.72,-21.8 129.44,-26.91 134.65,-31.58"/>
</g>
</g>
</svg>
