<?xml version="1.0" encoding="UTF-8" standalone="no"?>
<!DOCTYPE svg PUBLIC "-//W3C//DTD SVG 1.1//EN"
 "http://www.w3.org/Graphics/SVG/1.1/DTD/svg11.dtd">
<!-- Generated by graphviz version 2.43.0 (0)
 -->
<!-- Title: boards/m4a&#45;mb/include/board.h Pages: 1 -->
<svg width="332pt" height="114pt"
 viewBox="0.00 0.00 331.50 114.00" xmlns="http://www.w3.org/2000/svg" xmlns:xlink="http://www.w3.org/1999/xlink">
<g id="graph0" class="graph" transform="scale(1 1) rotate(0) translate(4 110)">
<title>boards/m4a&#45;mb/include/board.h</title>
<!-- Node1 -->
<g id="node1" class="node">
<title>Node1</title>
<g id="a_node1"><a xlink:title="Board specific definitions for the M4A&#45;MB.">
<polygon fill="#bfbfbf" stroke="black" points="85,-71.5 85,-105.5 243,-105.5 243,-71.5 85,-71.5"/>
<text text-anchor="start" x="93" y="-91.9" font-family="Helvetica,sans-Serif" font-size="12.00">boards/m4a&#45;mb/include</text>
<text text-anchor="middle" x="164" y="-78.9" font-family="Helvetica,sans-Serif" font-size="12.00">/board.h</text>
</a>
</g>
</g>
<!-- Node2 -->
<g id="node2" class="node">
<title>Node2</title>
<g id="a_node2"><a xlink:href="m4a-mb_2include_2gpio__params_8h.html" target="_top" xlink:title="Board specific configuration of direct mapped GPIOs.">
<polygon fill="none" stroke="black" points="0,-0.5 0,-34.5 158,-34.5 158,-0.5 0,-0.5"/>
<text text-anchor="start" x="8" y="-20.9" font-family="Helvetica,sans-Serif" font-size="12.00">boards/m4a&#45;mb/include</text>
<text text-anchor="middle" x="79" y="-7.9" font-family="Helvetica,sans-Serif" font-size="12.00">/gpio_params.h</text>
</a>
</g>
</g>
<!-- Node1&#45;&gt;Node2 -->
<g id="edge1" class="edge">
<title>Node1&#45;&gt;Node2</title>
<path fill="none" stroke="midnightblue" d="M136.21,-64.94C124.03,-55.05 110.01,-43.67 98.9,-34.66"/>
<polygon fill="midnightblue" stroke="midnightblue" points="134.32,-67.91 144.29,-71.5 138.73,-62.48 134.32,-67.91"/>
</g>
<!-- Node3 -->
<g id="node3" class="node">
<title>Node3</title>
<g id="a_node3"><a xlink:href="uniqueid_8h.html" target="_top" xlink:title="IPV6 address.">
<polygon fill="none" stroke="black" points="176.5,-0.5 176.5,-34.5 323.5,-34.5 323.5,-0.5 176.5,-0.5"/>
<text text-anchor="start" x="184.5" y="-20.9" font-family="Helvetica,sans-Serif" font-size="12.00">firmware/sys/uniqueid</text>
<text text-anchor="middle" x="250" y="-7.9" font-family="Helvetica,sans-Serif" font-size="12.00">/include/uniqueid.h</text>
</a>
</g>
</g>
<!-- Node1&#45;&gt;Node3 -->
<g id="edge2" class="edge">
<title>Node1&#45;&gt;Node3</title>
<path fill="none" stroke="midnightblue" d="M191.77,-65.22C204.17,-55.27 218.51,-43.76 229.86,-34.66"/>
<polygon fill="midnightblue" stroke="midnightblue" points="189.56,-62.51 183.95,-71.5 193.94,-67.97 189.56,-62.51"/>
</g>
</g>
</svg>
