<?xml version="1.0" encoding="UTF-8" standalone="no"?>
<!DOCTYPE svg PUBLIC "-//W3C//DTD SVG 1.1//EN"
 "http://www.w3.org/Graphics/SVG/1.1/DTD/svg11.dtd">
<!-- Generated by graphviz version 2.43.0 (0)
 -->
<!-- Title: boards/m4a&#45;mb/include/gpio_params.h Pages: 1 -->
<svg width="251pt" height="217pt"
 viewBox="0.00 0.00 251.00 217.00" xmlns="http://www.w3.org/2000/svg" xmlns:xlink="http://www.w3.org/1999/xlink">
<g id="graph0" class="graph" transform="scale(1 1) rotate(0) translate(4 213)">
<title>boards/m4a&#45;mb/include/gpio_params.h</title>
<!-- Node1 -->
<g id="node1" class="node">
<title>Node1</title>
<g id="a_node1"><a xlink:title="Board specific configuration of direct mapped GPIOs.">
<polygon fill="#bfbfbf" stroke="black" points="31,-174.5 31,-208.5 189,-208.5 189,-174.5 31,-174.5"/>
<text text-anchor="start" x="39" y="-194.9" font-family="Helvetica,sans-Serif" font-size="12.00">boards/m4a&#45;mb/include</text>
<text text-anchor="middle" x="110" y="-181.9" font-family="Helvetica,sans-Serif" font-size="12.00">/gpio_params.h</text>
</a>
</g>
</g>
<!-- Node2 -->
<g id="node2" class="node">
<title>Node2</title>
<g id="a_node2"><a xlink:href="m4a-mb_2include_2board_8h.html" target="_top" xlink:title="Board specific definitions for the M4A&#45;MB.">
<polygon fill="none" stroke="black" points="31,-116.5 31,-137.5 93,-137.5 93,-116.5 31,-116.5"/>
<text text-anchor="middle" x="62" y="-123.9" font-family="Helvetica,sans-Serif" font-size="12.00">board.h</text>
</a>
</g>
</g>
<!-- Node1&#45;&gt;Node2 -->
<g id="edge1" class="edge">
<title>Node1&#45;&gt;Node2</title>
<path fill="none" stroke="midnightblue" d="M97.64,-174.4C90.9,-165.63 82.55,-154.76 75.63,-145.75"/>
<polygon fill="midnightblue" stroke="midnightblue" points="78.39,-143.6 69.53,-137.8 72.84,-147.86 78.39,-143.6"/>
</g>
<!-- Node7 -->
<g id="node7" class="node">
<title>Node7</title>
<g id="a_node7"><a xlink:title=" ">
<polygon fill="none" stroke="#bfbfbf" points="111,-116.5 111,-137.5 205,-137.5 205,-116.5 111,-116.5"/>
<text text-anchor="middle" x="158" y="-123.9" font-family="Helvetica,sans-Serif" font-size="12.00">saul/periph.h</text>
</a>
</g>
</g>
<!-- Node1&#45;&gt;Node7 -->
<g id="edge7" class="edge">
<title>Node1&#45;&gt;Node7</title>
<path fill="none" stroke="midnightblue" d="M122.36,-174.4C129.1,-165.63 137.45,-154.76 144.37,-145.75"/>
<polygon fill="midnightblue" stroke="midnightblue" points="147.16,-147.86 150.47,-137.8 141.61,-143.6 147.16,-147.86"/>
</g>
<!-- Node3 -->
<g id="node3" class="node">
<title>Node3</title>
<g id="a_node3"><a xlink:title=" ">
<polygon fill="none" stroke="#bfbfbf" points="0,-0.5 0,-21.5 50,-21.5 50,-0.5 0,-0.5"/>
<text text-anchor="middle" x="25" y="-7.9" font-family="Helvetica,sans-Serif" font-size="12.00">cpu.h</text>
</a>
</g>
</g>
<!-- Node2&#45;&gt;Node3 -->
<g id="edge2" class="edge">
<title>Node2&#45;&gt;Node3</title>
<path fill="none" stroke="midnightblue" d="M57.85,-116.23C54,-106.99 48.24,-92.69 44,-80 38.6,-63.86 33.47,-45.22 29.9,-31.54"/>
<polygon fill="midnightblue" stroke="midnightblue" points="33.27,-30.6 27.4,-21.78 26.49,-32.33 33.27,-30.6"/>
</g>
<!-- Node4 -->
<g id="node4" class="node">
<title>Node4</title>
<g id="a_node4"><a xlink:href="m4a-mb_2include_2periph__conf_8h.html" target="_top" xlink:title="Peripheral MCU configuration for m4a_mb board.">
<polygon fill="none" stroke="black" points="52.5,-58.5 52.5,-79.5 149.5,-79.5 149.5,-58.5 52.5,-58.5"/>
<text text-anchor="middle" x="101" y="-65.9" font-family="Helvetica,sans-Serif" font-size="12.00">periph_conf.h</text>
</a>
</g>
</g>
<!-- Node2&#45;&gt;Node4 -->
<g id="edge3" class="edge">
<title>Node2&#45;&gt;Node4</title>
<path fill="none" stroke="midnightblue" d="M68.79,-116.25C74.22,-108.46 81.97,-97.33 88.5,-87.94"/>
<polygon fill="midnightblue" stroke="midnightblue" points="91.44,-89.85 94.28,-79.64 85.7,-85.85 91.44,-89.85"/>
</g>
<!-- Node4&#45;&gt;Node3 -->
<g id="edge5" class="edge">
<title>Node4&#45;&gt;Node3</title>
<path fill="none" stroke="midnightblue" d="M87.76,-58.25C76.32,-49.81 59.57,-37.47 46.25,-27.66"/>
<polygon fill="midnightblue" stroke="midnightblue" points="48.21,-24.76 38.09,-21.64 44.06,-30.39 48.21,-24.76"/>
</g>
<!-- Node5 -->
<g id="node5" class="node">
<title>Node5</title>
<g id="a_node5"><a xlink:title=" ">
<polygon fill="none" stroke="#bfbfbf" points="69.5,-0.5 69.5,-21.5 130.5,-21.5 130.5,-0.5 69.5,-0.5"/>
<text text-anchor="middle" x="100" y="-7.9" font-family="Helvetica,sans-Serif" font-size="12.00">stdint.h</text>
</a>
</g>
</g>
<!-- Node4&#45;&gt;Node5 -->
<g id="edge4" class="edge">
<title>Node4&#45;&gt;Node5</title>
<path fill="none" stroke="midnightblue" d="M100.83,-58.25C100.7,-50.94 100.51,-40.69 100.35,-31.7"/>
<polygon fill="midnightblue" stroke="midnightblue" points="103.85,-31.58 100.17,-21.64 96.85,-31.7 103.85,-31.58"/>
</g>
<!-- Node6 -->
<g id="node6" class="node">
<title>Node6</title>
<g id="a_node6"><a xlink:title=" ">
<polygon fill="none" stroke="#bfbfbf" points="149,-0.5 149,-21.5 243,-21.5 243,-0.5 149,-0.5"/>
<text text-anchor="middle" x="196" y="-7.9" font-family="Helvetica,sans-Serif" font-size="12.00">periph_cpu.h</text>
</a>
</g>
</g>
<!-- Node4&#45;&gt;Node6 -->
<g id="edge6" class="edge">
<title>Node4&#45;&gt;Node6</title>
<path fill="none" stroke="midnightblue" d="M117.55,-58.25C132.26,-49.57 153.99,-36.76 170.85,-26.82"/>
<polygon fill="midnightblue" stroke="midnightblue" points="172.8,-29.74 179.64,-21.64 169.25,-23.71 172.8,-29.74"/>
</g>
</g>
</svg>
