<?xml version="1.0" encoding="UTF-8" standalone="no"?>
<!DOCTYPE svg PUBLIC "-//W3C//DTD SVG 1.1//EN"
 "http://www.w3.org/Graphics/SVG/1.1/DTD/svg11.dtd">
<!-- Generated by graphviz version 2.43.0 (0)
 -->
<!-- Title: boards/m4a&#45;wrover/include/periph_conf.h Pages: 1 -->
<svg width="354pt" height="185pt"
 viewBox="0.00 0.00 353.50 185.00" xmlns="http://www.w3.org/2000/svg" xmlns:xlink="http://www.w3.org/1999/xlink">
<g id="graph0" class="graph" transform="scale(1 1) rotate(0) translate(4 181)">
<title>boards/m4a&#45;wrover/include/periph_conf.h</title>
<!-- Node1 -->
<g id="node1" class="node">
<title>Node1</title>
<g id="a_node1"><a xlink:title="Peripheral MCU configuration for Espressif ESP&#45;WROVER&#45;KIT V3.">
<polygon fill="#bfbfbf" stroke="black" points="91,-142.5 91,-176.5 271,-176.5 271,-142.5 91,-142.5"/>
<text text-anchor="start" x="99" y="-162.9" font-family="Helvetica,sans-Serif" font-size="12.00">boards/m4a&#45;wrover/include</text>
<text text-anchor="middle" x="181" y="-149.9" font-family="Helvetica,sans-Serif" font-size="12.00">/periph_conf.h</text>
</a>
</g>
</g>
<!-- Node2 -->
<g id="node2" class="node">
<title>Node2</title>
<g id="a_node2"><a xlink:href="m4a-wrover_2include_2board_8h.html" target="_top" xlink:title="Board specific definitions for Espressif ESP&#45;WROVER&#45;KIT V3.">
<polygon fill="none" stroke="black" points="91,-71.5 91,-105.5 271,-105.5 271,-71.5 91,-71.5"/>
<text text-anchor="start" x="99" y="-91.9" font-family="Helvetica,sans-Serif" font-size="12.00">boards/m4a&#45;wrover/include</text>
<text text-anchor="middle" x="181" y="-78.9" font-family="Helvetica,sans-Serif" font-size="12.00">/board.h</text>
</a>
</g>
</g>
<!-- Node1&#45;&gt;Node2 -->
<g id="edge1" class="edge">
<title>Node1&#45;&gt;Node2</title>
<path fill="none" stroke="midnightblue" d="M181,-132.25C181,-123.39 181,-113.77 181,-105.9"/>
<polygon fill="midnightblue" stroke="midnightblue" points="177.5,-132.5 181,-142.5 184.5,-132.5 177.5,-132.5"/>
</g>
<!-- Node3 -->
<g id="node3" class="node">
<title>Node3</title>
<g id="a_node3"><a xlink:href="m4a-wrover_2include_2gpio__params_8h.html" target="_top" xlink:title="Board specific configuration of direct mapped GPIOs.">
<polygon fill="none" stroke="black" points="0,-0.5 0,-34.5 180,-34.5 180,-0.5 0,-0.5"/>
<text text-anchor="start" x="8" y="-20.9" font-family="Helvetica,sans-Serif" font-size="12.00">boards/m4a&#45;wrover/include</text>
<text text-anchor="middle" x="90" y="-7.9" font-family="Helvetica,sans-Serif" font-size="12.00">/gpio_params.h</text>
</a>
</g>
</g>
<!-- Node2&#45;&gt;Node3 -->
<g id="edge2" class="edge">
<title>Node2&#45;&gt;Node3</title>
<path fill="none" stroke="midnightblue" d="M151.62,-65.22C138.5,-55.27 123.32,-43.76 111.31,-34.66"/>
<polygon fill="midnightblue" stroke="midnightblue" points="149.81,-68.24 159.89,-71.5 154.04,-62.67 149.81,-68.24"/>
</g>
<!-- Node4 -->
<g id="node4" class="node">
<title>Node4</title>
<g id="a_node4"><a xlink:href="uniqueid_8h.html" target="_top" xlink:title="IPV6 address.">
<polygon fill="none" stroke="black" points="198.5,-0.5 198.5,-34.5 345.5,-34.5 345.5,-0.5 198.5,-0.5"/>
<text text-anchor="start" x="206.5" y="-20.9" font-family="Helvetica,sans-Serif" font-size="12.00">firmware/sys/uniqueid</text>
<text text-anchor="middle" x="272" y="-7.9" font-family="Helvetica,sans-Serif" font-size="12.00">/include/uniqueid.h</text>
</a>
</g>
</g>
<!-- Node2&#45;&gt;Node4 -->
<g id="edge3" class="edge">
<title>Node2&#45;&gt;Node4</title>
<path fill="none" stroke="midnightblue" d="M210.38,-65.22C223.5,-55.27 238.68,-43.76 250.69,-34.66"/>
<polygon fill="midnightblue" stroke="midnightblue" points="207.96,-62.67 202.11,-71.5 212.19,-68.24 207.96,-62.67"/>
</g>
</g>
</svg>
