<?xml version="1.0" encoding="UTF-8" standalone="no"?>
<!DOCTYPE svg PUBLIC "-//W3C//DTD SVG 1.1//EN"
 "http://www.w3.org/Graphics/SVG/1.1/DTD/svg11.dtd">
<!-- Generated by graphviz version 2.43.0 (0)
 -->
<!-- Title: boards/m4a&#45;wrover/include/periph_conf.h Pages: 1 -->
<svg width="557pt" height="327pt"
 viewBox="0.00 0.00 557.00 327.00" xmlns="http://www.w3.org/2000/svg" xmlns:xlink="http://www.w3.org/1999/xlink">
<g id="graph0" class="graph" transform="scale(1 1) rotate(0) translate(4 323)">
<title>boards/m4a&#45;wrover/include/periph_conf.h</title>
<!-- Node1 -->
<g id="node1" class="node">
<title>Node1</title>
<g id="a_node1"><a xlink:title="Peripheral MCU configuration for Espressif ESP&#45;WROVER&#45;KIT V3.">
<polygon fill="#bfbfbf" stroke="black" points="182,-284.5 182,-318.5 362,-318.5 362,-284.5 182,-284.5"/>
<text text-anchor="start" x="190" y="-304.9" font-family="Helvetica,sans-Serif" font-size="12.00">boards/m4a&#45;wrover/include</text>
<text text-anchor="middle" x="272" y="-291.9" font-family="Helvetica,sans-Serif" font-size="12.00">/periph_conf.h</text>
</a>
</g>
</g>
<!-- Node2 -->
<g id="node2" class="node">
<title>Node2</title>
<g id="a_node2"><a xlink:href="m4a-wrover_2include_2board_8h.html" target="_top" xlink:title="Board specific definitions for Espressif ESP&#45;WROVER&#45;KIT V3.">
<polygon fill="none" stroke="black" points="182,-213.5 182,-247.5 362,-247.5 362,-213.5 182,-213.5"/>
<text text-anchor="start" x="190" y="-233.9" font-family="Helvetica,sans-Serif" font-size="12.00">boards/m4a&#45;wrover/include</text>
<text text-anchor="middle" x="272" y="-220.9" font-family="Helvetica,sans-Serif" font-size="12.00">/board.h</text>
</a>
</g>
</g>
<!-- Node1&#45;&gt;Node2 -->
<g id="edge1" class="edge">
<title>Node1&#45;&gt;Node2</title>
<path fill="none" stroke="midnightblue" d="M272,-274.25C272,-265.39 272,-255.77 272,-247.9"/>
<polygon fill="midnightblue" stroke="midnightblue" points="268.5,-274.5 272,-284.5 275.5,-274.5 268.5,-274.5"/>
</g>
<!-- Node3 -->
<g id="node3" class="node">
<title>Node3</title>
<g id="a_node3"><a xlink:href="m4a-wrover_2include_2gpio__params_8h.html" target="_top" xlink:title="Board specific configuration of direct mapped GPIOs.">
<polygon fill="none" stroke="black" points="0,-142.5 0,-176.5 180,-176.5 180,-142.5 0,-142.5"/>
<text text-anchor="start" x="8" y="-162.9" font-family="Helvetica,sans-Serif" font-size="12.00">boards/m4a&#45;wrover/include</text>
<text text-anchor="middle" x="90" y="-149.9" font-family="Helvetica,sans-Serif" font-size="12.00">/gpio_params.h</text>
</a>
</g>
</g>
<!-- Node2&#45;&gt;Node3 -->
<g id="edge2" class="edge">
<title>Node2&#45;&gt;Node3</title>
<path fill="none" stroke="midnightblue" d="M220.22,-209.87C192.4,-199.32 158.52,-186.48 132.3,-176.54"/>
<polygon fill="midnightblue" stroke="midnightblue" points="219.2,-213.22 229.79,-213.5 221.68,-206.68 219.2,-213.22"/>
</g>
<!-- Node4 -->
<g id="node4" class="node">
<title>Node4</title>
<g id="a_node4"><a xlink:href="uniqueid_8h.html" target="_top" xlink:title="IPV6 address.">
<polygon fill="none" stroke="black" points="198.5,-142.5 198.5,-176.5 345.5,-176.5 345.5,-142.5 198.5,-142.5"/>
<text text-anchor="start" x="206.5" y="-162.9" font-family="Helvetica,sans-Serif" font-size="12.00">firmware/sys/uniqueid</text>
<text text-anchor="middle" x="272" y="-149.9" font-family="Helvetica,sans-Serif" font-size="12.00">/include/uniqueid.h</text>
</a>
</g>
</g>
<!-- Node2&#45;&gt;Node4 -->
<g id="edge3" class="edge">
<title>Node2&#45;&gt;Node4</title>
<path fill="none" stroke="midnightblue" d="M265.42,-203.25C265.04,-194.39 265.29,-184.77 266.16,-176.9"/>
<polygon fill="midnightblue" stroke="midnightblue" points="261.96,-203.79 266.2,-213.5 268.94,-203.26 261.96,-203.79"/>
</g>
<!-- Node4&#45;&gt;Node2 -->
<g id="edge10" class="edge">
<title>Node4&#45;&gt;Node2</title>
<path fill="none" stroke="midnightblue" d="M278.58,-186.9C278.96,-195.87 278.7,-205.6 277.8,-213.5"/>
<polygon fill="midnightblue" stroke="midnightblue" points="282.07,-186.61 277.84,-176.9 275.09,-187.13 282.07,-186.61"/>
</g>
<!-- Node5 -->
<g id="node5" class="node">
<title>Node5</title>
<g id="a_node5"><a xlink:href="m4a-24g_2include_2board_8h.html" target="_top" xlink:title="Board specific definitions for the M4A&#45;24G board.">
<polygon fill="none" stroke="black" points="13.5,-71.5 13.5,-105.5 174.5,-105.5 174.5,-71.5 13.5,-71.5"/>
<text text-anchor="start" x="21.5" y="-91.9" font-family="Helvetica,sans-Serif" font-size="12.00">boards/m4a&#45;24g/include</text>
<text text-anchor="middle" x="94" y="-78.9" font-family="Helvetica,sans-Serif" font-size="12.00">/board.h</text>
</a>
</g>
</g>
<!-- Node4&#45;&gt;Node5 -->
<g id="edge4" class="edge">
<title>Node4&#45;&gt;Node5</title>
<path fill="none" stroke="midnightblue" d="M221.36,-138.87C194.15,-128.32 161.02,-115.48 135.37,-105.54"/>
<polygon fill="midnightblue" stroke="midnightblue" points="220.13,-142.15 230.72,-142.5 222.66,-135.62 220.13,-142.15"/>
</g>
<!-- Node7 -->
<g id="node7" class="node">
<title>Node7</title>
<g id="a_node7"><a xlink:href="m4a-mb_2include_2board_8h.html" target="_top" xlink:title="Board specific definitions for the M4A&#45;MB.">
<polygon fill="none" stroke="black" points="193,-71.5 193,-105.5 351,-105.5 351,-71.5 193,-71.5"/>
<text text-anchor="start" x="201" y="-91.9" font-family="Helvetica,sans-Serif" font-size="12.00">boards/m4a&#45;mb/include</text>
<text text-anchor="middle" x="272" y="-78.9" font-family="Helvetica,sans-Serif" font-size="12.00">/board.h</text>
</a>
</g>
</g>
<!-- Node4&#45;&gt;Node7 -->
<g id="edge6" class="edge">
<title>Node4&#45;&gt;Node7</title>
<path fill="none" stroke="midnightblue" d="M272,-132.25C272,-123.39 272,-113.77 272,-105.9"/>
<polygon fill="midnightblue" stroke="midnightblue" points="268.5,-132.5 272,-142.5 275.5,-132.5 268.5,-132.5"/>
</g>
<!-- Node9 -->
<g id="node9" class="node">
<title>Node9</title>
<g id="a_node9"><a xlink:href="m4a-wroom_2include_2board_8h.html" target="_top" xlink:title="Board specific definitions for m4a&#45;wroom board.">
<polygon fill="none" stroke="black" points="369,-71.5 369,-105.5 549,-105.5 549,-71.5 369,-71.5"/>
<text text-anchor="start" x="377" y="-91.9" font-family="Helvetica,sans-Serif" font-size="12.00">boards/m4a&#45;wroom/include</text>
<text text-anchor="middle" x="459" y="-78.9" font-family="Helvetica,sans-Serif" font-size="12.00">/board.h</text>
</a>
</g>
</g>
<!-- Node4&#45;&gt;Node9 -->
<g id="edge8" class="edge">
<title>Node4&#45;&gt;Node9</title>
<path fill="none" stroke="midnightblue" d="M324.83,-139.01C353.49,-128.43 388.48,-115.52 415.54,-105.54"/>
<polygon fill="midnightblue" stroke="midnightblue" points="323.54,-135.75 315.37,-142.5 325.96,-142.32 323.54,-135.75"/>
</g>
<!-- Node6 -->
<g id="node6" class="node">
<title>Node6</title>
<g id="a_node6"><a xlink:href="m4a-24g_2include_2gpio__params_8h.html" target="_top" xlink:title="Board specific configuration of direct mapped GPIOs.">
<polygon fill="none" stroke="black" points="13.5,-0.5 13.5,-34.5 174.5,-34.5 174.5,-0.5 13.5,-0.5"/>
<text text-anchor="start" x="21.5" y="-20.9" font-family="Helvetica,sans-Serif" font-size="12.00">boards/m4a&#45;24g/include</text>
<text text-anchor="middle" x="94" y="-7.9" font-family="Helvetica,sans-Serif" font-size="12.00">/gpio_params.h</text>
</a>
</g>
</g>
<!-- Node5&#45;&gt;Node6 -->
<g id="edge5" class="edge">
<title>Node5&#45;&gt;Node6</title>
<path fill="none" stroke="midnightblue" d="M94,-61.25C94,-52.39 94,-42.77 94,-34.9"/>
<polygon fill="midnightblue" stroke="midnightblue" points="90.5,-61.5 94,-71.5 97.5,-61.5 90.5,-61.5"/>
</g>
<!-- Node8 -->
<g id="node8" class="node">
<title>Node8</title>
<g id="a_node8"><a xlink:href="m4a-mb_2include_2gpio__params_8h.html" target="_top" xlink:title="Board specific configuration of direct mapped GPIOs.">
<polygon fill="none" stroke="black" points="193,-0.5 193,-34.5 351,-34.5 351,-0.5 193,-0.5"/>
<text text-anchor="start" x="201" y="-20.9" font-family="Helvetica,sans-Serif" font-size="12.00">boards/m4a&#45;mb/include</text>
<text text-anchor="middle" x="272" y="-7.9" font-family="Helvetica,sans-Serif" font-size="12.00">/gpio_params.h</text>
</a>
</g>
</g>
<!-- Node7&#45;&gt;Node8 -->
<g id="edge7" class="edge">
<title>Node7&#45;&gt;Node8</title>
<path fill="none" stroke="midnightblue" d="M272,-61.25C272,-52.39 272,-42.77 272,-34.9"/>
<polygon fill="midnightblue" stroke="midnightblue" points="268.5,-61.5 272,-71.5 275.5,-61.5 268.5,-61.5"/>
</g>
<!-- Node10 -->
<g id="node10" class="node">
<title>Node10</title>
<g id="a_node10"><a xlink:href="m4a-wroom_2include_2gpio__params_8h.html" target="_top" xlink:title="Board specific configuration of direct mapped GPIOs.">
<polygon fill="none" stroke="black" points="369,-0.5 369,-34.5 549,-34.5 549,-0.5 369,-0.5"/>
<text text-anchor="start" x="377" y="-20.9" font-family="Helvetica,sans-Serif" font-size="12.00">boards/m4a&#45;wroom/include</text>
<text text-anchor="middle" x="459" y="-7.9" font-family="Helvetica,sans-Serif" font-size="12.00">/gpio_params.h</text>
</a>
</g>
</g>
<!-- Node9&#45;&gt;Node10 -->
<g id="edge9" class="edge">
<title>Node9&#45;&gt;Node10</title>
<path fill="none" stroke="midnightblue" d="M459,-61.25C459,-52.39 459,-42.77 459,-34.9"/>
<polygon fill="midnightblue" stroke="midnightblue" points="455.5,-61.5 459,-71.5 462.5,-61.5 455.5,-61.5"/>
</g>
</g>
</svg>
