<?xml version="1.0" encoding="UTF-8" standalone="no"?>
<!DOCTYPE svg PUBLIC "-//W3C//DTD SVG 1.1//EN"
 "http://www.w3.org/Graphics/SVG/1.1/DTD/svg11.dtd">
<!-- Generated by graphviz version 2.43.0 (0)
 -->
<!-- Title: boards/m4a&#45;wrover/include/gpio_params.h Pages: 1 -->
<svg width="612pt" height="217pt"
 viewBox="0.00 0.00 611.50 217.00" xmlns="http://www.w3.org/2000/svg" xmlns:xlink="http://www.w3.org/1999/xlink">
<g id="graph0" class="graph" transform="scale(1 1) rotate(0) translate(4 213)">
<title>boards/m4a&#45;wrover/include/gpio_params.h</title>
<!-- Node1 -->
<g id="node1" class="node">
<title>Node1</title>
<g id="a_node1"><a xlink:title="Board specific configuration of direct mapped GPIOs.">
<polygon fill="#bfbfbf" stroke="black" points="238.5,-174.5 238.5,-208.5 418.5,-208.5 418.5,-174.5 238.5,-174.5"/>
<text text-anchor="start" x="246.5" y="-194.9" font-family="Helvetica,sans-Serif" font-size="12.00">boards/m4a&#45;wrover/include</text>
<text text-anchor="middle" x="328.5" y="-181.9" font-family="Helvetica,sans-Serif" font-size="12.00">/gpio_params.h</text>
</a>
</g>
</g>
<!-- Node2 -->
<g id="node2" class="node">
<title>Node2</title>
<g id="a_node2"><a xlink:href="m4a-wrover_2include_2board_8h.html" target="_top" xlink:title="Board specific definitions for Espressif ESP&#45;WROVER&#45;KIT V3.">
<polygon fill="none" stroke="black" points="249.5,-116.5 249.5,-137.5 311.5,-137.5 311.5,-116.5 249.5,-116.5"/>
<text text-anchor="middle" x="280.5" y="-123.9" font-family="Helvetica,sans-Serif" font-size="12.00">board.h</text>
</a>
</g>
</g>
<!-- Node1&#45;&gt;Node2 -->
<g id="edge1" class="edge">
<title>Node1&#45;&gt;Node2</title>
<path fill="none" stroke="midnightblue" d="M316.14,-174.4C309.4,-165.63 301.05,-154.76 294.13,-145.75"/>
<polygon fill="midnightblue" stroke="midnightblue" points="296.89,-143.6 288.03,-137.8 291.34,-147.86 296.89,-143.6"/>
</g>
<!-- Node13 -->
<g id="node13" class="node">
<title>Node13</title>
<g id="a_node13"><a xlink:title=" ">
<polygon fill="none" stroke="#bfbfbf" points="329.5,-116.5 329.5,-137.5 423.5,-137.5 423.5,-116.5 329.5,-116.5"/>
<text text-anchor="middle" x="376.5" y="-123.9" font-family="Helvetica,sans-Serif" font-size="12.00">saul/periph.h</text>
</a>
</g>
</g>
<!-- Node1&#45;&gt;Node13 -->
<g id="edge14" class="edge">
<title>Node1&#45;&gt;Node13</title>
<path fill="none" stroke="midnightblue" d="M340.86,-174.4C347.6,-165.63 355.95,-154.76 362.87,-145.75"/>
<polygon fill="midnightblue" stroke="midnightblue" points="365.66,-147.86 368.97,-137.8 360.11,-143.6 365.66,-147.86"/>
</g>
<!-- Node3 -->
<g id="node3" class="node">
<title>Node3</title>
<g id="a_node3"><a xlink:title=" ">
<polygon fill="none" stroke="#bfbfbf" points="0,-0.5 0,-21.5 61,-21.5 61,-0.5 0,-0.5"/>
<text text-anchor="middle" x="30.5" y="-7.9" font-family="Helvetica,sans-Serif" font-size="12.00">stdint.h</text>
</a>
</g>
</g>
<!-- Node2&#45;&gt;Node3 -->
<g id="edge2" class="edge">
<title>Node2&#45;&gt;Node3</title>
<path fill="none" stroke="midnightblue" d="M249.19,-124.39C190.85,-120.7 68.81,-109.57 40.5,-80 28.53,-67.5 26.91,-47.34 27.76,-32.21"/>
<polygon fill="midnightblue" stroke="midnightblue" points="31.29,-32.12 28.76,-21.83 24.32,-31.45 31.29,-32.12"/>
</g>
<!-- Node4 -->
<g id="node4" class="node">
<title>Node4</title>
<g id="a_node4"><a xlink:title=" ">
<polygon fill="none" stroke="#bfbfbf" points="49.5,-58.5 49.5,-79.5 99.5,-79.5 99.5,-58.5 49.5,-58.5"/>
<text text-anchor="middle" x="74.5" y="-65.9" font-family="Helvetica,sans-Serif" font-size="12.00">cpu.h</text>
</a>
</g>
</g>
<!-- Node2&#45;&gt;Node4 -->
<g id="edge3" class="edge">
<title>Node2&#45;&gt;Node4</title>
<path fill="none" stroke="midnightblue" d="M249.36,-117.92C216.82,-109.42 164.02,-95.48 109.55,-80.25"/>
<polygon fill="midnightblue" stroke="midnightblue" points="110.3,-76.83 99.73,-77.5 108.41,-83.57 110.3,-76.83"/>
</g>
<!-- Node5 -->
<g id="node5" class="node">
<title>Node5</title>
<g id="a_node5"><a xlink:href="m4a-wrover_2include_2periph__conf_8h.html" target="_top" xlink:title="Peripheral MCU configuration for Espressif ESP&#45;WROVER&#45;KIT V3.">
<polygon fill="none" stroke="black" points="118,-58.5 118,-79.5 215,-79.5 215,-58.5 118,-58.5"/>
<text text-anchor="middle" x="166.5" y="-65.9" font-family="Helvetica,sans-Serif" font-size="12.00">periph_conf.h</text>
</a>
</g>
</g>
<!-- Node2&#45;&gt;Node5 -->
<g id="edge4" class="edge">
<title>Node2&#45;&gt;Node5</title>
<path fill="none" stroke="midnightblue" d="M260.9,-116.37C242.77,-107.46 215.59,-94.11 195.04,-84.02"/>
<polygon fill="midnightblue" stroke="midnightblue" points="196.36,-80.77 185.84,-79.5 193.27,-87.05 196.36,-80.77"/>
</g>
<!-- Node7 -->
<g id="node7" class="node">
<title>Node7</title>
<g id="a_node7"><a xlink:title=" ">
<polygon fill="none" stroke="#bfbfbf" points="233.5,-58.5 233.5,-79.5 327.5,-79.5 327.5,-58.5 233.5,-58.5"/>
<text text-anchor="middle" x="280.5" y="-65.9" font-family="Helvetica,sans-Serif" font-size="12.00">periph_cpu.h</text>
</a>
</g>
</g>
<!-- Node2&#45;&gt;Node7 -->
<g id="edge7" class="edge">
<title>Node2&#45;&gt;Node7</title>
<path fill="none" stroke="midnightblue" d="M280.5,-116.25C280.5,-108.94 280.5,-98.69 280.5,-89.7"/>
<polygon fill="midnightblue" stroke="midnightblue" points="284,-89.64 280.5,-79.64 277,-89.64 284,-89.64"/>
</g>
<!-- Node8 -->
<g id="node8" class="node">
<title>Node8</title>
<g id="a_node8"><a xlink:title=" ">
<polygon fill="none" stroke="#bfbfbf" points="288.5,-0.5 288.5,-21.5 390.5,-21.5 390.5,-0.5 288.5,-0.5"/>
<text text-anchor="middle" x="339.5" y="-7.9" font-family="Helvetica,sans-Serif" font-size="12.00">periph/cpuid.h</text>
</a>
</g>
</g>
<!-- Node2&#45;&gt;Node8 -->
<g id="edge8" class="edge">
<title>Node2&#45;&gt;Node8</title>
<path fill="none" stroke="midnightblue" d="M298.9,-116.43C311.92,-108.56 328.45,-96.09 336.5,-80 343.92,-65.15 344.1,-46.13 342.75,-31.98"/>
<polygon fill="midnightblue" stroke="midnightblue" points="346.2,-31.32 341.45,-21.85 339.26,-32.22 346.2,-31.32"/>
</g>
<!-- Node9 -->
<g id="node9" class="node">
<title>Node9</title>
<g id="a_node9"><a xlink:href="uniqueid_8h.html" target="_top" xlink:title="cpuid address">
<polygon fill="none" stroke="black" points="384,-58.5 384,-79.5 463,-79.5 463,-58.5 384,-58.5"/>
<text text-anchor="middle" x="423.5" y="-65.9" font-family="Helvetica,sans-Serif" font-size="12.00">uniqueid.h</text>
</a>
</g>
</g>
<!-- Node2&#45;&gt;Node9 -->
<g id="edge9" class="edge">
<title>Node2&#45;&gt;Node9</title>
<path fill="none" stroke="midnightblue" d="M305.08,-116.37C328.45,-107.22 363.79,-93.38 389.78,-83.21"/>
<polygon fill="midnightblue" stroke="midnightblue" points="391.2,-86.41 399.24,-79.5 388.65,-79.89 391.2,-86.41"/>
</g>
<!-- Node12 -->
<g id="node12" class="node">
<title>Node12</title>
<g id="a_node12"><a xlink:title=" ">
<polygon fill="none" stroke="#bfbfbf" points="481.5,-58.5 481.5,-79.5 603.5,-79.5 603.5,-58.5 481.5,-58.5"/>
<text text-anchor="middle" x="542.5" y="-65.9" font-family="Helvetica,sans-Serif" font-size="12.00">board_common.h</text>
</a>
</g>
</g>
<!-- Node2&#45;&gt;Node12 -->
<g id="edge13" class="edge">
<title>Node2&#45;&gt;Node12</title>
<path fill="none" stroke="midnightblue" d="M311.91,-118.02C314.81,-117.32 317.71,-116.64 320.5,-116 375.62,-103.41 438.77,-90.46 483.59,-81.53"/>
<polygon fill="midnightblue" stroke="midnightblue" points="484.31,-84.95 493.44,-79.57 482.95,-78.09 484.31,-84.95"/>
</g>
<!-- Node5&#45;&gt;Node3 -->
<g id="edge5" class="edge">
<title>Node5&#45;&gt;Node3</title>
<path fill="none" stroke="midnightblue" d="M143.12,-58.37C121,-49.26 87.59,-35.51 62.9,-25.34"/>
<polygon fill="midnightblue" stroke="midnightblue" points="64.15,-22.07 53.57,-21.5 61.49,-28.55 64.15,-22.07"/>
</g>
<!-- Node6 -->
<g id="node6" class="node">
<title>Node6</title>
<g id="a_node6"><a xlink:title=" ">
<polygon fill="none" stroke="#bfbfbf" points="87.5,-0.5 87.5,-21.5 245.5,-21.5 245.5,-0.5 87.5,-0.5"/>
<text text-anchor="middle" x="166.5" y="-7.9" font-family="Helvetica,sans-Serif" font-size="12.00">periph_conf_common.h</text>
</a>
</g>
</g>
<!-- Node5&#45;&gt;Node6 -->
<g id="edge6" class="edge">
<title>Node5&#45;&gt;Node6</title>
<path fill="none" stroke="midnightblue" d="M166.5,-58.25C166.5,-50.94 166.5,-40.69 166.5,-31.7"/>
<polygon fill="midnightblue" stroke="midnightblue" points="170,-31.64 166.5,-21.64 163,-31.64 170,-31.64"/>
</g>
<!-- Node9&#45;&gt;Node8 -->
<g id="edge10" class="edge">
<title>Node9&#45;&gt;Node8</title>
<path fill="none" stroke="midnightblue" d="M408.87,-58.25C396.1,-49.73 377.36,-37.24 362.57,-27.38"/>
<polygon fill="midnightblue" stroke="midnightblue" points="364.23,-24.28 353.96,-21.64 360.34,-30.1 364.23,-24.28"/>
</g>
<!-- Node10 -->
<g id="node10" class="node">
<title>Node10</title>
<g id="a_node10"><a xlink:title=" ">
<polygon fill="none" stroke="#bfbfbf" points="408.5,-0.5 408.5,-21.5 470.5,-21.5 470.5,-0.5 408.5,-0.5"/>
<text text-anchor="middle" x="439.5" y="-7.9" font-family="Helvetica,sans-Serif" font-size="12.00">board.h</text>
</a>
</g>
</g>
<!-- Node9&#45;&gt;Node10 -->
<g id="edge11" class="edge">
<title>Node9&#45;&gt;Node10</title>
<path fill="none" stroke="midnightblue" d="M426.29,-58.25C428.4,-50.86 431.37,-40.47 433.95,-31.41"/>
<polygon fill="midnightblue" stroke="midnightblue" points="437.36,-32.22 436.74,-21.64 430.63,-30.3 437.36,-32.22"/>
</g>
<!-- Node11 -->
<g id="node11" class="node">
<title>Node11</title>
<g id="a_node11"><a xlink:title=" ">
<polygon fill="none" stroke="#bfbfbf" points="488.5,-0.5 488.5,-21.5 594.5,-21.5 594.5,-0.5 488.5,-0.5"/>
<text text-anchor="middle" x="541.5" y="-7.9" font-family="Helvetica,sans-Serif" font-size="12.00">net/ipv6/addr.h</text>
</a>
</g>
</g>
<!-- Node9&#45;&gt;Node11 -->
<g id="edge12" class="edge">
<title>Node9&#45;&gt;Node11</title>
<path fill="none" stroke="midnightblue" d="M443.78,-58.37C462.64,-49.42 490.95,-35.99 512.25,-25.88"/>
<polygon fill="midnightblue" stroke="midnightblue" points="513.95,-28.95 521.48,-21.5 510.94,-22.63 513.95,-28.95"/>
</g>
</g>
</svg>
