<?xml version="1.0" encoding="UTF-8" standalone="no"?>
<!DOCTYPE svg PUBLIC "-//W3C//DTD SVG 1.1//EN"
 "http://www.w3.org/Graphics/SVG/1.1/DTD/svg11.dtd">
<!-- Generated by graphviz version 2.43.0 (0)
 -->
<!-- Title: boards/m4a&#45;wrover/include/board.h Pages: 1 -->
<svg width="612pt" height="159pt"
 viewBox="0.00 0.00 611.50 159.00" xmlns="http://www.w3.org/2000/svg" xmlns:xlink="http://www.w3.org/1999/xlink">
<g id="graph0" class="graph" transform="scale(1 1) rotate(0) translate(4 155)">
<title>boards/m4a&#45;wrover/include/board.h</title>
<!-- Node1 -->
<g id="node1" class="node">
<title>Node1</title>
<g id="a_node1"><a xlink:title="Board specific definitions for Espressif ESP&#45;WROVER&#45;KIT V3.">
<polygon fill="#bfbfbf" stroke="black" points="190.5,-116.5 190.5,-150.5 370.5,-150.5 370.5,-116.5 190.5,-116.5"/>
<text text-anchor="start" x="198.5" y="-136.9" font-family="Helvetica,sans-Serif" font-size="12.00">boards/m4a&#45;wrover/include</text>
<text text-anchor="middle" x="280.5" y="-123.9" font-family="Helvetica,sans-Serif" font-size="12.00">/board.h</text>
</a>
</g>
</g>
<!-- Node2 -->
<g id="node2" class="node">
<title>Node2</title>
<g id="a_node2"><a xlink:title=" ">
<polygon fill="none" stroke="#bfbfbf" points="0,-0.5 0,-21.5 61,-21.5 61,-0.5 0,-0.5"/>
<text text-anchor="middle" x="30.5" y="-7.9" font-family="Helvetica,sans-Serif" font-size="12.00">stdint.h</text>
</a>
</g>
</g>
<!-- Node1&#45;&gt;Node2 -->
<g id="edge1" class="edge">
<title>Node1&#45;&gt;Node2</title>
<path fill="none" stroke="midnightblue" d="M190.19,-123.42C130.98,-115.53 60.9,-101.87 40.5,-80 28.69,-67.35 27.06,-47.2 27.85,-32.12"/>
<polygon fill="midnightblue" stroke="midnightblue" points="31.37,-32.06 28.81,-21.78 24.4,-31.42 31.37,-32.06"/>
</g>
<!-- Node3 -->
<g id="node3" class="node">
<title>Node3</title>
<g id="a_node3"><a xlink:title=" ">
<polygon fill="none" stroke="#bfbfbf" points="49.5,-58.5 49.5,-79.5 99.5,-79.5 99.5,-58.5 49.5,-58.5"/>
<text text-anchor="middle" x="74.5" y="-65.9" font-family="Helvetica,sans-Serif" font-size="12.00">cpu.h</text>
</a>
</g>
</g>
<!-- Node1&#45;&gt;Node3 -->
<g id="edge2" class="edge">
<title>Node1&#45;&gt;Node3</title>
<path fill="none" stroke="midnightblue" d="M227.72,-116.49C190.61,-105.23 141.98,-90.47 109.56,-80.64"/>
<polygon fill="midnightblue" stroke="midnightblue" points="110.23,-77.18 99.64,-77.63 108.19,-83.88 110.23,-77.18"/>
</g>
<!-- Node4 -->
<g id="node4" class="node">
<title>Node4</title>
<g id="a_node4"><a xlink:href="m4a-wrover_2include_2periph__conf_8h.html" target="_top" xlink:title="Peripheral MCU configuration for Espressif ESP&#45;WROVER&#45;KIT V3.">
<polygon fill="none" stroke="black" points="118,-58.5 118,-79.5 215,-79.5 215,-58.5 118,-58.5"/>
<text text-anchor="middle" x="166.5" y="-65.9" font-family="Helvetica,sans-Serif" font-size="12.00">periph_conf.h</text>
</a>
</g>
</g>
<!-- Node1&#45;&gt;Node4 -->
<g id="edge3" class="edge">
<title>Node1&#45;&gt;Node4</title>
<path fill="none" stroke="midnightblue" d="M251.14,-116.4C233.22,-106.58 210.48,-94.11 193.09,-84.58"/>
<polygon fill="midnightblue" stroke="midnightblue" points="194.49,-81.36 184.04,-79.62 191.13,-87.49 194.49,-81.36"/>
</g>
<!-- Node6 -->
<g id="node6" class="node">
<title>Node6</title>
<g id="a_node6"><a xlink:title=" ">
<polygon fill="none" stroke="#bfbfbf" points="233.5,-58.5 233.5,-79.5 327.5,-79.5 327.5,-58.5 233.5,-58.5"/>
<text text-anchor="middle" x="280.5" y="-65.9" font-family="Helvetica,sans-Serif" font-size="12.00">periph_cpu.h</text>
</a>
</g>
</g>
<!-- Node1&#45;&gt;Node6 -->
<g id="edge6" class="edge">
<title>Node1&#45;&gt;Node6</title>
<path fill="none" stroke="midnightblue" d="M280.5,-116.4C280.5,-108.36 280.5,-98.54 280.5,-90.01"/>
<polygon fill="midnightblue" stroke="midnightblue" points="284,-89.8 280.5,-79.8 277,-89.8 284,-89.8"/>
</g>
<!-- Node7 -->
<g id="node7" class="node">
<title>Node7</title>
<g id="a_node7"><a xlink:title=" ">
<polygon fill="none" stroke="#bfbfbf" points="288.5,-0.5 288.5,-21.5 390.5,-21.5 390.5,-0.5 288.5,-0.5"/>
<text text-anchor="middle" x="339.5" y="-7.9" font-family="Helvetica,sans-Serif" font-size="12.00">periph/cpuid.h</text>
</a>
</g>
</g>
<!-- Node1&#45;&gt;Node7 -->
<g id="edge7" class="edge">
<title>Node1&#45;&gt;Node7</title>
<path fill="none" stroke="midnightblue" d="M305.18,-116.32C316.89,-107.18 329.77,-94.65 336.5,-80 343.43,-64.92 343.66,-45.92 342.45,-31.84"/>
<polygon fill="midnightblue" stroke="midnightblue" points="345.92,-31.3 341.28,-21.77 338.96,-32.11 345.92,-31.3"/>
</g>
<!-- Node8 -->
<g id="node8" class="node">
<title>Node8</title>
<g id="a_node8"><a xlink:href="uniqueid_8h.html" target="_top" xlink:title="cpuid address">
<polygon fill="none" stroke="black" points="384,-58.5 384,-79.5 463,-79.5 463,-58.5 384,-58.5"/>
<text text-anchor="middle" x="423.5" y="-65.9" font-family="Helvetica,sans-Serif" font-size="12.00">uniqueid.h</text>
</a>
</g>
</g>
<!-- Node1&#45;&gt;Node8 -->
<g id="edge8" class="edge">
<title>Node1&#45;&gt;Node8</title>
<path fill="none" stroke="midnightblue" d="M317.33,-116.4C340.54,-106.26 370.18,-93.3 392.25,-83.66"/>
<polygon fill="midnightblue" stroke="midnightblue" points="393.74,-86.83 401.5,-79.62 390.93,-80.41 393.74,-86.83"/>
</g>
<!-- Node11 -->
<g id="node11" class="node">
<title>Node11</title>
<g id="a_node11"><a xlink:title=" ">
<polygon fill="none" stroke="#bfbfbf" points="481.5,-58.5 481.5,-79.5 603.5,-79.5 603.5,-58.5 481.5,-58.5"/>
<text text-anchor="middle" x="542.5" y="-65.9" font-family="Helvetica,sans-Serif" font-size="12.00">board_common.h</text>
</a>
</g>
</g>
<!-- Node1&#45;&gt;Node11 -->
<g id="edge12" class="edge">
<title>Node1&#45;&gt;Node11</title>
<path fill="none" stroke="midnightblue" d="M347.63,-116.49C392.87,-105.69 451.57,-91.69 492.67,-81.89"/>
<polygon fill="midnightblue" stroke="midnightblue" points="493.55,-85.28 502.46,-79.55 491.92,-78.47 493.55,-85.28"/>
</g>
<!-- Node4&#45;&gt;Node2 -->
<g id="edge4" class="edge">
<title>Node4&#45;&gt;Node2</title>
<path fill="none" stroke="midnightblue" d="M143.12,-58.37C121,-49.26 87.59,-35.51 62.9,-25.34"/>
<polygon fill="midnightblue" stroke="midnightblue" points="64.15,-22.07 53.57,-21.5 61.49,-28.55 64.15,-22.07"/>
</g>
<!-- Node5 -->
<g id="node5" class="node">
<title>Node5</title>
<g id="a_node5"><a xlink:title=" ">
<polygon fill="none" stroke="#bfbfbf" points="87.5,-0.5 87.5,-21.5 245.5,-21.5 245.5,-0.5 87.5,-0.5"/>
<text text-anchor="middle" x="166.5" y="-7.9" font-family="Helvetica,sans-Serif" font-size="12.00">periph_conf_common.h</text>
</a>
</g>
</g>
<!-- Node4&#45;&gt;Node5 -->
<g id="edge5" class="edge">
<title>Node4&#45;&gt;Node5</title>
<path fill="none" stroke="midnightblue" d="M166.5,-58.25C166.5,-50.94 166.5,-40.69 166.5,-31.7"/>
<polygon fill="midnightblue" stroke="midnightblue" points="170,-31.64 166.5,-21.64 163,-31.64 170,-31.64"/>
</g>
<!-- Node8&#45;&gt;Node7 -->
<g id="edge9" class="edge">
<title>Node8&#45;&gt;Node7</title>
<path fill="none" stroke="midnightblue" d="M408.87,-58.25C396.1,-49.73 377.36,-37.24 362.57,-27.38"/>
<polygon fill="midnightblue" stroke="midnightblue" points="364.23,-24.28 353.96,-21.64 360.34,-30.1 364.23,-24.28"/>
</g>
<!-- Node9 -->
<g id="node9" class="node">
<title>Node9</title>
<g id="a_node9"><a xlink:title=" ">
<polygon fill="none" stroke="#bfbfbf" points="408.5,-0.5 408.5,-21.5 470.5,-21.5 470.5,-0.5 408.5,-0.5"/>
<text text-anchor="middle" x="439.5" y="-7.9" font-family="Helvetica,sans-Serif" font-size="12.00">board.h</text>
</a>
</g>
</g>
<!-- Node8&#45;&gt;Node9 -->
<g id="edge10" class="edge">
<title>Node8&#45;&gt;Node9</title>
<path fill="none" stroke="midnightblue" d="M426.29,-58.25C428.4,-50.86 431.37,-40.47 433.95,-31.41"/>
<polygon fill="midnightblue" stroke="midnightblue" points="437.36,-32.22 436.74,-21.64 430.63,-30.3 437.36,-32.22"/>
</g>
<!-- Node10 -->
<g id="node10" class="node">
<title>Node10</title>
<g id="a_node10"><a xlink:title=" ">
<polygon fill="none" stroke="#bfbfbf" points="488.5,-0.5 488.5,-21.5 594.5,-21.5 594.5,-0.5 488.5,-0.5"/>
<text text-anchor="middle" x="541.5" y="-7.9" font-family="Helvetica,sans-Serif" font-size="12.00">net/ipv6/addr.h</text>
</a>
</g>
</g>
<!-- Node8&#45;&gt;Node10 -->
<g id="edge11" class="edge">
<title>Node8&#45;&gt;Node10</title>
<path fill="none" stroke="midnightblue" d="M443.78,-58.37C462.64,-49.42 490.95,-35.99 512.25,-25.88"/>
<polygon fill="midnightblue" stroke="midnightblue" points="513.95,-28.95 521.48,-21.5 510.94,-22.63 513.95,-28.95"/>
</g>
</g>
</svg>
