<?xml version="1.0" encoding="UTF-8" standalone="no"?>
<!DOCTYPE svg PUBLIC "-//W3C//DTD SVG 1.1//EN"
 "http://www.w3.org/Graphics/SVG/1.1/DTD/svg11.dtd">
<!-- Generated by graphviz version 2.43.0 (0)
 -->
<!-- Title: boards/m4a&#45;mb/include/periph_conf.h Pages: 1 -->
<svg width="250pt" height="101pt"
 viewBox="0.00 0.00 249.50 101.00" xmlns="http://www.w3.org/2000/svg" xmlns:xlink="http://www.w3.org/1999/xlink">
<g id="graph0" class="graph" transform="scale(1 1) rotate(0) translate(4 97)">
<title>boards/m4a&#45;mb/include/periph_conf.h</title>
<!-- Node1 -->
<g id="node1" class="node">
<title>Node1</title>
<g id="a_node1"><a xlink:title="Peripheral MCU configuration for m4a_mb board.">
<polygon fill="#bfbfbf" stroke="black" points="25.5,-58.5 25.5,-92.5 183.5,-92.5 183.5,-58.5 25.5,-58.5"/>
<text text-anchor="start" x="33.5" y="-78.9" font-family="Helvetica,sans-Serif" font-size="12.00">boards/m4a&#45;mb/include</text>
<text text-anchor="middle" x="104.5" y="-65.9" font-family="Helvetica,sans-Serif" font-size="12.00">/periph_conf.h</text>
</a>
</g>
</g>
<!-- Node2 -->
<g id="node2" class="node">
<title>Node2</title>
<g id="a_node2"><a xlink:title=" ">
<polygon fill="none" stroke="#bfbfbf" points="0,-0.5 0,-21.5 61,-21.5 61,-0.5 0,-0.5"/>
<text text-anchor="middle" x="30.5" y="-7.9" font-family="Helvetica,sans-Serif" font-size="12.00">stdint.h</text>
</a>
</g>
</g>
<!-- Node1&#45;&gt;Node2 -->
<g id="edge1" class="edge">
<title>Node1&#45;&gt;Node2</title>
<path fill="none" stroke="midnightblue" d="M85.44,-58.4C74.52,-49.18 60.85,-37.63 49.88,-28.37"/>
<polygon fill="midnightblue" stroke="midnightblue" points="52,-25.58 42.1,-21.8 47.48,-30.93 52,-25.58"/>
</g>
<!-- Node3 -->
<g id="node3" class="node">
<title>Node3</title>
<g id="a_node3"><a xlink:title=" ">
<polygon fill="none" stroke="#bfbfbf" points="79.5,-0.5 79.5,-21.5 129.5,-21.5 129.5,-0.5 79.5,-0.5"/>
<text text-anchor="middle" x="104.5" y="-7.9" font-family="Helvetica,sans-Serif" font-size="12.00">cpu.h</text>
</a>
</g>
</g>
<!-- Node1&#45;&gt;Node3 -->
<g id="edge2" class="edge">
<title>Node1&#45;&gt;Node3</title>
<path fill="none" stroke="midnightblue" d="M104.5,-58.4C104.5,-50.36 104.5,-40.54 104.5,-32.01"/>
<polygon fill="midnightblue" stroke="midnightblue" points="108,-31.8 104.5,-21.8 101,-31.8 108,-31.8"/>
</g>
<!-- Node4 -->
<g id="node4" class="node">
<title>Node4</title>
<g id="a_node4"><a xlink:title=" ">
<polygon fill="none" stroke="#bfbfbf" points="147.5,-0.5 147.5,-21.5 241.5,-21.5 241.5,-0.5 147.5,-0.5"/>
<text text-anchor="middle" x="194.5" y="-7.9" font-family="Helvetica,sans-Serif" font-size="12.00">periph_cpu.h</text>
</a>
</g>
</g>
<!-- Node1&#45;&gt;Node4 -->
<g id="edge3" class="edge">
<title>Node1&#45;&gt;Node4</title>
<path fill="none" stroke="midnightblue" d="M127.68,-58.4C141.43,-48.85 158.78,-36.8 172.35,-27.38"/>
<polygon fill="midnightblue" stroke="midnightblue" points="174.43,-30.2 180.65,-21.62 170.44,-24.45 174.43,-30.2"/>
</g>
</g>
</svg>
