<?xml version="1.0" encoding="UTF-8" standalone="no"?>
<!DOCTYPE svg PUBLIC "-//W3C//DTD SVG 1.1//EN"
 "http://www.w3.org/Graphics/SVG/1.1/DTD/svg11.dtd">
<!-- Generated by graphviz version 2.43.0 (0)
 -->
<!-- Title: boards/m4a&#45;wrover/include/gpio_params.h Pages: 1 -->
<svg width="596pt" height="217pt"
 viewBox="0.00 0.00 595.50 217.00" xmlns="http://www.w3.org/2000/svg" xmlns:xlink="http://www.w3.org/1999/xlink">
<g id="graph0" class="graph" transform="scale(1 1) rotate(0) translate(4 213)">
<title>boards/m4a&#45;wrover/include/gpio_params.h</title>
<!-- Node1 -->
<g id="node1" class="node">
<title>Node1</title>
<g id="a_node1"><a xlink:title="Board specific configuration of direct mapped GPIOs.">
<polygon fill="#bfbfbf" stroke="black" points="181.5,-174.5 181.5,-208.5 361.5,-208.5 361.5,-174.5 181.5,-174.5"/>
<text text-anchor="start" x="189.5" y="-194.9" font-family="Helvetica,sans-Serif" font-size="12.00">boards/m4a&#45;wrover/include</text>
<text text-anchor="middle" x="271.5" y="-181.9" font-family="Helvetica,sans-Serif" font-size="12.00">/gpio_params.h</text>
</a>
</g>
</g>
<!-- Node2 -->
<g id="node2" class="node">
<title>Node2</title>
<g id="a_node2"><a xlink:href="m4a-wrover_2include_2board_8h.html" target="_top" xlink:title="Board specific definitions for Espressif ESP&#45;WROVER&#45;KIT V3.">
<polygon fill="none" stroke="black" points="192.5,-116.5 192.5,-137.5 254.5,-137.5 254.5,-116.5 192.5,-116.5"/>
<text text-anchor="middle" x="223.5" y="-123.9" font-family="Helvetica,sans-Serif" font-size="12.00">board.h</text>
</a>
</g>
</g>
<!-- Node1&#45;&gt;Node2 -->
<g id="edge1" class="edge">
<title>Node1&#45;&gt;Node2</title>
<path fill="none" stroke="midnightblue" d="M259.14,-174.4C252.4,-165.63 244.05,-154.76 237.13,-145.75"/>
<polygon fill="midnightblue" stroke="midnightblue" points="239.89,-143.6 231.03,-137.8 234.34,-147.86 239.89,-143.6"/>
</g>
<!-- Node10 -->
<g id="node10" class="node">
<title>Node10</title>
<g id="a_node10"><a xlink:title=" ">
<polygon fill="none" stroke="#bfbfbf" points="272.5,-116.5 272.5,-137.5 366.5,-137.5 366.5,-116.5 272.5,-116.5"/>
<text text-anchor="middle" x="319.5" y="-123.9" font-family="Helvetica,sans-Serif" font-size="12.00">saul/periph.h</text>
</a>
</g>
</g>
<!-- Node1&#45;&gt;Node10 -->
<g id="edge10" class="edge">
<title>Node1&#45;&gt;Node10</title>
<path fill="none" stroke="midnightblue" d="M283.86,-174.4C290.6,-165.63 298.95,-154.76 305.87,-145.75"/>
<polygon fill="midnightblue" stroke="midnightblue" points="308.66,-147.86 311.97,-137.8 303.11,-143.6 308.66,-147.86"/>
</g>
<!-- Node3 -->
<g id="node3" class="node">
<title>Node3</title>
<g id="a_node3"><a xlink:title=" ">
<polygon fill="none" stroke="#bfbfbf" points="0,-0.5 0,-21.5 61,-21.5 61,-0.5 0,-0.5"/>
<text text-anchor="middle" x="30.5" y="-7.9" font-family="Helvetica,sans-Serif" font-size="12.00">stdint.h</text>
</a>
</g>
</g>
<!-- Node2&#45;&gt;Node3 -->
<g id="edge2" class="edge">
<title>Node2&#45;&gt;Node3</title>
<path fill="none" stroke="midnightblue" d="M192.25,-122.33C145.48,-116.18 60.61,-102.23 40.5,-80 28.89,-67.17 27.23,-47.05 27.96,-32.02"/>
<polygon fill="midnightblue" stroke="midnightblue" points="31.48,-31.99 28.87,-21.72 24.51,-31.38 31.48,-31.99"/>
</g>
<!-- Node4 -->
<g id="node4" class="node">
<title>Node4</title>
<g id="a_node4"><a xlink:title=" ">
<polygon fill="none" stroke="#bfbfbf" points="49.5,-58.5 49.5,-79.5 99.5,-79.5 99.5,-58.5 49.5,-58.5"/>
<text text-anchor="middle" x="74.5" y="-65.9" font-family="Helvetica,sans-Serif" font-size="12.00">cpu.h</text>
</a>
</g>
</g>
<!-- Node2&#45;&gt;Node4 -->
<g id="edge3" class="edge">
<title>Node2&#45;&gt;Node4</title>
<path fill="none" stroke="midnightblue" d="M197.89,-116.37C173.43,-107.18 136.39,-93.26 109.28,-83.07"/>
<polygon fill="midnightblue" stroke="midnightblue" points="110.37,-79.74 99.78,-79.5 107.91,-86.3 110.37,-79.74"/>
</g>
<!-- Node5 -->
<g id="node5" class="node">
<title>Node5</title>
<g id="a_node5"><a xlink:href="m4a-wrover_2include_2periph__conf_8h.html" target="_top" xlink:title="Peripheral MCU configuration for Espressif ESP&#45;WROVER&#45;KIT V3.">
<polygon fill="none" stroke="black" points="118,-58.5 118,-79.5 215,-79.5 215,-58.5 118,-58.5"/>
<text text-anchor="middle" x="166.5" y="-65.9" font-family="Helvetica,sans-Serif" font-size="12.00">periph_conf.h</text>
</a>
</g>
</g>
<!-- Node2&#45;&gt;Node5 -->
<g id="edge4" class="edge">
<title>Node2&#45;&gt;Node5</title>
<path fill="none" stroke="midnightblue" d="M213.57,-116.25C205.32,-108.14 193.38,-96.41 183.59,-86.79"/>
<polygon fill="midnightblue" stroke="midnightblue" points="185.9,-84.15 176.31,-79.64 181,-89.15 185.9,-84.15"/>
</g>
<!-- Node7 -->
<g id="node7" class="node">
<title>Node7</title>
<g id="a_node7"><a xlink:title=" ">
<polygon fill="none" stroke="#bfbfbf" points="233.5,-58.5 233.5,-79.5 327.5,-79.5 327.5,-58.5 233.5,-58.5"/>
<text text-anchor="middle" x="280.5" y="-65.9" font-family="Helvetica,sans-Serif" font-size="12.00">periph_cpu.h</text>
</a>
</g>
</g>
<!-- Node2&#45;&gt;Node7 -->
<g id="edge7" class="edge">
<title>Node2&#45;&gt;Node7</title>
<path fill="none" stroke="midnightblue" d="M233.43,-116.25C241.68,-108.14 253.62,-96.41 263.41,-86.79"/>
<polygon fill="midnightblue" stroke="midnightblue" points="266,-89.15 270.69,-79.64 261.1,-84.15 266,-89.15"/>
</g>
<!-- Node8 -->
<g id="node8" class="node">
<title>Node8</title>
<g id="a_node8"><a xlink:title=" ">
<polygon fill="none" stroke="#bfbfbf" points="345.5,-58.5 345.5,-79.5 447.5,-79.5 447.5,-58.5 345.5,-58.5"/>
<text text-anchor="middle" x="396.5" y="-65.9" font-family="Helvetica,sans-Serif" font-size="12.00">periph/cpuid.h</text>
</a>
</g>
</g>
<!-- Node2&#45;&gt;Node8 -->
<g id="edge8" class="edge">
<title>Node2&#45;&gt;Node8</title>
<path fill="none" stroke="midnightblue" d="M253.24,-116.37C282.01,-107.06 325.77,-92.9 357.36,-82.67"/>
<polygon fill="midnightblue" stroke="midnightblue" points="358.71,-85.91 367.15,-79.5 356.56,-79.25 358.71,-85.91"/>
</g>
<!-- Node9 -->
<g id="node9" class="node">
<title>Node9</title>
<g id="a_node9"><a xlink:title=" ">
<polygon fill="none" stroke="#bfbfbf" points="465.5,-58.5 465.5,-79.5 587.5,-79.5 587.5,-58.5 465.5,-58.5"/>
<text text-anchor="middle" x="526.5" y="-65.9" font-family="Helvetica,sans-Serif" font-size="12.00">board_common.h</text>
</a>
</g>
</g>
<!-- Node2&#45;&gt;Node9 -->
<g id="edge9" class="edge">
<title>Node2&#45;&gt;Node9</title>
<path fill="none" stroke="midnightblue" d="M254.89,-117.93C257.8,-117.25 260.7,-116.59 263.5,-116 328.14,-102.29 402.35,-89.58 455.42,-81.01"/>
<polygon fill="midnightblue" stroke="midnightblue" points="456.09,-84.45 465.41,-79.41 454.98,-77.54 456.09,-84.45"/>
</g>
<!-- Node5&#45;&gt;Node3 -->
<g id="edge5" class="edge">
<title>Node5&#45;&gt;Node3</title>
<path fill="none" stroke="midnightblue" d="M143.12,-58.37C121,-49.26 87.59,-35.51 62.9,-25.34"/>
<polygon fill="midnightblue" stroke="midnightblue" points="64.15,-22.07 53.57,-21.5 61.49,-28.55 64.15,-22.07"/>
</g>
<!-- Node6 -->
<g id="node6" class="node">
<title>Node6</title>
<g id="a_node6"><a xlink:title=" ">
<polygon fill="none" stroke="#bfbfbf" points="87.5,-0.5 87.5,-21.5 245.5,-21.5 245.5,-0.5 87.5,-0.5"/>
<text text-anchor="middle" x="166.5" y="-7.9" font-family="Helvetica,sans-Serif" font-size="12.00">periph_conf_common.h</text>
</a>
</g>
</g>
<!-- Node5&#45;&gt;Node6 -->
<g id="edge6" class="edge">
<title>Node5&#45;&gt;Node6</title>
<path fill="none" stroke="midnightblue" d="M166.5,-58.25C166.5,-50.94 166.5,-40.69 166.5,-31.7"/>
<polygon fill="midnightblue" stroke="midnightblue" points="170,-31.64 166.5,-21.64 163,-31.64 170,-31.64"/>
</g>
</g>
</svg>
