<?xml version="1.0" encoding="UTF-8" standalone="no"?>
<!DOCTYPE svg PUBLIC "-//W3C//DTD SVG 1.1//EN"
 "http://www.w3.org/Graphics/SVG/1.1/DTD/svg11.dtd">
<!-- Generated by graphviz version 2.43.0 (0)
 -->
<!-- Title: boards/m4a&#45;mb/include/gpio_params.h Pages: 1 -->
<svg width="574pt" height="217pt"
 viewBox="0.00 0.00 574.00 217.00" xmlns="http://www.w3.org/2000/svg" xmlns:xlink="http://www.w3.org/1999/xlink">
<g id="graph0" class="graph" transform="scale(1 1) rotate(0) translate(4 213)">
<title>boards/m4a&#45;mb/include/gpio_params.h</title>
<!-- Node1 -->
<g id="node1" class="node">
<title>Node1</title>
<g id="a_node1"><a xlink:title="Board specific configuration of direct mapped GPIOs.">
<polygon fill="#bfbfbf" stroke="black" points="164,-174.5 164,-208.5 322,-208.5 322,-174.5 164,-174.5"/>
<text text-anchor="start" x="172" y="-194.9" font-family="Helvetica,sans-Serif" font-size="12.00">boards/m4a&#45;mb/include</text>
<text text-anchor="middle" x="243" y="-181.9" font-family="Helvetica,sans-Serif" font-size="12.00">/gpio_params.h</text>
</a>
</g>
</g>
<!-- Node2 -->
<g id="node2" class="node">
<title>Node2</title>
<g id="a_node2"><a xlink:href="m4a-mb_2include_2board_8h.html" target="_top" xlink:title="Board specific definitions for the M4A&#45;MB.">
<polygon fill="none" stroke="black" points="164,-116.5 164,-137.5 226,-137.5 226,-116.5 164,-116.5"/>
<text text-anchor="middle" x="195" y="-123.9" font-family="Helvetica,sans-Serif" font-size="12.00">board.h</text>
</a>
</g>
</g>
<!-- Node1&#45;&gt;Node2 -->
<g id="edge1" class="edge">
<title>Node1&#45;&gt;Node2</title>
<path fill="none" stroke="midnightblue" d="M230.64,-174.4C223.9,-165.63 215.55,-154.76 208.63,-145.75"/>
<polygon fill="midnightblue" stroke="midnightblue" points="211.39,-143.6 202.53,-137.8 205.84,-147.86 211.39,-143.6"/>
</g>
<!-- Node11 -->
<g id="node11" class="node">
<title>Node11</title>
<g id="a_node11"><a xlink:title=" ">
<polygon fill="none" stroke="#bfbfbf" points="244,-116.5 244,-137.5 338,-137.5 338,-116.5 244,-116.5"/>
<text text-anchor="middle" x="291" y="-123.9" font-family="Helvetica,sans-Serif" font-size="12.00">saul/periph.h</text>
</a>
</g>
</g>
<!-- Node1&#45;&gt;Node11 -->
<g id="edge13" class="edge">
<title>Node1&#45;&gt;Node11</title>
<path fill="none" stroke="midnightblue" d="M255.36,-174.4C262.1,-165.63 270.45,-154.76 277.37,-145.75"/>
<polygon fill="midnightblue" stroke="midnightblue" points="280.16,-147.86 283.47,-137.8 274.61,-143.6 280.16,-147.86"/>
</g>
<!-- Node3 -->
<g id="node3" class="node">
<title>Node3</title>
<g id="a_node3"><a xlink:title=" ">
<polygon fill="none" stroke="#bfbfbf" points="0,-0.5 0,-21.5 50,-21.5 50,-0.5 0,-0.5"/>
<text text-anchor="middle" x="25" y="-7.9" font-family="Helvetica,sans-Serif" font-size="12.00">cpu.h</text>
</a>
</g>
</g>
<!-- Node2&#45;&gt;Node3 -->
<g id="edge2" class="edge">
<title>Node2&#45;&gt;Node3</title>
<path fill="none" stroke="midnightblue" d="M163.79,-122.9C133,-118.34 86.27,-107.16 56,-80 41.86,-67.31 33.75,-46.88 29.4,-31.73"/>
<polygon fill="midnightblue" stroke="midnightblue" points="32.73,-30.63 26.87,-21.81 25.95,-32.36 32.73,-30.63"/>
</g>
<!-- Node4 -->
<g id="node4" class="node">
<title>Node4</title>
<g id="a_node4"><a xlink:href="m4a-mb_2include_2periph__conf_8h.html" target="_top" xlink:title="Peripheral MCU configuration for m4a_mb board.">
<polygon fill="none" stroke="black" points="65.5,-58.5 65.5,-79.5 162.5,-79.5 162.5,-58.5 65.5,-58.5"/>
<text text-anchor="middle" x="114" y="-65.9" font-family="Helvetica,sans-Serif" font-size="12.00">periph_conf.h</text>
</a>
</g>
</g>
<!-- Node2&#45;&gt;Node4 -->
<g id="edge3" class="edge">
<title>Node2&#45;&gt;Node4</title>
<path fill="none" stroke="midnightblue" d="M180.89,-116.25C168.58,-107.73 150.5,-95.24 136.25,-85.38"/>
<polygon fill="midnightblue" stroke="midnightblue" points="138.16,-82.45 127.95,-79.64 134.18,-88.21 138.16,-82.45"/>
</g>
<!-- Node6 -->
<g id="node6" class="node">
<title>Node6</title>
<g id="a_node6"><a xlink:title=" ">
<polygon fill="none" stroke="#bfbfbf" points="148,-0.5 148,-21.5 242,-21.5 242,-0.5 148,-0.5"/>
<text text-anchor="middle" x="195" y="-7.9" font-family="Helvetica,sans-Serif" font-size="12.00">periph_cpu.h</text>
</a>
</g>
</g>
<!-- Node2&#45;&gt;Node6 -->
<g id="edge7" class="edge">
<title>Node2&#45;&gt;Node6</title>
<path fill="none" stroke="midnightblue" d="M195,-116.28C195,-97.6 195,-56.37 195,-31.72"/>
<polygon fill="midnightblue" stroke="midnightblue" points="198.5,-31.69 195,-21.69 191.5,-31.7 198.5,-31.69"/>
</g>
<!-- Node7 -->
<g id="node7" class="node">
<title>Node7</title>
<g id="a_node7"><a xlink:title=" ">
<polygon fill="none" stroke="#bfbfbf" points="260,-0.5 260,-21.5 362,-21.5 362,-0.5 260,-0.5"/>
<text text-anchor="middle" x="311" y="-7.9" font-family="Helvetica,sans-Serif" font-size="12.00">periph/cpuid.h</text>
</a>
</g>
</g>
<!-- Node2&#45;&gt;Node7 -->
<g id="edge8" class="edge">
<title>Node2&#45;&gt;Node7</title>
<path fill="none" stroke="midnightblue" d="M204.89,-116.28C224.67,-96.85 269.29,-52.99 293.9,-28.8"/>
<polygon fill="midnightblue" stroke="midnightblue" points="296.46,-31.2 301.13,-21.69 291.55,-26.21 296.46,-31.2"/>
</g>
<!-- Node8 -->
<g id="node8" class="node">
<title>Node8</title>
<g id="a_node8"><a xlink:href="uniqueid_8h.html" target="_top" xlink:title="cpuid address">
<polygon fill="none" stroke="black" points="307.5,-58.5 307.5,-79.5 386.5,-79.5 386.5,-58.5 307.5,-58.5"/>
<text text-anchor="middle" x="347" y="-65.9" font-family="Helvetica,sans-Serif" font-size="12.00">uniqueid.h</text>
</a>
</g>
</g>
<!-- Node2&#45;&gt;Node8 -->
<g id="edge9" class="edge">
<title>Node2&#45;&gt;Node8</title>
<path fill="none" stroke="midnightblue" d="M221.13,-116.37C246.08,-107.18 283.86,-93.26 311.52,-83.07"/>
<polygon fill="midnightblue" stroke="midnightblue" points="313.04,-86.24 321.21,-79.5 310.62,-79.67 313.04,-86.24"/>
</g>
<!-- Node4&#45;&gt;Node3 -->
<g id="edge5" class="edge">
<title>Node4&#45;&gt;Node3</title>
<path fill="none" stroke="midnightblue" d="M98.5,-58.25C84.84,-49.65 64.73,-37 49,-27.1"/>
<polygon fill="midnightblue" stroke="midnightblue" points="50.65,-24.01 40.32,-21.64 46.92,-29.93 50.65,-24.01"/>
</g>
<!-- Node5 -->
<g id="node5" class="node">
<title>Node5</title>
<g id="a_node5"><a xlink:title=" ">
<polygon fill="none" stroke="#bfbfbf" points="68.5,-0.5 68.5,-21.5 129.5,-21.5 129.5,-0.5 68.5,-0.5"/>
<text text-anchor="middle" x="99" y="-7.9" font-family="Helvetica,sans-Serif" font-size="12.00">stdint.h</text>
</a>
</g>
</g>
<!-- Node4&#45;&gt;Node5 -->
<g id="edge4" class="edge">
<title>Node4&#45;&gt;Node5</title>
<path fill="none" stroke="midnightblue" d="M111.39,-58.25C109.41,-50.86 106.63,-40.47 104.2,-31.41"/>
<polygon fill="midnightblue" stroke="midnightblue" points="107.55,-30.4 101.58,-21.64 100.79,-32.21 107.55,-30.4"/>
</g>
<!-- Node4&#45;&gt;Node6 -->
<g id="edge6" class="edge">
<title>Node4&#45;&gt;Node6</title>
<path fill="none" stroke="midnightblue" d="M128.11,-58.25C140.42,-49.73 158.5,-37.24 172.75,-27.38"/>
<polygon fill="midnightblue" stroke="midnightblue" points="174.82,-30.21 181.05,-21.64 170.84,-24.45 174.82,-30.21"/>
</g>
<!-- Node8&#45;&gt;Node7 -->
<g id="edge10" class="edge">
<title>Node8&#45;&gt;Node7</title>
<path fill="none" stroke="midnightblue" d="M340.73,-58.25C335.77,-50.54 328.72,-39.56 322.72,-30.23"/>
<polygon fill="midnightblue" stroke="midnightblue" points="325.55,-28.16 317.2,-21.64 319.66,-31.95 325.55,-28.16"/>
</g>
<!-- Node9 -->
<g id="node9" class="node">
<title>Node9</title>
<g id="a_node9"><a xlink:title=" ">
<polygon fill="none" stroke="#bfbfbf" points="380,-0.5 380,-21.5 442,-21.5 442,-0.5 380,-0.5"/>
<text text-anchor="middle" x="411" y="-7.9" font-family="Helvetica,sans-Serif" font-size="12.00">board.h</text>
</a>
</g>
</g>
<!-- Node8&#45;&gt;Node9 -->
<g id="edge11" class="edge">
<title>Node8&#45;&gt;Node9</title>
<path fill="none" stroke="midnightblue" d="M358.15,-58.25C367.51,-50.05 381.09,-38.17 392.13,-28.51"/>
<polygon fill="midnightblue" stroke="midnightblue" points="394.76,-30.86 399.98,-21.64 390.15,-25.59 394.76,-30.86"/>
</g>
<!-- Node10 -->
<g id="node10" class="node">
<title>Node10</title>
<g id="a_node10"><a xlink:title=" ">
<polygon fill="none" stroke="#bfbfbf" points="460,-0.5 460,-21.5 566,-21.5 566,-0.5 460,-0.5"/>
<text text-anchor="middle" x="513" y="-7.9" font-family="Helvetica,sans-Serif" font-size="12.00">net/ipv6/addr.h</text>
</a>
</g>
</g>
<!-- Node8&#45;&gt;Node10 -->
<g id="edge12" class="edge">
<title>Node8&#45;&gt;Node10</title>
<path fill="none" stroke="midnightblue" d="M375.54,-58.37C403.02,-49.1 444.77,-35.02 475.05,-24.8"/>
<polygon fill="midnightblue" stroke="midnightblue" points="476.48,-28.01 484.84,-21.5 474.24,-21.38 476.48,-28.01"/>
</g>
</g>
</svg>
