<?xml version="1.0" encoding="UTF-8" standalone="no"?>
<!DOCTYPE svg PUBLIC "-//W3C//DTD SVG 1.1//EN"
 "http://www.w3.org/Graphics/SVG/1.1/DTD/svg11.dtd">
<!-- Generated by graphviz version 2.43.0 (0)
 -->
<!-- Title: boards/m4a&#45;wrover/include/board.h Pages: 1 -->
<svg width="556pt" height="256pt"
 viewBox="0.00 0.00 556.00 256.00" xmlns="http://www.w3.org/2000/svg" xmlns:xlink="http://www.w3.org/1999/xlink">
<g id="graph0" class="graph" transform="scale(1 1) rotate(0) translate(4 252)">
<title>boards/m4a&#45;wrover/include/board.h</title>
<!-- Node1 -->
<g id="node1" class="node">
<title>Node1</title>
<g id="a_node1"><a xlink:title="Board specific definitions for Espressif ESP&#45;WROVER&#45;KIT V3.">
<polygon fill="#bfbfbf" stroke="black" points="181,-213.5 181,-247.5 361,-247.5 361,-213.5 181,-213.5"/>
<text text-anchor="start" x="189" y="-233.9" font-family="Helvetica,sans-Serif" font-size="12.00">boards/m4a&#45;wrover/include</text>
<text text-anchor="middle" x="271" y="-220.9" font-family="Helvetica,sans-Serif" font-size="12.00">/board.h</text>
</a>
</g>
</g>
<!-- Node2 -->
<g id="node2" class="node">
<title>Node2</title>
<g id="a_node2"><a xlink:href="m4a-wrover_2include_2gpio__params_8h.html" target="_top" xlink:title="Board specific configuration of direct mapped GPIOs.">
<polygon fill="none" stroke="black" points="0,-142.5 0,-176.5 180,-176.5 180,-142.5 0,-142.5"/>
<text text-anchor="start" x="8" y="-162.9" font-family="Helvetica,sans-Serif" font-size="12.00">boards/m4a&#45;wrover/include</text>
<text text-anchor="middle" x="90" y="-149.9" font-family="Helvetica,sans-Serif" font-size="12.00">/gpio_params.h</text>
</a>
</g>
</g>
<!-- Node1&#45;&gt;Node2 -->
<g id="edge1" class="edge">
<title>Node1&#45;&gt;Node2</title>
<path fill="none" stroke="midnightblue" d="M219.51,-209.87C191.83,-199.32 158.15,-186.48 132.07,-176.54"/>
<polygon fill="midnightblue" stroke="midnightblue" points="218.43,-213.2 229.02,-213.5 220.92,-206.66 218.43,-213.2"/>
</g>
<!-- Node3 -->
<g id="node3" class="node">
<title>Node3</title>
<g id="a_node3"><a xlink:href="uniqueid_8h.html" target="_top" xlink:title="IPV6 address.">
<polygon fill="none" stroke="black" points="198.5,-142.5 198.5,-176.5 343.5,-176.5 343.5,-142.5 198.5,-142.5"/>
<text text-anchor="start" x="206.5" y="-162.9" font-family="Helvetica,sans-Serif" font-size="12.00">firmware/sys/network</text>
<text text-anchor="middle" x="271" y="-149.9" font-family="Helvetica,sans-Serif" font-size="12.00">/include/uniqueid.h</text>
</a>
</g>
</g>
<!-- Node1&#45;&gt;Node3 -->
<g id="edge2" class="edge">
<title>Node1&#45;&gt;Node3</title>
<path fill="none" stroke="midnightblue" d="M264.42,-203.25C264.04,-194.39 264.29,-184.77 265.16,-176.9"/>
<polygon fill="midnightblue" stroke="midnightblue" points="260.96,-203.79 265.2,-213.5 267.94,-203.26 260.96,-203.79"/>
</g>
<!-- Node3&#45;&gt;Node1 -->
<g id="edge9" class="edge">
<title>Node3&#45;&gt;Node1</title>
<path fill="none" stroke="midnightblue" d="M277.58,-186.9C277.96,-195.87 277.7,-205.6 276.8,-213.5"/>
<polygon fill="midnightblue" stroke="midnightblue" points="281.07,-186.61 276.84,-176.9 274.09,-187.13 281.07,-186.61"/>
</g>
<!-- Node4 -->
<g id="node4" class="node">
<title>Node4</title>
<g id="a_node4"><a xlink:href="m4a-24g_2include_2board_8h.html" target="_top" xlink:title="Board specific definitions for the M4A&#45;24G board.">
<polygon fill="none" stroke="black" points="12.5,-71.5 12.5,-105.5 173.5,-105.5 173.5,-71.5 12.5,-71.5"/>
<text text-anchor="start" x="20.5" y="-91.9" font-family="Helvetica,sans-Serif" font-size="12.00">boards/m4a&#45;24g/include</text>
<text text-anchor="middle" x="93" y="-78.9" font-family="Helvetica,sans-Serif" font-size="12.00">/board.h</text>
</a>
</g>
</g>
<!-- Node3&#45;&gt;Node4 -->
<g id="edge3" class="edge">
<title>Node3&#45;&gt;Node4</title>
<path fill="none" stroke="midnightblue" d="M220.36,-138.87C193.15,-128.32 160.02,-115.48 134.37,-105.54"/>
<polygon fill="midnightblue" stroke="midnightblue" points="219.13,-142.15 229.72,-142.5 221.66,-135.62 219.13,-142.15"/>
</g>
<!-- Node6 -->
<g id="node6" class="node">
<title>Node6</title>
<g id="a_node6"><a xlink:href="m4a-mb_2include_2board_8h.html" target="_top" xlink:title="Board specific definitions for the M4A&#45;MB.">
<polygon fill="none" stroke="black" points="192,-71.5 192,-105.5 350,-105.5 350,-71.5 192,-71.5"/>
<text text-anchor="start" x="200" y="-91.9" font-family="Helvetica,sans-Serif" font-size="12.00">boards/m4a&#45;mb/include</text>
<text text-anchor="middle" x="271" y="-78.9" font-family="Helvetica,sans-Serif" font-size="12.00">/board.h</text>
</a>
</g>
</g>
<!-- Node3&#45;&gt;Node6 -->
<g id="edge5" class="edge">
<title>Node3&#45;&gt;Node6</title>
<path fill="none" stroke="midnightblue" d="M271,-132.25C271,-123.39 271,-113.77 271,-105.9"/>
<polygon fill="midnightblue" stroke="midnightblue" points="267.5,-132.5 271,-142.5 274.5,-132.5 267.5,-132.5"/>
</g>
<!-- Node8 -->
<g id="node8" class="node">
<title>Node8</title>
<g id="a_node8"><a xlink:href="m4a-wroom_2include_2board_8h.html" target="_top" xlink:title="Board specific definitions for m4a&#45;wroom board.">
<polygon fill="none" stroke="black" points="368,-71.5 368,-105.5 548,-105.5 548,-71.5 368,-71.5"/>
<text text-anchor="start" x="376" y="-91.9" font-family="Helvetica,sans-Serif" font-size="12.00">boards/m4a&#45;wroom/include</text>
<text text-anchor="middle" x="458" y="-78.9" font-family="Helvetica,sans-Serif" font-size="12.00">/board.h</text>
</a>
</g>
</g>
<!-- Node3&#45;&gt;Node8 -->
<g id="edge7" class="edge">
<title>Node3&#45;&gt;Node8</title>
<path fill="none" stroke="midnightblue" d="M323.83,-139.01C352.49,-128.43 387.48,-115.52 414.54,-105.54"/>
<polygon fill="midnightblue" stroke="midnightblue" points="322.54,-135.75 314.37,-142.5 324.96,-142.32 322.54,-135.75"/>
</g>
<!-- Node5 -->
<g id="node5" class="node">
<title>Node5</title>
<g id="a_node5"><a xlink:href="m4a-24g_2include_2gpio__params_8h.html" target="_top" xlink:title="Board specific configuration of direct mapped GPIOs.">
<polygon fill="none" stroke="black" points="12.5,-0.5 12.5,-34.5 173.5,-34.5 173.5,-0.5 12.5,-0.5"/>
<text text-anchor="start" x="20.5" y="-20.9" font-family="Helvetica,sans-Serif" font-size="12.00">boards/m4a&#45;24g/include</text>
<text text-anchor="middle" x="93" y="-7.9" font-family="Helvetica,sans-Serif" font-size="12.00">/gpio_params.h</text>
</a>
</g>
</g>
<!-- Node4&#45;&gt;Node5 -->
<g id="edge4" class="edge">
<title>Node4&#45;&gt;Node5</title>
<path fill="none" stroke="midnightblue" d="M93,-61.25C93,-52.39 93,-42.77 93,-34.9"/>
<polygon fill="midnightblue" stroke="midnightblue" points="89.5,-61.5 93,-71.5 96.5,-61.5 89.5,-61.5"/>
</g>
<!-- Node7 -->
<g id="node7" class="node">
<title>Node7</title>
<g id="a_node7"><a xlink:href="m4a-mb_2include_2gpio__params_8h.html" target="_top" xlink:title="Board specific configuration of direct mapped GPIOs.">
<polygon fill="none" stroke="black" points="192,-0.5 192,-34.5 350,-34.5 350,-0.5 192,-0.5"/>
<text text-anchor="start" x="200" y="-20.9" font-family="Helvetica,sans-Serif" font-size="12.00">boards/m4a&#45;mb/include</text>
<text text-anchor="middle" x="271" y="-7.9" font-family="Helvetica,sans-Serif" font-size="12.00">/gpio_params.h</text>
</a>
</g>
</g>
<!-- Node6&#45;&gt;Node7 -->
<g id="edge6" class="edge">
<title>Node6&#45;&gt;Node7</title>
<path fill="none" stroke="midnightblue" d="M271,-61.25C271,-52.39 271,-42.77 271,-34.9"/>
<polygon fill="midnightblue" stroke="midnightblue" points="267.5,-61.5 271,-71.5 274.5,-61.5 267.5,-61.5"/>
</g>
<!-- Node9 -->
<g id="node9" class="node">
<title>Node9</title>
<g id="a_node9"><a xlink:href="m4a-wroom_2include_2gpio__params_8h.html" target="_top" xlink:title="Board specific configuration of direct mapped GPIOs.">
<polygon fill="none" stroke="black" points="368,-0.5 368,-34.5 548,-34.5 548,-0.5 368,-0.5"/>
<text text-anchor="start" x="376" y="-20.9" font-family="Helvetica,sans-Serif" font-size="12.00">boards/m4a&#45;wroom/include</text>
<text text-anchor="middle" x="458" y="-7.9" font-family="Helvetica,sans-Serif" font-size="12.00">/gpio_params.h</text>
</a>
</g>
</g>
<!-- Node8&#45;&gt;Node9 -->
<g id="edge8" class="edge">
<title>Node8&#45;&gt;Node9</title>
<path fill="none" stroke="midnightblue" d="M458,-61.25C458,-52.39 458,-42.77 458,-34.9"/>
<polygon fill="midnightblue" stroke="midnightblue" points="454.5,-61.5 458,-71.5 461.5,-61.5 454.5,-61.5"/>
</g>
</g>
</svg>
