<?xml version="1.0" encoding="UTF-8" standalone="no"?>
<!DOCTYPE svg PUBLIC "-//W3C//DTD SVG 1.1//EN"
 "http://www.w3.org/Graphics/SVG/1.1/DTD/svg11.dtd">
<!-- Generated by graphviz version 2.43.0 (0)
 -->
<!-- Title: boards/m4a&#45;wroom/include/board.h Pages: 1 -->
<svg width="214pt" height="101pt"
 viewBox="0.00 0.00 214.00 101.00" xmlns="http://www.w3.org/2000/svg" xmlns:xlink="http://www.w3.org/1999/xlink">
<g id="graph0" class="graph" transform="scale(1 1) rotate(0) translate(4 97)">
<title>boards/m4a&#45;wroom/include/board.h</title>
<!-- Node1 -->
<g id="node1" class="node">
<title>Node1</title>
<g id="a_node1"><a xlink:title="Board specific definitions for m4a&#45;wroom board.">
<polygon fill="#bfbfbf" stroke="black" points="0,-58.5 0,-92.5 180,-92.5 180,-58.5 0,-58.5"/>
<text text-anchor="start" x="8" y="-78.9" font-family="Helvetica,sans-Serif" font-size="12.00">boards/m4a&#45;wroom/include</text>
<text text-anchor="middle" x="90" y="-65.9" font-family="Helvetica,sans-Serif" font-size="12.00">/board.h</text>
</a>
</g>
</g>
<!-- Node2 -->
<g id="node2" class="node">
<title>Node2</title>
<g id="a_node2"><a xlink:title=" ">
<polygon fill="none" stroke="#bfbfbf" points="4.5,-0.5 4.5,-21.5 65.5,-21.5 65.5,-0.5 4.5,-0.5"/>
<text text-anchor="middle" x="35" y="-7.9" font-family="Helvetica,sans-Serif" font-size="12.00">stdint.h</text>
</a>
</g>
</g>
<!-- Node1&#45;&gt;Node2 -->
<g id="edge1" class="edge">
<title>Node1&#45;&gt;Node2</title>
<path fill="none" stroke="midnightblue" d="M75.84,-58.4C68.04,-49.54 58.35,-38.54 50.37,-29.47"/>
<polygon fill="midnightblue" stroke="midnightblue" points="52.86,-26.99 43.62,-21.8 47.6,-31.62 52.86,-26.99"/>
</g>
<!-- Node3 -->
<g id="node3" class="node">
<title>Node3</title>
<g id="a_node3"><a xlink:title=" ">
<polygon fill="none" stroke="#bfbfbf" points="84,-0.5 84,-21.5 206,-21.5 206,-0.5 84,-0.5"/>
<text text-anchor="middle" x="145" y="-7.9" font-family="Helvetica,sans-Serif" font-size="12.00">board_common.h</text>
</a>
</g>
</g>
<!-- Node1&#45;&gt;Node3 -->
<g id="edge2" class="edge">
<title>Node1&#45;&gt;Node3</title>
<path fill="none" stroke="midnightblue" d="M104.16,-58.4C111.96,-49.54 121.65,-38.54 129.63,-29.47"/>
<polygon fill="midnightblue" stroke="midnightblue" points="132.4,-31.62 136.38,-21.8 127.14,-26.99 132.4,-31.62"/>
</g>
</g>
</svg>
