<?xml version="1.0" encoding="UTF-8" standalone="no"?>
<!DOCTYPE svg PUBLIC "-//W3C//DTD SVG 1.1//EN"
 "http://www.w3.org/Graphics/SVG/1.1/DTD/svg11.dtd">
<!-- Generated by graphviz version 2.43.0 (0)
 -->
<!-- Title: boards/m4a&#45;24g/include/board.h Pages: 1 -->
<svg width="270pt" height="159pt"
 viewBox="0.00 0.00 269.50 159.00" xmlns="http://www.w3.org/2000/svg" xmlns:xlink="http://www.w3.org/1999/xlink">
<g id="graph0" class="graph" transform="scale(1 1) rotate(0) translate(4 155)">
<title>boards/m4a&#45;24g/include/board.h</title>
<!-- Node1 -->
<g id="node1" class="node">
<title>Node1</title>
<g id="a_node1"><a xlink:title="Board specific definitions for the M4A&#45;24G board.">
<polygon fill="#bfbfbf" stroke="black" points="0,-116.5 0,-150.5 161,-150.5 161,-116.5 0,-116.5"/>
<text text-anchor="start" x="8" y="-136.9" font-family="Helvetica,sans-Serif" font-size="12.00">boards/m4a&#45;24g/include</text>
<text text-anchor="middle" x="80.5" y="-123.9" font-family="Helvetica,sans-Serif" font-size="12.00">/board.h</text>
</a>
</g>
</g>
<!-- Node2 -->
<g id="node2" class="node">
<title>Node2</title>
<g id="a_node2"><a xlink:title=" ">
<polygon fill="none" stroke="#bfbfbf" points="18.5,-0.5 18.5,-21.5 68.5,-21.5 68.5,-0.5 18.5,-0.5"/>
<text text-anchor="middle" x="43.5" y="-7.9" font-family="Helvetica,sans-Serif" font-size="12.00">cpu.h</text>
</a>
</g>
</g>
<!-- Node1&#45;&gt;Node2 -->
<g id="edge1" class="edge">
<title>Node1&#45;&gt;Node2</title>
<path fill="none" stroke="midnightblue" d="M74.74,-116.49C71.08,-106.14 66.33,-92.33 62.5,-80 57.45,-63.74 52.28,-45.11 48.62,-31.47"/>
<polygon fill="midnightblue" stroke="midnightblue" points="51.98,-30.5 46.03,-21.74 45.22,-32.3 51.98,-30.5"/>
</g>
<!-- Node3 -->
<g id="node3" class="node">
<title>Node3</title>
<g id="a_node3"><a xlink:href="m4a-24g_2include_2periph__conf_8h.html" target="_top" xlink:title="Configuration of CPU peripherals for the m4a&#45;24g board.">
<polygon fill="none" stroke="black" points="71,-58.5 71,-79.5 168,-79.5 168,-58.5 71,-58.5"/>
<text text-anchor="middle" x="119.5" y="-65.9" font-family="Helvetica,sans-Serif" font-size="12.00">periph_conf.h</text>
</a>
</g>
</g>
<!-- Node1&#45;&gt;Node3 -->
<g id="edge2" class="edge">
<title>Node1&#45;&gt;Node3</title>
<path fill="none" stroke="midnightblue" d="M90.54,-116.4C95.9,-107.81 102.52,-97.21 108.08,-88.31"/>
<polygon fill="midnightblue" stroke="midnightblue" points="111.06,-90.14 113.38,-79.8 105.12,-86.43 111.06,-90.14"/>
</g>
<!-- Node3&#45;&gt;Node2 -->
<g id="edge4" class="edge">
<title>Node3&#45;&gt;Node2</title>
<path fill="none" stroke="midnightblue" d="M106.26,-58.25C94.82,-49.81 78.07,-37.47 64.75,-27.66"/>
<polygon fill="midnightblue" stroke="midnightblue" points="66.71,-24.76 56.59,-21.64 62.56,-30.39 66.71,-24.76"/>
</g>
<!-- Node4 -->
<g id="node4" class="node">
<title>Node4</title>
<g id="a_node4"><a xlink:title=" ">
<polygon fill="none" stroke="#bfbfbf" points="88,-0.5 88,-21.5 149,-21.5 149,-0.5 88,-0.5"/>
<text text-anchor="middle" x="118.5" y="-7.9" font-family="Helvetica,sans-Serif" font-size="12.00">stdint.h</text>
</a>
</g>
</g>
<!-- Node3&#45;&gt;Node4 -->
<g id="edge3" class="edge">
<title>Node3&#45;&gt;Node4</title>
<path fill="none" stroke="midnightblue" d="M119.33,-58.25C119.2,-50.94 119.01,-40.69 118.85,-31.7"/>
<polygon fill="midnightblue" stroke="midnightblue" points="122.35,-31.58 118.67,-21.64 115.35,-31.7 122.35,-31.58"/>
</g>
<!-- Node5 -->
<g id="node5" class="node">
<title>Node5</title>
<g id="a_node5"><a xlink:title=" ">
<polygon fill="none" stroke="#bfbfbf" points="167.5,-0.5 167.5,-21.5 261.5,-21.5 261.5,-0.5 167.5,-0.5"/>
<text text-anchor="middle" x="214.5" y="-7.9" font-family="Helvetica,sans-Serif" font-size="12.00">periph_cpu.h</text>
</a>
</g>
</g>
<!-- Node3&#45;&gt;Node5 -->
<g id="edge5" class="edge">
<title>Node3&#45;&gt;Node5</title>
<path fill="none" stroke="midnightblue" d="M136.05,-58.25C150.76,-49.57 172.49,-36.76 189.35,-26.82"/>
<polygon fill="midnightblue" stroke="midnightblue" points="191.3,-29.74 198.14,-21.64 187.75,-23.71 191.3,-29.74"/>
</g>
</g>
</svg>
