<?xml version="1.0" encoding="UTF-8" standalone="no"?>
<!DOCTYPE svg PUBLIC "-//W3C//DTD SVG 1.1//EN"
 "http://www.w3.org/Graphics/SVG/1.1/DTD/svg11.dtd">
<!-- Generated by graphviz version 2.43.0 (0)
 -->
<!-- Title: boards/m4a&#45;mb/include/periph_conf.h Pages: 1 -->
<svg width="166pt" height="185pt"
 viewBox="0.00 0.00 166.00 185.00" xmlns="http://www.w3.org/2000/svg" xmlns:xlink="http://www.w3.org/1999/xlink">
<g id="graph0" class="graph" transform="scale(1 1) rotate(0) translate(4 181)">
<title>boards/m4a&#45;mb/include/periph_conf.h</title>
<!-- Node1 -->
<g id="node1" class="node">
<title>Node1</title>
<g id="a_node1"><a xlink:title="Peripheral MCU configuration for m4a_mb board.">
<polygon fill="#bfbfbf" stroke="black" points="0,-142.5 0,-176.5 158,-176.5 158,-142.5 0,-142.5"/>
<text text-anchor="start" x="8" y="-162.9" font-family="Helvetica,sans-Serif" font-size="12.00">boards/m4a&#45;mb/include</text>
<text text-anchor="middle" x="79" y="-149.9" font-family="Helvetica,sans-Serif" font-size="12.00">/periph_conf.h</text>
</a>
</g>
</g>
<!-- Node2 -->
<g id="node2" class="node">
<title>Node2</title>
<g id="a_node2"><a xlink:href="m4a-mb_2include_2board_8h.html" target="_top" xlink:title="Board specific definitions for the M4A&#45;MB.">
<polygon fill="none" stroke="black" points="0,-71.5 0,-105.5 158,-105.5 158,-71.5 0,-71.5"/>
<text text-anchor="start" x="8" y="-91.9" font-family="Helvetica,sans-Serif" font-size="12.00">boards/m4a&#45;mb/include</text>
<text text-anchor="middle" x="79" y="-78.9" font-family="Helvetica,sans-Serif" font-size="12.00">/board.h</text>
</a>
</g>
</g>
<!-- Node1&#45;&gt;Node2 -->
<g id="edge1" class="edge">
<title>Node1&#45;&gt;Node2</title>
<path fill="none" stroke="midnightblue" d="M79,-132.25C79,-123.39 79,-113.77 79,-105.9"/>
<polygon fill="midnightblue" stroke="midnightblue" points="75.5,-132.5 79,-142.5 82.5,-132.5 75.5,-132.5"/>
</g>
<!-- Node3 -->
<g id="node3" class="node">
<title>Node3</title>
<g id="a_node3"><a xlink:href="m4a-mb_2include_2gpio__params_8h.html" target="_top" xlink:title="Board specific configuration of direct mapped GPIOs.">
<polygon fill="none" stroke="black" points="0,-0.5 0,-34.5 158,-34.5 158,-0.5 0,-0.5"/>
<text text-anchor="start" x="8" y="-20.9" font-family="Helvetica,sans-Serif" font-size="12.00">boards/m4a&#45;mb/include</text>
<text text-anchor="middle" x="79" y="-7.9" font-family="Helvetica,sans-Serif" font-size="12.00">/gpio_params.h</text>
</a>
</g>
</g>
<!-- Node2&#45;&gt;Node3 -->
<g id="edge2" class="edge">
<title>Node2&#45;&gt;Node3</title>
<path fill="none" stroke="midnightblue" d="M79,-61.25C79,-52.39 79,-42.77 79,-34.9"/>
<polygon fill="midnightblue" stroke="midnightblue" points="75.5,-61.5 79,-71.5 82.5,-61.5 75.5,-61.5"/>
</g>
</g>
</svg>
