<?xml version="1.0" encoding="UTF-8" standalone="no"?>
<!DOCTYPE svg PUBLIC "-//W3C//DTD SVG 1.1//EN"
 "http://www.w3.org/Graphics/SVG/1.1/DTD/svg11.dtd">
<!-- Generated by graphviz version 2.43.0 (0)
 -->
<!-- Title: boards/m4a&#45;wrover/include/board.h Pages: 1 -->
<svg width="596pt" height="159pt"
 viewBox="0.00 0.00 595.50 159.00" xmlns="http://www.w3.org/2000/svg" xmlns:xlink="http://www.w3.org/1999/xlink">
<g id="graph0" class="graph" transform="scale(1 1) rotate(0) translate(4 155)">
<title>boards/m4a&#45;wrover/include/board.h</title>
<!-- Node1 -->
<g id="node1" class="node">
<title>Node1</title>
<g id="a_node1"><a xlink:title="Board specific definitions for Espressif ESP&#45;WROVER&#45;KIT V3.">
<polygon fill="#bfbfbf" stroke="black" points="133.5,-116.5 133.5,-150.5 313.5,-150.5 313.5,-116.5 133.5,-116.5"/>
<text text-anchor="start" x="141.5" y="-136.9" font-family="Helvetica,sans-Serif" font-size="12.00">boards/m4a&#45;wrover/include</text>
<text text-anchor="middle" x="223.5" y="-123.9" font-family="Helvetica,sans-Serif" font-size="12.00">/board.h</text>
</a>
</g>
</g>
<!-- Node2 -->
<g id="node2" class="node">
<title>Node2</title>
<g id="a_node2"><a xlink:title=" ">
<polygon fill="none" stroke="#bfbfbf" points="0,-0.5 0,-21.5 61,-21.5 61,-0.5 0,-0.5"/>
<text text-anchor="middle" x="30.5" y="-7.9" font-family="Helvetica,sans-Serif" font-size="12.00">stdint.h</text>
</a>
</g>
</g>
<!-- Node1&#45;&gt;Node2 -->
<g id="edge1" class="edge">
<title>Node1&#45;&gt;Node2</title>
<path fill="none" stroke="midnightblue" d="M133.35,-126.9C99.58,-120.16 63.79,-106.62 40.5,-80 29.11,-66.97 27.41,-46.88 28.08,-31.91"/>
<polygon fill="midnightblue" stroke="midnightblue" points="31.6,-31.92 28.94,-21.66 24.62,-31.34 31.6,-31.92"/>
</g>
<!-- Node3 -->
<g id="node3" class="node">
<title>Node3</title>
<g id="a_node3"><a xlink:title=" ">
<polygon fill="none" stroke="#bfbfbf" points="49.5,-58.5 49.5,-79.5 99.5,-79.5 99.5,-58.5 49.5,-58.5"/>
<text text-anchor="middle" x="74.5" y="-65.9" font-family="Helvetica,sans-Serif" font-size="12.00">cpu.h</text>
</a>
</g>
</g>
<!-- Node1&#45;&gt;Node3 -->
<g id="edge2" class="edge">
<title>Node1&#45;&gt;Node3</title>
<path fill="none" stroke="midnightblue" d="M185.13,-116.4C160.83,-106.21 129.78,-93.19 106.76,-83.53"/>
<polygon fill="midnightblue" stroke="midnightblue" points="108,-80.26 97.43,-79.62 105.29,-86.71 108,-80.26"/>
</g>
<!-- Node4 -->
<g id="node4" class="node">
<title>Node4</title>
<g id="a_node4"><a xlink:href="m4a-wrover_2include_2periph__conf_8h.html" target="_top" xlink:title="Peripheral MCU configuration for Espressif ESP&#45;WROVER&#45;KIT V3.">
<polygon fill="none" stroke="black" points="118,-58.5 118,-79.5 215,-79.5 215,-58.5 118,-58.5"/>
<text text-anchor="middle" x="166.5" y="-65.9" font-family="Helvetica,sans-Serif" font-size="12.00">periph_conf.h</text>
</a>
</g>
</g>
<!-- Node1&#45;&gt;Node4 -->
<g id="edge3" class="edge">
<title>Node1&#45;&gt;Node4</title>
<path fill="none" stroke="midnightblue" d="M208.82,-116.4C200.66,-107.45 190.5,-96.31 182.18,-87.19"/>
<polygon fill="midnightblue" stroke="midnightblue" points="184.76,-84.83 175.44,-79.8 179.59,-89.55 184.76,-84.83"/>
</g>
<!-- Node6 -->
<g id="node6" class="node">
<title>Node6</title>
<g id="a_node6"><a xlink:title=" ">
<polygon fill="none" stroke="#bfbfbf" points="233.5,-58.5 233.5,-79.5 327.5,-79.5 327.5,-58.5 233.5,-58.5"/>
<text text-anchor="middle" x="280.5" y="-65.9" font-family="Helvetica,sans-Serif" font-size="12.00">periph_cpu.h</text>
</a>
</g>
</g>
<!-- Node1&#45;&gt;Node6 -->
<g id="edge6" class="edge">
<title>Node1&#45;&gt;Node6</title>
<path fill="none" stroke="midnightblue" d="M238.18,-116.4C246.34,-107.45 256.5,-96.31 264.82,-87.19"/>
<polygon fill="midnightblue" stroke="midnightblue" points="267.41,-89.55 271.56,-79.8 262.24,-84.83 267.41,-89.55"/>
</g>
<!-- Node7 -->
<g id="node7" class="node">
<title>Node7</title>
<g id="a_node7"><a xlink:title=" ">
<polygon fill="none" stroke="#bfbfbf" points="345.5,-58.5 345.5,-79.5 447.5,-79.5 447.5,-58.5 345.5,-58.5"/>
<text text-anchor="middle" x="396.5" y="-65.9" font-family="Helvetica,sans-Serif" font-size="12.00">periph/cpuid.h</text>
</a>
</g>
</g>
<!-- Node1&#45;&gt;Node7 -->
<g id="edge7" class="edge">
<title>Node1&#45;&gt;Node7</title>
<path fill="none" stroke="midnightblue" d="M268.05,-116.4C296.85,-106 333.84,-92.64 360.72,-82.93"/>
<polygon fill="midnightblue" stroke="midnightblue" points="361.92,-86.22 370.13,-79.53 359.54,-79.63 361.92,-86.22"/>
</g>
<!-- Node8 -->
<g id="node8" class="node">
<title>Node8</title>
<g id="a_node8"><a xlink:title=" ">
<polygon fill="none" stroke="#bfbfbf" points="465.5,-58.5 465.5,-79.5 587.5,-79.5 587.5,-58.5 465.5,-58.5"/>
<text text-anchor="middle" x="526.5" y="-65.9" font-family="Helvetica,sans-Serif" font-size="12.00">board_common.h</text>
</a>
</g>
</g>
<!-- Node1&#45;&gt;Node8 -->
<g id="edge8" class="edge">
<title>Node1&#45;&gt;Node8</title>
<path fill="none" stroke="midnightblue" d="M301.14,-116.49C354.01,-105.58 422.78,-91.39 470.37,-81.58"/>
<polygon fill="midnightblue" stroke="midnightblue" points="471.11,-85 480.2,-79.55 469.7,-78.14 471.11,-85"/>
</g>
<!-- Node4&#45;&gt;Node2 -->
<g id="edge4" class="edge">
<title>Node4&#45;&gt;Node2</title>
<path fill="none" stroke="midnightblue" d="M143.12,-58.37C121,-49.26 87.59,-35.51 62.9,-25.34"/>
<polygon fill="midnightblue" stroke="midnightblue" points="64.15,-22.07 53.57,-21.5 61.49,-28.55 64.15,-22.07"/>
</g>
<!-- Node5 -->
<g id="node5" class="node">
<title>Node5</title>
<g id="a_node5"><a xlink:title=" ">
<polygon fill="none" stroke="#bfbfbf" points="87.5,-0.5 87.5,-21.5 245.5,-21.5 245.5,-0.5 87.5,-0.5"/>
<text text-anchor="middle" x="166.5" y="-7.9" font-family="Helvetica,sans-Serif" font-size="12.00">periph_conf_common.h</text>
</a>
</g>
</g>
<!-- Node4&#45;&gt;Node5 -->
<g id="edge5" class="edge">
<title>Node4&#45;&gt;Node5</title>
<path fill="none" stroke="midnightblue" d="M166.5,-58.25C166.5,-50.94 166.5,-40.69 166.5,-31.7"/>
<polygon fill="midnightblue" stroke="midnightblue" points="170,-31.64 166.5,-21.64 163,-31.64 170,-31.64"/>
</g>
</g>
</svg>
