<?xml version="1.0" encoding="UTF-8" standalone="no"?>
<!DOCTYPE svg PUBLIC "-//W3C//DTD SVG 1.1//EN"
 "http://www.w3.org/Graphics/SVG/1.1/DTD/svg11.dtd">
<!-- Generated by graphviz version 2.43.0 (0)
 -->
<!-- Title: boards/m4a&#45;wroom/include/periph_conf.h Pages: 1 -->
<svg width="245pt" height="101pt"
 viewBox="0.00 0.00 244.50 101.00" xmlns="http://www.w3.org/2000/svg" xmlns:xlink="http://www.w3.org/1999/xlink">
<g id="graph0" class="graph" transform="scale(1 1) rotate(0) translate(4 97)">
<title>boards/m4a&#45;wroom/include/periph_conf.h</title>
<!-- Node1 -->
<g id="node1" class="node">
<title>Node1</title>
<g id="a_node1"><a xlink:title="Peripheral MCU configuration for generic m4a&#45;wroom board.">
<polygon fill="#bfbfbf" stroke="black" points="3.5,-58.5 3.5,-92.5 183.5,-92.5 183.5,-58.5 3.5,-58.5"/>
<text text-anchor="start" x="11.5" y="-78.9" font-family="Helvetica,sans-Serif" font-size="12.00">boards/m4a&#45;wroom/include</text>
<text text-anchor="middle" x="93.5" y="-65.9" font-family="Helvetica,sans-Serif" font-size="12.00">/periph_conf.h</text>
</a>
</g>
</g>
<!-- Node2 -->
<g id="node2" class="node">
<title>Node2</title>
<g id="a_node2"><a xlink:title=" ">
<polygon fill="none" stroke="#bfbfbf" points="0,-0.5 0,-21.5 61,-21.5 61,-0.5 0,-0.5"/>
<text text-anchor="middle" x="30.5" y="-7.9" font-family="Helvetica,sans-Serif" font-size="12.00">stdint.h</text>
</a>
</g>
</g>
<!-- Node1&#45;&gt;Node2 -->
<g id="edge1" class="edge">
<title>Node1&#45;&gt;Node2</title>
<path fill="none" stroke="midnightblue" d="M77.28,-58.4C68.16,-49.36 56.8,-38.09 47.55,-28.91"/>
<polygon fill="midnightblue" stroke="midnightblue" points="49.94,-26.36 40.38,-21.8 45.01,-31.33 49.94,-26.36"/>
</g>
<!-- Node3 -->
<g id="node3" class="node">
<title>Node3</title>
<g id="a_node3"><a xlink:title=" ">
<polygon fill="none" stroke="#bfbfbf" points="78.5,-0.5 78.5,-21.5 236.5,-21.5 236.5,-0.5 78.5,-0.5"/>
<text text-anchor="middle" x="157.5" y="-7.9" font-family="Helvetica,sans-Serif" font-size="12.00">periph_conf_common.h</text>
</a>
</g>
</g>
<!-- Node1&#45;&gt;Node3 -->
<g id="edge2" class="edge">
<title>Node1&#45;&gt;Node3</title>
<path fill="none" stroke="midnightblue" d="M109.98,-58.4C119.24,-49.36 130.79,-38.09 140.18,-28.91"/>
<polygon fill="midnightblue" stroke="midnightblue" points="142.76,-31.29 147.46,-21.8 137.87,-26.28 142.76,-31.29"/>
</g>
</g>
</svg>
