<?xml version="1.0" encoding="UTF-8" standalone="no"?>
<!DOCTYPE svg PUBLIC "-//W3C//DTD SVG 1.1//EN"
 "http://www.w3.org/Graphics/SVG/1.1/DTD/svg11.dtd">
<!-- Generated by graphviz version 2.43.0 (0)
 -->
<!-- Title: boards/m4a&#45;wroom/include/gpio_params.h Pages: 1 -->
<svg width="237pt" height="159pt"
 viewBox="0.00 0.00 236.50 159.00" xmlns="http://www.w3.org/2000/svg" xmlns:xlink="http://www.w3.org/1999/xlink">
<g id="graph0" class="graph" transform="scale(1 1) rotate(0) translate(4 155)">
<title>boards/m4a&#45;wroom/include/gpio_params.h</title>
<!-- Node1 -->
<g id="node1" class="node">
<title>Node1</title>
<g id="a_node1"><a xlink:title="Board specific configuration of direct mapped GPIOs.">
<polygon fill="#bfbfbf" stroke="black" points="43.5,-116.5 43.5,-150.5 223.5,-150.5 223.5,-116.5 43.5,-116.5"/>
<text text-anchor="start" x="51.5" y="-136.9" font-family="Helvetica,sans-Serif" font-size="12.00">boards/m4a&#45;wroom/include</text>
<text text-anchor="middle" x="133.5" y="-123.9" font-family="Helvetica,sans-Serif" font-size="12.00">/gpio_params.h</text>
</a>
</g>
</g>
<!-- Node2 -->
<g id="node2" class="node">
<title>Node2</title>
<g id="a_node2"><a xlink:href="m4a-wroom_2include_2board_8h.html" target="_top" xlink:title="Board specific definitions for m4a&#45;wroom board.">
<polygon fill="none" stroke="black" points="54.5,-58.5 54.5,-79.5 116.5,-79.5 116.5,-58.5 54.5,-58.5"/>
<text text-anchor="middle" x="85.5" y="-65.9" font-family="Helvetica,sans-Serif" font-size="12.00">board.h</text>
</a>
</g>
</g>
<!-- Node1&#45;&gt;Node2 -->
<g id="edge1" class="edge">
<title>Node1&#45;&gt;Node2</title>
<path fill="none" stroke="midnightblue" d="M121.14,-116.4C114.4,-107.63 106.05,-96.76 99.13,-87.75"/>
<polygon fill="midnightblue" stroke="midnightblue" points="101.89,-85.6 93.03,-79.8 96.34,-89.86 101.89,-85.6"/>
</g>
<!-- Node5 -->
<g id="node5" class="node">
<title>Node5</title>
<g id="a_node5"><a xlink:title=" ">
<polygon fill="none" stroke="#bfbfbf" points="134.5,-58.5 134.5,-79.5 228.5,-79.5 228.5,-58.5 134.5,-58.5"/>
<text text-anchor="middle" x="181.5" y="-65.9" font-family="Helvetica,sans-Serif" font-size="12.00">saul/periph.h</text>
</a>
</g>
</g>
<!-- Node1&#45;&gt;Node5 -->
<g id="edge4" class="edge">
<title>Node1&#45;&gt;Node5</title>
<path fill="none" stroke="midnightblue" d="M145.86,-116.4C152.6,-107.63 160.95,-96.76 167.87,-87.75"/>
<polygon fill="midnightblue" stroke="midnightblue" points="170.66,-89.86 173.97,-79.8 165.11,-85.6 170.66,-89.86"/>
</g>
<!-- Node3 -->
<g id="node3" class="node">
<title>Node3</title>
<g id="a_node3"><a xlink:title=" ">
<polygon fill="none" stroke="#bfbfbf" points="0,-0.5 0,-21.5 61,-21.5 61,-0.5 0,-0.5"/>
<text text-anchor="middle" x="30.5" y="-7.9" font-family="Helvetica,sans-Serif" font-size="12.00">stdint.h</text>
</a>
</g>
</g>
<!-- Node2&#45;&gt;Node3 -->
<g id="edge2" class="edge">
<title>Node2&#45;&gt;Node3</title>
<path fill="none" stroke="midnightblue" d="M75.92,-58.25C67.95,-50.14 56.44,-38.41 46.99,-28.79"/>
<polygon fill="midnightblue" stroke="midnightblue" points="49.47,-26.32 39.97,-21.64 44.48,-31.23 49.47,-26.32"/>
</g>
<!-- Node4 -->
<g id="node4" class="node">
<title>Node4</title>
<g id="a_node4"><a xlink:title=" ">
<polygon fill="none" stroke="#bfbfbf" points="79.5,-0.5 79.5,-21.5 201.5,-21.5 201.5,-0.5 79.5,-0.5"/>
<text text-anchor="middle" x="140.5" y="-7.9" font-family="Helvetica,sans-Serif" font-size="12.00">board_common.h</text>
</a>
</g>
</g>
<!-- Node2&#45;&gt;Node4 -->
<g id="edge3" class="edge">
<title>Node2&#45;&gt;Node4</title>
<path fill="none" stroke="midnightblue" d="M95.08,-58.25C103.05,-50.14 114.56,-38.41 124.01,-28.79"/>
<polygon fill="midnightblue" stroke="midnightblue" points="126.52,-31.23 131.03,-21.64 121.53,-26.32 126.52,-31.23"/>
</g>
</g>
</svg>
