<?xml version="1.0" encoding="UTF-8" standalone="no"?>
<!DOCTYPE svg PUBLIC "-//W3C//DTD SVG 1.1//EN"
 "http://www.w3.org/Graphics/SVG/1.1/DTD/svg11.dtd">
<!-- Generated by graphviz version 2.43.0 (0)
 -->
<!-- Title: boards/m4a&#45;mb/include/board.h Pages: 1 -->
<svg width="268pt" height="159pt"
 viewBox="0.00 0.00 268.00 159.00" xmlns="http://www.w3.org/2000/svg" xmlns:xlink="http://www.w3.org/1999/xlink">
<g id="graph0" class="graph" transform="scale(1 1) rotate(0) translate(4 155)">
<title>boards/m4a&#45;mb/include/board.h</title>
<!-- Node1 -->
<g id="node1" class="node">
<title>Node1</title>
<g id="a_node1"><a xlink:title="Board specific definitions for the M4A&#45;MB.">
<polygon fill="#bfbfbf" stroke="black" points="0,-116.5 0,-150.5 158,-150.5 158,-116.5 0,-116.5"/>
<text text-anchor="start" x="8" y="-136.9" font-family="Helvetica,sans-Serif" font-size="12.00">boards/m4a&#45;mb/include</text>
<text text-anchor="middle" x="79" y="-123.9" font-family="Helvetica,sans-Serif" font-size="12.00">/board.h</text>
</a>
</g>
</g>
<!-- Node2 -->
<g id="node2" class="node">
<title>Node2</title>
<g id="a_node2"><a xlink:title=" ">
<polygon fill="none" stroke="#bfbfbf" points="17,-0.5 17,-21.5 67,-21.5 67,-0.5 17,-0.5"/>
<text text-anchor="middle" x="42" y="-7.9" font-family="Helvetica,sans-Serif" font-size="12.00">cpu.h</text>
</a>
</g>
</g>
<!-- Node1&#45;&gt;Node2 -->
<g id="edge1" class="edge">
<title>Node1&#45;&gt;Node2</title>
<path fill="none" stroke="midnightblue" d="M73.24,-116.49C69.58,-106.14 64.83,-92.33 61,-80 55.95,-63.74 50.78,-45.11 47.12,-31.47"/>
<polygon fill="midnightblue" stroke="midnightblue" points="50.48,-30.5 44.53,-21.74 43.72,-32.3 50.48,-30.5"/>
</g>
<!-- Node3 -->
<g id="node3" class="node">
<title>Node3</title>
<g id="a_node3"><a xlink:href="m4a-mb_2include_2periph__conf_8h.html" target="_top" xlink:title="Peripheral MCU configuration for m4a_mb board.">
<polygon fill="none" stroke="black" points="69.5,-58.5 69.5,-79.5 166.5,-79.5 166.5,-58.5 69.5,-58.5"/>
<text text-anchor="middle" x="118" y="-65.9" font-family="Helvetica,sans-Serif" font-size="12.00">periph_conf.h</text>
</a>
</g>
</g>
<!-- Node1&#45;&gt;Node3 -->
<g id="edge2" class="edge">
<title>Node1&#45;&gt;Node3</title>
<path fill="none" stroke="midnightblue" d="M89.04,-116.4C94.4,-107.81 101.02,-97.21 106.58,-88.31"/>
<polygon fill="midnightblue" stroke="midnightblue" points="109.56,-90.14 111.88,-79.8 103.62,-86.43 109.56,-90.14"/>
</g>
<!-- Node3&#45;&gt;Node2 -->
<g id="edge4" class="edge">
<title>Node3&#45;&gt;Node2</title>
<path fill="none" stroke="midnightblue" d="M104.76,-58.25C93.32,-49.81 76.57,-37.47 63.25,-27.66"/>
<polygon fill="midnightblue" stroke="midnightblue" points="65.21,-24.76 55.09,-21.64 61.06,-30.39 65.21,-24.76"/>
</g>
<!-- Node4 -->
<g id="node4" class="node">
<title>Node4</title>
<g id="a_node4"><a xlink:title=" ">
<polygon fill="none" stroke="#bfbfbf" points="86.5,-0.5 86.5,-21.5 147.5,-21.5 147.5,-0.5 86.5,-0.5"/>
<text text-anchor="middle" x="117" y="-7.9" font-family="Helvetica,sans-Serif" font-size="12.00">stdint.h</text>
</a>
</g>
</g>
<!-- Node3&#45;&gt;Node4 -->
<g id="edge3" class="edge">
<title>Node3&#45;&gt;Node4</title>
<path fill="none" stroke="midnightblue" d="M117.83,-58.25C117.7,-50.94 117.51,-40.69 117.35,-31.7"/>
<polygon fill="midnightblue" stroke="midnightblue" points="120.85,-31.58 117.17,-21.64 113.85,-31.7 120.85,-31.58"/>
</g>
<!-- Node5 -->
<g id="node5" class="node">
<title>Node5</title>
<g id="a_node5"><a xlink:title=" ">
<polygon fill="none" stroke="#bfbfbf" points="166,-0.5 166,-21.5 260,-21.5 260,-0.5 166,-0.5"/>
<text text-anchor="middle" x="213" y="-7.9" font-family="Helvetica,sans-Serif" font-size="12.00">periph_cpu.h</text>
</a>
</g>
</g>
<!-- Node3&#45;&gt;Node5 -->
<g id="edge5" class="edge">
<title>Node3&#45;&gt;Node5</title>
<path fill="none" stroke="midnightblue" d="M134.55,-58.25C149.26,-49.57 170.99,-36.76 187.85,-26.82"/>
<polygon fill="midnightblue" stroke="midnightblue" points="189.8,-29.74 196.64,-21.64 186.25,-23.71 189.8,-29.74"/>
</g>
</g>
</svg>
