<?xml version="1.0" encoding="UTF-8" standalone="no"?>
<!DOCTYPE svg PUBLIC "-//W3C//DTD SVG 1.1//EN"
 "http://www.w3.org/Graphics/SVG/1.1/DTD/svg11.dtd">
<!-- Generated by graphviz version 2.43.0 (0)
 -->
<!-- Title: boards/meshme/include/periph_conf.h Pages: 1 -->
<svg width="536pt" height="101pt"
 viewBox="0.00 0.00 536.00 101.00" xmlns="http://www.w3.org/2000/svg" xmlns:xlink="http://www.w3.org/1999/xlink">
<g id="graph0" class="graph" transform="scale(1 1) rotate(0) translate(4 97)">
<title>boards/meshme/include/periph_conf.h</title>
<!-- Node1 -->
<g id="node1" class="node">
<title>Node1</title>
<g id="a_node1"><a xlink:title="Peripheral MCU configuration for the Meshme board.">
<polygon fill="#bfbfbf" stroke="black" points="114.5,-58.5 114.5,-92.5 274.5,-92.5 274.5,-58.5 114.5,-58.5"/>
<text text-anchor="start" x="122.5" y="-78.9" font-family="Helvetica,sans-Serif" font-size="12.00">boards/meshme/include</text>
<text text-anchor="middle" x="194.5" y="-65.9" font-family="Helvetica,sans-Serif" font-size="12.00">/periph_conf.h</text>
</a>
</g>
</g>
<!-- Node2 -->
<g id="node2" class="node">
<title>Node2</title>
<g id="a_node2"><a xlink:title=" ">
<polygon fill="none" stroke="#bfbfbf" points="0,-0.5 0,-21.5 61,-21.5 61,-0.5 0,-0.5"/>
<text text-anchor="middle" x="30.5" y="-7.9" font-family="Helvetica,sans-Serif" font-size="12.00">stdint.h</text>
</a>
</g>
</g>
<!-- Node1&#45;&gt;Node2 -->
<g id="edge1" class="edge">
<title>Node1&#45;&gt;Node2</title>
<path fill="none" stroke="midnightblue" d="M152.27,-58.4C125.29,-48.12 90.73,-34.95 65.33,-25.27"/>
<polygon fill="midnightblue" stroke="midnightblue" points="66.33,-21.91 55.73,-21.62 63.83,-28.45 66.33,-21.91"/>
</g>
<!-- Node3 -->
<g id="node3" class="node">
<title>Node3</title>
<g id="a_node3"><a xlink:title=" ">
<polygon fill="none" stroke="#bfbfbf" points="79.5,-0.5 79.5,-21.5 129.5,-21.5 129.5,-0.5 79.5,-0.5"/>
<text text-anchor="middle" x="104.5" y="-7.9" font-family="Helvetica,sans-Serif" font-size="12.00">cpu.h</text>
</a>
</g>
</g>
<!-- Node1&#45;&gt;Node3 -->
<g id="edge2" class="edge">
<title>Node1&#45;&gt;Node3</title>
<path fill="none" stroke="midnightblue" d="M171.32,-58.4C157.57,-48.85 140.22,-36.8 126.65,-27.38"/>
<polygon fill="midnightblue" stroke="midnightblue" points="128.56,-24.45 118.35,-21.62 124.57,-30.2 128.56,-24.45"/>
</g>
<!-- Node4 -->
<g id="node4" class="node">
<title>Node4</title>
<g id="a_node4"><a xlink:title=" ">
<polygon fill="none" stroke="#bfbfbf" points="147.5,-0.5 147.5,-21.5 241.5,-21.5 241.5,-0.5 147.5,-0.5"/>
<text text-anchor="middle" x="194.5" y="-7.9" font-family="Helvetica,sans-Serif" font-size="12.00">periph_cpu.h</text>
</a>
</g>
</g>
<!-- Node1&#45;&gt;Node4 -->
<g id="edge3" class="edge">
<title>Node1&#45;&gt;Node4</title>
<path fill="none" stroke="midnightblue" d="M194.5,-58.4C194.5,-50.36 194.5,-40.54 194.5,-32.01"/>
<polygon fill="midnightblue" stroke="midnightblue" points="198,-31.8 194.5,-21.8 191,-31.8 198,-31.8"/>
</g>
<!-- Node5 -->
<g id="node5" class="node">
<title>Node5</title>
<g id="a_node5"><a xlink:title=" ">
<polygon fill="none" stroke="#bfbfbf" points="260,-0.5 260,-21.5 377,-21.5 377,-0.5 260,-0.5"/>
<text text-anchor="middle" x="318.5" y="-7.9" font-family="Helvetica,sans-Serif" font-size="12.00">cfg_clk_default.h</text>
</a>
</g>
</g>
<!-- Node1&#45;&gt;Node5 -->
<g id="edge4" class="edge">
<title>Node1&#45;&gt;Node5</title>
<path fill="none" stroke="midnightblue" d="M226.43,-58.4C246.2,-48.44 271.35,-35.77 290.36,-26.18"/>
<polygon fill="midnightblue" stroke="midnightblue" points="292.07,-29.24 299.42,-21.62 288.91,-22.99 292.07,-29.24"/>
</g>
<!-- Node6 -->
<g id="node6" class="node">
<title>Node6</title>
<g id="a_node6"><a xlink:title=" ">
<polygon fill="none" stroke="#bfbfbf" points="395,-0.5 395,-21.5 528,-21.5 528,-0.5 395,-0.5"/>
<text text-anchor="middle" x="461.5" y="-7.9" font-family="Helvetica,sans-Serif" font-size="12.00">cfg_timer_default.h</text>
</a>
</g>
</g>
<!-- Node1&#45;&gt;Node6 -->
<g id="edge5" class="edge">
<title>Node1&#45;&gt;Node6</title>
<path fill="none" stroke="midnightblue" d="M262.91,-58.49C309.02,-47.69 368.83,-33.69 410.72,-23.89"/>
<polygon fill="midnightblue" stroke="midnightblue" points="411.76,-27.24 420.7,-21.55 410.16,-20.42 411.76,-27.24"/>
</g>
</g>
</svg>
