<?xml version="1.0" encoding="UTF-8" standalone="no"?>
<!DOCTYPE svg PUBLIC "-//W3C//DTD SVG 1.1//EN"
 "http://www.w3.org/Graphics/SVG/1.1/DTD/svg11.dtd">
<!-- Generated by graphviz version 2.43.0 (0)
 -->
<!-- Title: boards/meshme/include/gpio_params.h Pages: 1 -->
<svg width="337pt" height="159pt"
 viewBox="0.00 0.00 336.50 159.00" xmlns="http://www.w3.org/2000/svg" xmlns:xlink="http://www.w3.org/1999/xlink">
<g id="graph0" class="graph" transform="scale(1 1) rotate(0) translate(4 155)">
<title>boards/meshme/include/gpio_params.h</title>
<!-- Node1 -->
<g id="node1" class="node">
<title>Node1</title>
<g id="a_node1"><a xlink:title="Board specific configuration of direct mapped GPIOs.">
<polygon fill="#bfbfbf" stroke="black" points="84,-116.5 84,-150.5 244,-150.5 244,-116.5 84,-116.5"/>
<text text-anchor="start" x="92" y="-136.9" font-family="Helvetica,sans-Serif" font-size="12.00">boards/meshme/include</text>
<text text-anchor="middle" x="164" y="-123.9" font-family="Helvetica,sans-Serif" font-size="12.00">/gpio_params.h</text>
</a>
</g>
</g>
<!-- Node2 -->
<g id="node2" class="node">
<title>Node2</title>
<g id="a_node2"><a xlink:href="meshme_2include_2board_8h.html" target="_top" xlink:title="Board specific definitions for the Meshme board.">
<polygon fill="none" stroke="black" points="85,-58.5 85,-79.5 147,-79.5 147,-58.5 85,-58.5"/>
<text text-anchor="middle" x="116" y="-65.9" font-family="Helvetica,sans-Serif" font-size="12.00">board.h</text>
</a>
</g>
</g>
<!-- Node1&#45;&gt;Node2 -->
<g id="edge1" class="edge">
<title>Node1&#45;&gt;Node2</title>
<path fill="none" stroke="midnightblue" d="M151.64,-116.4C144.9,-107.63 136.55,-96.76 129.63,-87.75"/>
<polygon fill="midnightblue" stroke="midnightblue" points="132.39,-85.6 123.53,-79.8 126.84,-89.86 132.39,-85.6"/>
</g>
<!-- Node6 -->
<g id="node6" class="node">
<title>Node6</title>
<g id="a_node6"><a xlink:title=" ">
<polygon fill="none" stroke="#bfbfbf" points="165,-58.5 165,-79.5 259,-79.5 259,-58.5 165,-58.5"/>
<text text-anchor="middle" x="212" y="-65.9" font-family="Helvetica,sans-Serif" font-size="12.00">saul/periph.h</text>
</a>
</g>
</g>
<!-- Node1&#45;&gt;Node6 -->
<g id="edge5" class="edge">
<title>Node1&#45;&gt;Node6</title>
<path fill="none" stroke="midnightblue" d="M176.36,-116.4C183.1,-107.63 191.45,-96.76 198.37,-87.75"/>
<polygon fill="midnightblue" stroke="midnightblue" points="201.16,-89.86 204.47,-79.8 195.61,-85.6 201.16,-89.86"/>
</g>
<!-- Node3 -->
<g id="node3" class="node">
<title>Node3</title>
<g id="a_node3"><a xlink:title=" ">
<polygon fill="none" stroke="#bfbfbf" points="0,-0.5 0,-21.5 50,-21.5 50,-0.5 0,-0.5"/>
<text text-anchor="middle" x="25" y="-7.9" font-family="Helvetica,sans-Serif" font-size="12.00">cpu.h</text>
</a>
</g>
</g>
<!-- Node2&#45;&gt;Node3 -->
<g id="edge2" class="edge">
<title>Node2&#45;&gt;Node3</title>
<path fill="none" stroke="midnightblue" d="M100.15,-58.25C86.19,-49.65 65.63,-37 49.54,-27.1"/>
<polygon fill="midnightblue" stroke="midnightblue" points="51.02,-23.9 40.67,-21.64 47.35,-29.86 51.02,-23.9"/>
</g>
<!-- Node4 -->
<g id="node4" class="node">
<title>Node4</title>
<g id="a_node4"><a xlink:title=" ">
<polygon fill="none" stroke="#bfbfbf" points="68.5,-0.5 68.5,-21.5 163.5,-21.5 163.5,-0.5 68.5,-0.5"/>
<text text-anchor="middle" x="116" y="-7.9" font-family="Helvetica,sans-Serif" font-size="12.00">periph/gpio.h</text>
</a>
</g>
</g>
<!-- Node2&#45;&gt;Node4 -->
<g id="edge3" class="edge">
<title>Node2&#45;&gt;Node4</title>
<path fill="none" stroke="midnightblue" d="M116,-58.25C116,-50.94 116,-40.69 116,-31.7"/>
<polygon fill="midnightblue" stroke="midnightblue" points="119.5,-31.64 116,-21.64 112.5,-31.64 119.5,-31.64"/>
</g>
<!-- Node5 -->
<g id="node5" class="node">
<title>Node5</title>
<g id="a_node5"><a xlink:title=" ">
<polygon fill="none" stroke="#bfbfbf" points="181.5,-0.5 181.5,-21.5 328.5,-21.5 328.5,-0.5 181.5,-0.5"/>
<text text-anchor="middle" x="255" y="-7.9" font-family="Helvetica,sans-Serif" font-size="12.00">cc2538_eui_primary.h</text>
</a>
</g>
</g>
<!-- Node2&#45;&gt;Node5 -->
<g id="edge4" class="edge">
<title>Node2&#45;&gt;Node5</title>
<path fill="none" stroke="midnightblue" d="M139.89,-58.37C162.51,-49.26 196.65,-35.51 221.89,-25.34"/>
<polygon fill="midnightblue" stroke="midnightblue" points="223.45,-28.48 231.42,-21.5 220.83,-21.99 223.45,-28.48"/>
</g>
</g>
</svg>
