<?xml version="1.0" encoding="UTF-8" standalone="no"?>
<!DOCTYPE svg PUBLIC "-//W3C//DTD SVG 1.1//EN"
 "http://www.w3.org/Graphics/SVG/1.1/DTD/svg11.dtd">
<!-- Generated by graphviz version 2.43.0 (0)
 -->
<!-- Title: boards/meshme/include/board.h Pages: 1 -->
<svg width="334pt" height="114pt"
 viewBox="0.00 0.00 333.50 114.00" xmlns="http://www.w3.org/2000/svg" xmlns:xlink="http://www.w3.org/1999/xlink">
<g id="graph0" class="graph" transform="scale(1 1) rotate(0) translate(4 110)">
<title>boards/meshme/include/board.h</title>
<!-- Node1 -->
<g id="node1" class="node">
<title>Node1</title>
<g id="a_node1"><a xlink:title="Board specific definitions for the MeshMe 24G20P.">
<polygon fill="#bfbfbf" stroke="black" points="86,-71.5 86,-105.5 246,-105.5 246,-71.5 86,-71.5"/>
<text text-anchor="start" x="94" y="-91.9" font-family="Helvetica,sans-Serif" font-size="12.00">boards/meshme/include</text>
<text text-anchor="middle" x="166" y="-78.9" font-family="Helvetica,sans-Serif" font-size="12.00">/board.h</text>
</a>
</g>
</g>
<!-- Node2 -->
<g id="node2" class="node">
<title>Node2</title>
<g id="a_node2"><a xlink:href="meshme_2include_2gpio__params_8h.html" target="_top" xlink:title="Board specific configuration of direct mapped GPIOs.">
<polygon fill="none" stroke="black" points="0,-0.5 0,-34.5 160,-34.5 160,-0.5 0,-0.5"/>
<text text-anchor="start" x="8" y="-20.9" font-family="Helvetica,sans-Serif" font-size="12.00">boards/meshme/include</text>
<text text-anchor="middle" x="80" y="-7.9" font-family="Helvetica,sans-Serif" font-size="12.00">/gpio_params.h</text>
</a>
</g>
</g>
<!-- Node1&#45;&gt;Node2 -->
<g id="edge1" class="edge">
<title>Node1&#45;&gt;Node2</title>
<path fill="none" stroke="midnightblue" d="M138.23,-65.22C125.83,-55.27 111.49,-43.76 100.14,-34.66"/>
<polygon fill="midnightblue" stroke="midnightblue" points="136.06,-67.97 146.05,-71.5 140.44,-62.51 136.06,-67.97"/>
</g>
<!-- Node3 -->
<g id="node3" class="node">
<title>Node3</title>
<g id="a_node3"><a xlink:href="uniqueid_8h.html" target="_top" xlink:title="IPV6 address.">
<polygon fill="none" stroke="black" points="178.5,-0.5 178.5,-34.5 325.5,-34.5 325.5,-0.5 178.5,-0.5"/>
<text text-anchor="start" x="186.5" y="-20.9" font-family="Helvetica,sans-Serif" font-size="12.00">firmware/sys/uniqueid</text>
<text text-anchor="middle" x="252" y="-7.9" font-family="Helvetica,sans-Serif" font-size="12.00">/include/uniqueid.h</text>
</a>
</g>
</g>
<!-- Node1&#45;&gt;Node3 -->
<g id="edge2" class="edge">
<title>Node1&#45;&gt;Node3</title>
<path fill="none" stroke="midnightblue" d="M193.77,-65.22C206.17,-55.27 220.51,-43.76 231.86,-34.66"/>
<polygon fill="midnightblue" stroke="midnightblue" points="191.56,-62.51 185.95,-71.5 195.94,-67.97 191.56,-62.51"/>
</g>
</g>
</svg>
