<?xml version="1.0" encoding="UTF-8" standalone="no"?>
<!DOCTYPE svg PUBLIC "-//W3C//DTD SVG 1.1//EN"
 "http://www.w3.org/Graphics/SVG/1.1/DTD/svg11.dtd">
<!-- Generated by graphviz version 2.43.0 (0)
 -->
<!-- Title: boards/meshme/include/board.h Pages: 1 -->
<svg width="337pt" height="101pt"
 viewBox="0.00 0.00 336.50 101.00" xmlns="http://www.w3.org/2000/svg" xmlns:xlink="http://www.w3.org/1999/xlink">
<g id="graph0" class="graph" transform="scale(1 1) rotate(0) translate(4 97)">
<title>boards/meshme/include/board.h</title>
<!-- Node1 -->
<g id="node1" class="node">
<title>Node1</title>
<g id="a_node1"><a xlink:title="Board specific definitions for the Meshme board.">
<polygon fill="#bfbfbf" stroke="black" points="36,-58.5 36,-92.5 196,-92.5 196,-58.5 36,-58.5"/>
<text text-anchor="start" x="44" y="-78.9" font-family="Helvetica,sans-Serif" font-size="12.00">boards/meshme/include</text>
<text text-anchor="middle" x="116" y="-65.9" font-family="Helvetica,sans-Serif" font-size="12.00">/board.h</text>
</a>
</g>
</g>
<!-- Node2 -->
<g id="node2" class="node">
<title>Node2</title>
<g id="a_node2"><a xlink:title=" ">
<polygon fill="none" stroke="#bfbfbf" points="0,-0.5 0,-21.5 50,-21.5 50,-0.5 0,-0.5"/>
<text text-anchor="middle" x="25" y="-7.9" font-family="Helvetica,sans-Serif" font-size="12.00">cpu.h</text>
</a>
</g>
</g>
<!-- Node1&#45;&gt;Node2 -->
<g id="edge1" class="edge">
<title>Node1&#45;&gt;Node2</title>
<path fill="none" stroke="midnightblue" d="M92.57,-58.4C78.66,-48.85 61.11,-36.8 47.39,-27.38"/>
<polygon fill="midnightblue" stroke="midnightblue" points="49.23,-24.39 39,-21.62 45.26,-30.16 49.23,-24.39"/>
</g>
<!-- Node3 -->
<g id="node3" class="node">
<title>Node3</title>
<g id="a_node3"><a xlink:title=" ">
<polygon fill="none" stroke="#bfbfbf" points="68.5,-0.5 68.5,-21.5 163.5,-21.5 163.5,-0.5 68.5,-0.5"/>
<text text-anchor="middle" x="116" y="-7.9" font-family="Helvetica,sans-Serif" font-size="12.00">periph/gpio.h</text>
</a>
</g>
</g>
<!-- Node1&#45;&gt;Node3 -->
<g id="edge2" class="edge">
<title>Node1&#45;&gt;Node3</title>
<path fill="none" stroke="midnightblue" d="M116,-58.4C116,-50.36 116,-40.54 116,-32.01"/>
<polygon fill="midnightblue" stroke="midnightblue" points="119.5,-31.8 116,-21.8 112.5,-31.8 119.5,-31.8"/>
</g>
<!-- Node4 -->
<g id="node4" class="node">
<title>Node4</title>
<g id="a_node4"><a xlink:title=" ">
<polygon fill="none" stroke="#bfbfbf" points="181.5,-0.5 181.5,-21.5 328.5,-21.5 328.5,-0.5 181.5,-0.5"/>
<text text-anchor="middle" x="255" y="-7.9" font-family="Helvetica,sans-Serif" font-size="12.00">cc2538_eui_primary.h</text>
</a>
</g>
</g>
<!-- Node1&#45;&gt;Node4 -->
<g id="edge3" class="edge">
<title>Node1&#45;&gt;Node4</title>
<path fill="none" stroke="midnightblue" d="M151.8,-58.4C174.26,-48.31 202.92,-35.42 224.33,-25.79"/>
<polygon fill="midnightblue" stroke="midnightblue" points="225.93,-28.91 233.61,-21.62 223.06,-22.53 225.93,-28.91"/>
</g>
</g>
</svg>
