<?xml version="1.0" encoding="UTF-8" standalone="no"?>
<!DOCTYPE svg PUBLIC "-//W3C//DTD SVG 1.1//EN"
 "http://www.w3.org/Graphics/SVG/1.1/DTD/svg11.dtd">
<!-- Generated by graphviz version 2.43.0 (0)
 -->
<!-- Title: firmware/network/net_tools/include/net_tools.h Pages: 1 -->
<svg width="394pt" height="101pt"
 viewBox="0.00 0.00 393.50 101.00" xmlns="http://www.w3.org/2000/svg" xmlns:xlink="http://www.w3.org/1999/xlink">
<g id="graph0" class="graph" transform="scale(1 1) rotate(0) translate(4 97)">
<title>firmware/network/net_tools/include/net_tools.h</title>
<!-- Node1 -->
<g id="node1" class="node">
<title>Node1</title>
<g id="a_node1"><a xlink:title=" ">
<polygon fill="#bfbfbf" stroke="black" points="72.5,-58.5 72.5,-92.5 239.5,-92.5 239.5,-58.5 72.5,-58.5"/>
<text text-anchor="start" x="80.5" y="-78.9" font-family="Helvetica,sans-Serif" font-size="12.00">firmware/network/net</text>
<text text-anchor="middle" x="156" y="-65.9" font-family="Helvetica,sans-Serif" font-size="12.00">_tools/include/net_tools.h</text>
</a>
</g>
</g>
<!-- Node2 -->
<g id="node2" class="node">
<title>Node2</title>
<g id="a_node2"><a xlink:title=" ">
<polygon fill="none" stroke="#bfbfbf" points="0,-0.5 0,-21.5 56,-21.5 56,-0.5 0,-0.5"/>
<text text-anchor="middle" x="28" y="-7.9" font-family="Helvetica,sans-Serif" font-size="12.00">stdio.h</text>
</a>
</g>
</g>
<!-- Node1&#45;&gt;Node2 -->
<g id="edge1" class="edge">
<title>Node1&#45;&gt;Node2</title>
<path fill="none" stroke="midnightblue" d="M123.04,-58.4C102.54,-48.4 76.44,-35.65 56.78,-26.05"/>
<polygon fill="midnightblue" stroke="midnightblue" points="58.22,-22.86 47.7,-21.62 55.15,-29.15 58.22,-22.86"/>
</g>
<!-- Node3 -->
<g id="node3" class="node">
<title>Node3</title>
<g id="a_node3"><a xlink:title=" ">
<polygon fill="none" stroke="#bfbfbf" points="74.5,-0.5 74.5,-21.5 135.5,-21.5 135.5,-0.5 74.5,-0.5"/>
<text text-anchor="middle" x="105" y="-7.9" font-family="Helvetica,sans-Serif" font-size="12.00">stdint.h</text>
</a>
</g>
</g>
<!-- Node1&#45;&gt;Node3 -->
<g id="edge2" class="edge">
<title>Node1&#45;&gt;Node3</title>
<path fill="none" stroke="midnightblue" d="M142.87,-58.4C135.71,-49.63 126.84,-38.76 119.48,-29.75"/>
<polygon fill="midnightblue" stroke="midnightblue" points="122.03,-27.34 113,-21.8 116.61,-31.76 122.03,-27.34"/>
</g>
<!-- Node4 -->
<g id="node4" class="node">
<title>Node4</title>
<g id="a_node4"><a xlink:title=" ">
<polygon fill="none" stroke="#bfbfbf" points="154,-0.5 154,-21.5 260,-21.5 260,-0.5 154,-0.5"/>
<text text-anchor="middle" x="207" y="-7.9" font-family="Helvetica,sans-Serif" font-size="12.00">net/ipv6/addr.h</text>
</a>
</g>
</g>
<!-- Node1&#45;&gt;Node4 -->
<g id="edge3" class="edge">
<title>Node1&#45;&gt;Node4</title>
<path fill="none" stroke="midnightblue" d="M169.13,-58.4C176.29,-49.63 185.16,-38.76 192.52,-29.75"/>
<polygon fill="midnightblue" stroke="midnightblue" points="195.39,-31.76 199,-21.8 189.97,-27.34 195.39,-31.76"/>
</g>
<!-- Node5 -->
<g id="node5" class="node">
<title>Node5</title>
<g id="a_node5"><a xlink:title=" ">
<polygon fill="none" stroke="#bfbfbf" points="278.5,-0.5 278.5,-21.5 385.5,-21.5 385.5,-0.5 278.5,-0.5"/>
<text text-anchor="middle" x="332" y="-7.9" font-family="Helvetica,sans-Serif" font-size="12.00">net/gnrc/netif.h</text>
</a>
</g>
</g>
<!-- Node1&#45;&gt;Node5 -->
<g id="edge4" class="edge">
<title>Node1&#45;&gt;Node5</title>
<path fill="none" stroke="midnightblue" d="M201.32,-58.4C230.62,-48 268.25,-34.64 295.6,-24.93"/>
<polygon fill="midnightblue" stroke="midnightblue" points="296.92,-28.17 305.18,-21.53 294.58,-21.57 296.92,-28.17"/>
</g>
</g>
</svg>
