<?xml version="1.0" encoding="UTF-8" standalone="no"?>
<!DOCTYPE svg PUBLIC "-//W3C//DTD SVG 1.1//EN"
 "http://www.w3.org/Graphics/SVG/1.1/DTD/svg11.dtd">
<!-- Generated by graphviz version 2.43.0 (0)
 -->
<!-- Title: dist/tools/chamoc/include/nib.h Pages: 1 -->
<svg width="251pt" height="101pt"
 viewBox="0.00 0.00 250.50 101.00" xmlns="http://www.w3.org/2000/svg" xmlns:xlink="http://www.w3.org/1999/xlink">
<g id="graph0" class="graph" transform="scale(1 1) rotate(0) translate(4 97)">
<title>dist/tools/chamoc/include/nib.h</title>
<!-- Node1 -->
<g id="node1" class="node">
<title>Node1</title>
<g id="a_node1"><a xlink:title="Provide modes to generate an nib_add or nib_del request and send it to the server.">
<polygon fill="#bfbfbf" stroke="black" points="21,-58.5 21,-92.5 189,-92.5 189,-58.5 21,-58.5"/>
<text text-anchor="start" x="29" y="-78.9" font-family="Helvetica,sans-Serif" font-size="12.00">dist/tools/chamoc/include</text>
<text text-anchor="middle" x="105" y="-65.9" font-family="Helvetica,sans-Serif" font-size="12.00">/nib.h</text>
</a>
</g>
</g>
<!-- Node2 -->
<g id="node2" class="node">
<title>Node2</title>
<g id="a_node2"><a xlink:title=" ">
<polygon fill="none" stroke="#bfbfbf" points="0,-0.5 0,-21.5 56,-21.5 56,-0.5 0,-0.5"/>
<text text-anchor="middle" x="28" y="-7.9" font-family="Helvetica,sans-Serif" font-size="12.00">stdio.h</text>
</a>
</g>
</g>
<!-- Node1&#45;&gt;Node2 -->
<g id="edge1" class="edge">
<title>Node1&#45;&gt;Node2</title>
<path fill="none" stroke="midnightblue" d="M85.17,-58.4C73.81,-49.18 59.58,-37.63 48.16,-28.37"/>
<polygon fill="midnightblue" stroke="midnightblue" points="50.04,-25.38 40.07,-21.8 45.63,-30.82 50.04,-25.38"/>
</g>
<!-- Node3 -->
<g id="node3" class="node">
<title>Node3</title>
<g id="a_node3"><a xlink:title=" ">
<polygon fill="none" stroke="#bfbfbf" points="74.5,-0.5 74.5,-21.5 135.5,-21.5 135.5,-0.5 74.5,-0.5"/>
<text text-anchor="middle" x="105" y="-7.9" font-family="Helvetica,sans-Serif" font-size="12.00">stdint.h</text>
</a>
</g>
</g>
<!-- Node1&#45;&gt;Node3 -->
<g id="edge2" class="edge">
<title>Node1&#45;&gt;Node3</title>
<path fill="none" stroke="midnightblue" d="M105,-58.4C105,-50.36 105,-40.54 105,-32.01"/>
<polygon fill="midnightblue" stroke="midnightblue" points="108.5,-31.8 105,-21.8 101.5,-31.8 108.5,-31.8"/>
</g>
<!-- Node4 -->
<g id="node4" class="node">
<title>Node4</title>
<g id="a_node4"><a xlink:title=" ">
<polygon fill="none" stroke="#bfbfbf" points="153.5,-0.5 153.5,-21.5 242.5,-21.5 242.5,-0.5 153.5,-0.5"/>
<text text-anchor="middle" x="198" y="-7.9" font-family="Helvetica,sans-Serif" font-size="12.00">sys/socket.h</text>
</a>
</g>
</g>
<!-- Node1&#45;&gt;Node4 -->
<g id="edge3" class="edge">
<title>Node1&#45;&gt;Node4</title>
<path fill="none" stroke="midnightblue" d="M128.95,-58.4C143.17,-48.85 161.09,-36.8 175.12,-27.38"/>
<polygon fill="midnightblue" stroke="midnightblue" points="177.34,-30.1 183.69,-21.62 173.44,-24.29 177.34,-30.1"/>
</g>
</g>
</svg>
