<?xml version="1.0" encoding="UTF-8" standalone="no"?>
<!DOCTYPE svg PUBLIC "-//W3C//DTD SVG 1.1//EN"
 "http://www.w3.org/Graphics/SVG/1.1/DTD/svg11.dtd">
<!-- Generated by graphviz version 2.43.0 (0)
 -->
<!-- Title: wifi&#45;subsys/components/protocols/src/protocol_sntp.h Pages: 1 -->
<svg width="167pt" height="114pt"
 viewBox="0.00 0.00 167.00 114.00" xmlns="http://www.w3.org/2000/svg" xmlns:xlink="http://www.w3.org/1999/xlink">
<g id="graph0" class="graph" transform="scale(1 1) rotate(0) translate(4 110)">
<title>wifi&#45;subsys/components/protocols/src/protocol_sntp.h</title>
<!-- Node1 -->
<g id="node1" class="node">
<title>Node1</title>
<g id="a_node1"><a xlink:title="sntp (Simple Network Time Protocol)">
<polygon fill="#bfbfbf" stroke="black" points="0,-58.5 0,-105.5 159,-105.5 159,-58.5 0,-58.5"/>
<text text-anchor="start" x="8" y="-91.9" font-family="Helvetica,sans-Serif" font-size="12.00">wifi&#45;subsys/components</text>
<text text-anchor="start" x="8" y="-78.9" font-family="Helvetica,sans-Serif" font-size="12.00">/protocols/src/protocol</text>
<text text-anchor="middle" x="79.5" y="-65.9" font-family="Helvetica,sans-Serif" font-size="12.00">_sntp.h</text>
</a>
</g>
</g>
<!-- Node2 -->
<g id="node2" class="node">
<title>Node2</title>
<g id="a_node2"><a xlink:title=" ">
<polygon fill="none" stroke="#bfbfbf" points="12,-0.5 12,-21.5 67,-21.5 67,-0.5 12,-0.5"/>
<text text-anchor="middle" x="39.5" y="-7.9" font-family="Helvetica,sans-Serif" font-size="12.00">time.h</text>
</a>
</g>
</g>
<!-- Node1&#45;&gt;Node2 -->
<g id="edge1" class="edge">
<title>Node1&#45;&gt;Node2</title>
<path fill="none" stroke="midnightblue" d="M66.4,-58.41C61.17,-49.38 55.22,-39.12 50.25,-30.54"/>
<polygon fill="midnightblue" stroke="midnightblue" points="53.19,-28.63 45.14,-21.74 47.13,-32.14 53.19,-28.63"/>
</g>
<!-- Node3 -->
<g id="node3" class="node">
<title>Node3</title>
<g id="a_node3"><a xlink:title=" ">
<polygon fill="none" stroke="#bfbfbf" points="85,-0.5 85,-21.5 156,-21.5 156,-0.5 85,-0.5"/>
<text text-anchor="middle" x="120.5" y="-7.9" font-family="Helvetica,sans-Serif" font-size="12.00">esp_err.h</text>
</a>
</g>
</g>
<!-- Node1&#45;&gt;Node3 -->
<g id="edge2" class="edge">
<title>Node1&#45;&gt;Node3</title>
<path fill="none" stroke="midnightblue" d="M92.92,-58.41C98.29,-49.38 104.38,-39.12 109.48,-30.54"/>
<polygon fill="midnightblue" stroke="midnightblue" points="112.62,-32.12 114.72,-21.74 106.6,-28.54 112.62,-32.12"/>
</g>
</g>
</svg>
