<?xml version="1.0" encoding="UTF-8" standalone="no"?>
<!DOCTYPE svg PUBLIC "-//W3C//DTD SVG 1.1//EN"
 "http://www.w3.org/Graphics/SVG/1.1/DTD/svg11.dtd">
<!-- Generated by graphviz version 2.43.0 (0)
 -->
<!-- Title: firmware/network/radio/include/radio.h Pages: 1 -->
<svg width="321pt" height="159pt"
 viewBox="0.00 0.00 320.50 159.00" xmlns="http://www.w3.org/2000/svg" xmlns:xlink="http://www.w3.org/1999/xlink">
<g id="graph0" class="graph" transform="scale(1 1) rotate(0) translate(4 155)">
<title>firmware/network/radio/include/radio.h</title>
<!-- Node1 -->
<g id="node1" class="node">
<title>Node1</title>
<g id="a_node1"><a xlink:title="this module content all functions of radio">
<polygon fill="#bfbfbf" stroke="black" points="70,-116.5 70,-150.5 227,-150.5 227,-116.5 70,-116.5"/>
<text text-anchor="start" x="78" y="-136.9" font-family="Helvetica,sans-Serif" font-size="12.00">firmware/network/radio</text>
<text text-anchor="middle" x="148.5" y="-123.9" font-family="Helvetica,sans-Serif" font-size="12.00">/include/radio.h</text>
</a>
</g>
</g>
<!-- Node2 -->
<g id="node2" class="node">
<title>Node2</title>
<g id="a_node2"><a xlink:title=" ">
<polygon fill="none" stroke="#bfbfbf" points="0,-0.5 0,-21.5 77,-21.5 77,-0.5 0,-0.5"/>
<text text-anchor="middle" x="38.5" y="-7.9" font-family="Helvetica,sans-Serif" font-size="12.00">net/gnrc.h</text>
</a>
</g>
</g>
<!-- Node1&#45;&gt;Node2 -->
<g id="edge1" class="edge">
<title>Node1&#45;&gt;Node2</title>
<path fill="none" stroke="midnightblue" d="M125.8,-116.44C112.89,-106.72 96.89,-93.59 84.5,-80 70.61,-64.77 57.73,-45.04 49.16,-30.76"/>
<polygon fill="midnightblue" stroke="midnightblue" points="52.02,-28.73 43.95,-21.87 45.98,-32.27 52.02,-28.73"/>
</g>
<!-- Node3 -->
<g id="node3" class="node">
<title>Node3</title>
<g id="a_node3"><a xlink:title=" ">
<polygon fill="none" stroke="#bfbfbf" points="220.5,-0.5 220.5,-21.5 312.5,-21.5 312.5,-0.5 220.5,-0.5"/>
<text text-anchor="middle" x="266.5" y="-7.9" font-family="Helvetica,sans-Serif" font-size="12.00">net/netdev.h</text>
</a>
</g>
</g>
<!-- Node1&#45;&gt;Node3 -->
<g id="edge2" class="edge">
<title>Node1&#45;&gt;Node3</title>
<path fill="none" stroke="midnightblue" d="M170.52,-116.31C183.35,-106.44 199.5,-93.21 212.5,-80 227.94,-64.31 243.34,-44.4 253.71,-30.18"/>
<polygon fill="midnightblue" stroke="midnightblue" points="256.77,-31.93 259.76,-21.77 251.08,-27.85 256.77,-31.93"/>
</g>
<!-- Node4 -->
<g id="node4" class="node">
<title>Node4</title>
<g id="a_node4"><a xlink:href="radio__params_8h.html" target="_top" xlink:title="this module content all params to set the radio">
<polygon fill="none" stroke="black" points="93.5,-58.5 93.5,-79.5 203.5,-79.5 203.5,-58.5 93.5,-58.5"/>
<text text-anchor="middle" x="148.5" y="-65.9" font-family="Helvetica,sans-Serif" font-size="12.00">radio_params.h</text>
</a>
</g>
</g>
<!-- Node1&#45;&gt;Node4 -->
<g id="edge3" class="edge">
<title>Node1&#45;&gt;Node4</title>
<path fill="none" stroke="midnightblue" d="M148.5,-116.4C148.5,-108.36 148.5,-98.54 148.5,-90.01"/>
<polygon fill="midnightblue" stroke="midnightblue" points="152,-89.8 148.5,-79.8 145,-89.8 152,-89.8"/>
</g>
<!-- Node4&#45;&gt;Node2 -->
<g id="edge4" class="edge">
<title>Node4&#45;&gt;Node2</title>
<path fill="none" stroke="midnightblue" d="M129.34,-58.25C111.99,-49.41 86.21,-36.29 66.54,-26.28"/>
<polygon fill="midnightblue" stroke="midnightblue" points="67.94,-23.06 57.44,-21.64 64.76,-29.3 67.94,-23.06"/>
</g>
<!-- Node4&#45;&gt;Node3 -->
<g id="edge5" class="edge">
<title>Node4&#45;&gt;Node3</title>
<path fill="none" stroke="midnightblue" d="M168.78,-58.37C187.64,-49.42 215.95,-35.99 237.25,-25.88"/>
<polygon fill="midnightblue" stroke="midnightblue" points="238.95,-28.95 246.48,-21.5 235.94,-22.63 238.95,-28.95"/>
</g>
<!-- Node5 -->
<g id="node5" class="node">
<title>Node5</title>
<g id="a_node5"><a xlink:title=" ">
<polygon fill="none" stroke="#bfbfbf" points="95,-0.5 95,-21.5 202,-21.5 202,-0.5 95,-0.5"/>
<text text-anchor="middle" x="148.5" y="-7.9" font-family="Helvetica,sans-Serif" font-size="12.00">net/gnrc/netif.h</text>
</a>
</g>
</g>
<!-- Node4&#45;&gt;Node5 -->
<g id="edge6" class="edge">
<title>Node4&#45;&gt;Node5</title>
<path fill="none" stroke="midnightblue" d="M148.5,-58.25C148.5,-50.94 148.5,-40.69 148.5,-31.7"/>
<polygon fill="midnightblue" stroke="midnightblue" points="152,-31.64 148.5,-21.64 145,-31.64 152,-31.64"/>
</g>
</g>
</svg>
