<?xml version="1.0" encoding="UTF-8" standalone="no"?>
<!DOCTYPE svg PUBLIC "-//W3C//DTD SVG 1.1//EN"
 "http://www.w3.org/Graphics/SVG/1.1/DTD/svg11.dtd">
<!-- Generated by graphviz version 2.43.0 (0)
 -->
<!-- Title: firmware/network/radio/include/radio.h Pages: 1 -->
<svg width="196pt" height="101pt"
 viewBox="0.00 0.00 195.50 101.00" xmlns="http://www.w3.org/2000/svg" xmlns:xlink="http://www.w3.org/1999/xlink">
<g id="graph0" class="graph" transform="scale(1 1) rotate(0) translate(4 97)">
<title>firmware/network/radio/include/radio.h</title>
<!-- Node1 -->
<g id="node1" class="node">
<title>Node1</title>
<g id="a_node1"><a xlink:title="this module content all functions of radio">
<polygon fill="#bfbfbf" stroke="black" points="11,-58.5 11,-92.5 168,-92.5 168,-58.5 11,-58.5"/>
<text text-anchor="start" x="19" y="-78.9" font-family="Helvetica,sans-Serif" font-size="12.00">firmware/network/radio</text>
<text text-anchor="middle" x="89.5" y="-65.9" font-family="Helvetica,sans-Serif" font-size="12.00">/include/radio.h</text>
</a>
</g>
</g>
<!-- Node2 -->
<g id="node2" class="node">
<title>Node2</title>
<g id="a_node2"><a xlink:title=" ">
<polygon fill="none" stroke="#bfbfbf" points="0,-0.5 0,-21.5 77,-21.5 77,-0.5 0,-0.5"/>
<text text-anchor="middle" x="38.5" y="-7.9" font-family="Helvetica,sans-Serif" font-size="12.00">net/gnrc.h</text>
</a>
</g>
</g>
<!-- Node1&#45;&gt;Node2 -->
<g id="edge1" class="edge">
<title>Node1&#45;&gt;Node2</title>
<path fill="none" stroke="midnightblue" d="M76.37,-58.4C69.21,-49.63 60.34,-38.76 52.98,-29.75"/>
<polygon fill="midnightblue" stroke="midnightblue" points="55.53,-27.34 46.5,-21.8 50.11,-31.76 55.53,-27.34"/>
</g>
<!-- Node3 -->
<g id="node3" class="node">
<title>Node3</title>
<g id="a_node3"><a xlink:title=" ">
<polygon fill="none" stroke="#bfbfbf" points="95.5,-0.5 95.5,-21.5 187.5,-21.5 187.5,-0.5 95.5,-0.5"/>
<text text-anchor="middle" x="141.5" y="-7.9" font-family="Helvetica,sans-Serif" font-size="12.00">net/netdev.h</text>
</a>
</g>
</g>
<!-- Node1&#45;&gt;Node3 -->
<g id="edge2" class="edge">
<title>Node1&#45;&gt;Node3</title>
<path fill="none" stroke="midnightblue" d="M102.89,-58.4C110.19,-49.63 119.23,-38.76 126.74,-29.75"/>
<polygon fill="midnightblue" stroke="midnightblue" points="129.64,-31.73 133.35,-21.8 124.26,-27.25 129.64,-31.73"/>
</g>
</g>
</svg>
