<?xml version="1.0" encoding="UTF-8" standalone="no"?>
<!DOCTYPE svg PUBLIC "-//W3C//DTD SVG 1.1//EN"
 "http://www.w3.org/Graphics/SVG/1.1/DTD/svg11.dtd">
<!-- Generated by graphviz version 2.43.0 (0)
 -->
<!-- Title: firmware/network/radio/include/radio_params.h Pages: 1 -->
<svg width="321pt" height="101pt"
 viewBox="0.00 0.00 321.00 101.00" xmlns="http://www.w3.org/2000/svg" xmlns:xlink="http://www.w3.org/1999/xlink">
<g id="graph0" class="graph" transform="scale(1 1) rotate(0) translate(4 97)">
<title>firmware/network/radio/include/radio_params.h</title>
<!-- Node1 -->
<g id="node1" class="node">
<title>Node1</title>
<g id="a_node1"><a xlink:title="this module content all params to set the radio">
<polygon fill="#bfbfbf" stroke="black" points="61,-58.5 61,-92.5 222,-92.5 222,-58.5 61,-58.5"/>
<text text-anchor="start" x="69" y="-78.9" font-family="Helvetica,sans-Serif" font-size="12.00">firmware/network/radio</text>
<text text-anchor="middle" x="141.5" y="-65.9" font-family="Helvetica,sans-Serif" font-size="12.00">/include/radio_params.h</text>
</a>
</g>
</g>
<!-- Node2 -->
<g id="node2" class="node">
<title>Node2</title>
<g id="a_node2"><a xlink:title=" ">
<polygon fill="none" stroke="#bfbfbf" points="0,-0.5 0,-21.5 77,-21.5 77,-0.5 0,-0.5"/>
<text text-anchor="middle" x="38.5" y="-7.9" font-family="Helvetica,sans-Serif" font-size="12.00">net/gnrc.h</text>
</a>
</g>
</g>
<!-- Node1&#45;&gt;Node2 -->
<g id="edge1" class="edge">
<title>Node1&#45;&gt;Node2</title>
<path fill="none" stroke="midnightblue" d="M114.97,-58.4C98.93,-48.67 78.62,-36.34 62.96,-26.84"/>
<polygon fill="midnightblue" stroke="midnightblue" points="64.71,-23.81 54.35,-21.62 61.08,-29.8 64.71,-23.81"/>
</g>
<!-- Node3 -->
<g id="node3" class="node">
<title>Node3</title>
<g id="a_node3"><a xlink:title=" ">
<polygon fill="none" stroke="#bfbfbf" points="95.5,-0.5 95.5,-21.5 187.5,-21.5 187.5,-0.5 95.5,-0.5"/>
<text text-anchor="middle" x="141.5" y="-7.9" font-family="Helvetica,sans-Serif" font-size="12.00">net/netdev.h</text>
</a>
</g>
</g>
<!-- Node1&#45;&gt;Node3 -->
<g id="edge2" class="edge">
<title>Node1&#45;&gt;Node3</title>
<path fill="none" stroke="midnightblue" d="M141.5,-58.4C141.5,-50.36 141.5,-40.54 141.5,-32.01"/>
<polygon fill="midnightblue" stroke="midnightblue" points="145,-31.8 141.5,-21.8 138,-31.8 145,-31.8"/>
</g>
<!-- Node4 -->
<g id="node4" class="node">
<title>Node4</title>
<g id="a_node4"><a xlink:title=" ">
<polygon fill="none" stroke="#bfbfbf" points="206,-0.5 206,-21.5 313,-21.5 313,-0.5 206,-0.5"/>
<text text-anchor="middle" x="259.5" y="-7.9" font-family="Helvetica,sans-Serif" font-size="12.00">net/gnrc/netif.h</text>
</a>
</g>
</g>
<!-- Node1&#45;&gt;Node4 -->
<g id="edge3" class="edge">
<title>Node1&#45;&gt;Node4</title>
<path fill="none" stroke="midnightblue" d="M171.89,-58.4C190.61,-48.49 214.41,-35.88 232.48,-26.31"/>
<polygon fill="midnightblue" stroke="midnightblue" points="234.14,-29.39 241.34,-21.62 230.87,-23.2 234.14,-29.39"/>
</g>
</g>
</svg>
