<?xml version="1.0" encoding="UTF-8" standalone="no"?>
<!DOCTYPE svg PUBLIC "-//W3C//DTD SVG 1.1//EN"
 "http://www.w3.org/Graphics/SVG/1.1/DTD/svg11.dtd">
<!-- Generated by graphviz version 2.43.0 (0)
 -->
<!-- Title: firmware/sys/network/include/uniqueid.h Pages: 1 -->
<svg width="742pt" height="185pt"
 viewBox="0.00 0.00 741.50 185.00" xmlns="http://www.w3.org/2000/svg" xmlns:xlink="http://www.w3.org/1999/xlink">
<g id="graph0" class="graph" transform="scale(1 1) rotate(0) translate(4 181)">
<title>firmware/sys/network/include/uniqueid.h</title>
<!-- Node1 -->
<g id="node1" class="node">
<title>Node1</title>
<g id="a_node1"><a xlink:title="IPV6 address.">
<polygon fill="#bfbfbf" stroke="black" points="373,-142.5 373,-176.5 518,-176.5 518,-142.5 373,-142.5"/>
<text text-anchor="start" x="381" y="-162.9" font-family="Helvetica,sans-Serif" font-size="12.00">firmware/sys/network</text>
<text text-anchor="middle" x="445.5" y="-149.9" font-family="Helvetica,sans-Serif" font-size="12.00">/include/uniqueid.h</text>
</a>
</g>
</g>
<!-- Node2 -->
<g id="node2" class="node">
<title>Node2</title>
<g id="a_node2"><a xlink:href="m4a-24g_2include_2board_8h.html" target="_top" xlink:title="Board specific definitions for the M4A&#45;24G board.">
<polygon fill="none" stroke="black" points="0,-71.5 0,-105.5 161,-105.5 161,-71.5 0,-71.5"/>
<text text-anchor="start" x="8" y="-91.9" font-family="Helvetica,sans-Serif" font-size="12.00">boards/m4a&#45;24g/include</text>
<text text-anchor="middle" x="80.5" y="-78.9" font-family="Helvetica,sans-Serif" font-size="12.00">/board.h</text>
</a>
</g>
</g>
<!-- Node1&#45;&gt;Node2 -->
<g id="edge1" class="edge">
<title>Node1&#45;&gt;Node2</title>
<path fill="none" stroke="midnightblue" d="M363.07,-142.92C302.68,-131.5 221.13,-116.09 161.16,-104.75"/>
<polygon fill="midnightblue" stroke="midnightblue" points="362.48,-146.37 372.95,-144.79 363.78,-139.49 362.48,-146.37"/>
</g>
<!-- Node4 -->
<g id="node4" class="node">
<title>Node4</title>
<g id="a_node4"><a xlink:href="m4a-mb_2include_2board_8h.html" target="_top" xlink:title="Board specific definitions for the M4A&#45;MB.">
<polygon fill="none" stroke="black" points="179.5,-71.5 179.5,-105.5 337.5,-105.5 337.5,-71.5 179.5,-71.5"/>
<text text-anchor="start" x="187.5" y="-91.9" font-family="Helvetica,sans-Serif" font-size="12.00">boards/m4a&#45;mb/include</text>
<text text-anchor="middle" x="258.5" y="-78.9" font-family="Helvetica,sans-Serif" font-size="12.00">/board.h</text>
</a>
</g>
</g>
<!-- Node1&#45;&gt;Node4 -->
<g id="edge3" class="edge">
<title>Node1&#45;&gt;Node4</title>
<path fill="none" stroke="midnightblue" d="M392.67,-139.01C364.01,-128.43 329.02,-115.52 301.96,-105.54"/>
<polygon fill="midnightblue" stroke="midnightblue" points="391.54,-142.32 402.13,-142.5 393.96,-135.75 391.54,-142.32"/>
</g>
<!-- Node6 -->
<g id="node6" class="node">
<title>Node6</title>
<g id="a_node6"><a xlink:href="m4a-wroom_2include_2board_8h.html" target="_top" xlink:title="Board specific definitions for m4a&#45;wroom board.">
<polygon fill="none" stroke="black" points="355.5,-71.5 355.5,-105.5 535.5,-105.5 535.5,-71.5 355.5,-71.5"/>
<text text-anchor="start" x="363.5" y="-91.9" font-family="Helvetica,sans-Serif" font-size="12.00">boards/m4a&#45;wroom/include</text>
<text text-anchor="middle" x="445.5" y="-78.9" font-family="Helvetica,sans-Serif" font-size="12.00">/board.h</text>
</a>
</g>
</g>
<!-- Node1&#45;&gt;Node6 -->
<g id="edge5" class="edge">
<title>Node1&#45;&gt;Node6</title>
<path fill="none" stroke="midnightblue" d="M445.5,-132.25C445.5,-123.39 445.5,-113.77 445.5,-105.9"/>
<polygon fill="midnightblue" stroke="midnightblue" points="442,-132.5 445.5,-142.5 449,-132.5 442,-132.5"/>
</g>
<!-- Node8 -->
<g id="node8" class="node">
<title>Node8</title>
<g id="a_node8"><a xlink:href="m4a-wrover_2include_2board_8h.html" target="_top" xlink:title="Board specific definitions for Espressif ESP&#45;WROVER&#45;KIT V3.">
<polygon fill="none" stroke="black" points="553.5,-71.5 553.5,-105.5 733.5,-105.5 733.5,-71.5 553.5,-71.5"/>
<text text-anchor="start" x="561.5" y="-91.9" font-family="Helvetica,sans-Serif" font-size="12.00">boards/m4a&#45;wrover/include</text>
<text text-anchor="middle" x="643.5" y="-78.9" font-family="Helvetica,sans-Serif" font-size="12.00">/board.h</text>
</a>
</g>
</g>
<!-- Node1&#45;&gt;Node8 -->
<g id="edge7" class="edge">
<title>Node1&#45;&gt;Node8</title>
<path fill="none" stroke="midnightblue" d="M495.29,-139.01C524.73,-128.43 561.89,-115.52 591.68,-105.54"/>
<polygon fill="midnightblue" stroke="midnightblue" points="493.84,-135.81 485.62,-142.5 496.22,-142.39 493.84,-135.81"/>
</g>
<!-- Node3 -->
<g id="node3" class="node">
<title>Node3</title>
<g id="a_node3"><a xlink:href="m4a-24g_2include_2gpio__params_8h.html" target="_top" xlink:title="Board specific configuration of direct mapped GPIOs.">
<polygon fill="none" stroke="black" points="0,-0.5 0,-34.5 161,-34.5 161,-0.5 0,-0.5"/>
<text text-anchor="start" x="8" y="-20.9" font-family="Helvetica,sans-Serif" font-size="12.00">boards/m4a&#45;24g/include</text>
<text text-anchor="middle" x="80.5" y="-7.9" font-family="Helvetica,sans-Serif" font-size="12.00">/gpio_params.h</text>
</a>
</g>
</g>
<!-- Node2&#45;&gt;Node3 -->
<g id="edge2" class="edge">
<title>Node2&#45;&gt;Node3</title>
<path fill="none" stroke="midnightblue" d="M80.5,-61.25C80.5,-52.39 80.5,-42.77 80.5,-34.9"/>
<polygon fill="midnightblue" stroke="midnightblue" points="77,-61.5 80.5,-71.5 84,-61.5 77,-61.5"/>
</g>
<!-- Node5 -->
<g id="node5" class="node">
<title>Node5</title>
<g id="a_node5"><a xlink:href="m4a-mb_2include_2gpio__params_8h.html" target="_top" xlink:title="Board specific configuration of direct mapped GPIOs.">
<polygon fill="none" stroke="black" points="179.5,-0.5 179.5,-34.5 337.5,-34.5 337.5,-0.5 179.5,-0.5"/>
<text text-anchor="start" x="187.5" y="-20.9" font-family="Helvetica,sans-Serif" font-size="12.00">boards/m4a&#45;mb/include</text>
<text text-anchor="middle" x="258.5" y="-7.9" font-family="Helvetica,sans-Serif" font-size="12.00">/gpio_params.h</text>
</a>
</g>
</g>
<!-- Node4&#45;&gt;Node5 -->
<g id="edge4" class="edge">
<title>Node4&#45;&gt;Node5</title>
<path fill="none" stroke="midnightblue" d="M258.5,-61.25C258.5,-52.39 258.5,-42.77 258.5,-34.9"/>
<polygon fill="midnightblue" stroke="midnightblue" points="255,-61.5 258.5,-71.5 262,-61.5 255,-61.5"/>
</g>
<!-- Node7 -->
<g id="node7" class="node">
<title>Node7</title>
<g id="a_node7"><a xlink:href="m4a-wroom_2include_2gpio__params_8h.html" target="_top" xlink:title="Board specific configuration of direct mapped GPIOs.">
<polygon fill="none" stroke="black" points="355.5,-0.5 355.5,-34.5 535.5,-34.5 535.5,-0.5 355.5,-0.5"/>
<text text-anchor="start" x="363.5" y="-20.9" font-family="Helvetica,sans-Serif" font-size="12.00">boards/m4a&#45;wroom/include</text>
<text text-anchor="middle" x="445.5" y="-7.9" font-family="Helvetica,sans-Serif" font-size="12.00">/gpio_params.h</text>
</a>
</g>
</g>
<!-- Node6&#45;&gt;Node7 -->
<g id="edge6" class="edge">
<title>Node6&#45;&gt;Node7</title>
<path fill="none" stroke="midnightblue" d="M445.5,-61.25C445.5,-52.39 445.5,-42.77 445.5,-34.9"/>
<polygon fill="midnightblue" stroke="midnightblue" points="442,-61.5 445.5,-71.5 449,-61.5 442,-61.5"/>
</g>
<!-- Node8&#45;&gt;Node1 -->
<g id="edge9" class="edge">
<title>Node8&#45;&gt;Node1</title>
<path fill="none" stroke="midnightblue" d="M593.62,-109.03C564.16,-119.61 527,-132.52 497.22,-142.5"/>
<polygon fill="midnightblue" stroke="midnightblue" points="595.07,-112.22 603.29,-105.54 592.69,-105.64 595.07,-112.22"/>
</g>
<!-- Node9 -->
<g id="node9" class="node">
<title>Node9</title>
<g id="a_node9"><a xlink:href="m4a-wrover_2include_2gpio__params_8h.html" target="_top" xlink:title="Board specific configuration of direct mapped GPIOs.">
<polygon fill="none" stroke="black" points="553.5,-0.5 553.5,-34.5 733.5,-34.5 733.5,-0.5 553.5,-0.5"/>
<text text-anchor="start" x="561.5" y="-20.9" font-family="Helvetica,sans-Serif" font-size="12.00">boards/m4a&#45;wrover/include</text>
<text text-anchor="middle" x="643.5" y="-7.9" font-family="Helvetica,sans-Serif" font-size="12.00">/gpio_params.h</text>
</a>
</g>
</g>
<!-- Node8&#45;&gt;Node9 -->
<g id="edge8" class="edge">
<title>Node8&#45;&gt;Node9</title>
<path fill="none" stroke="midnightblue" d="M643.5,-61.25C643.5,-52.39 643.5,-42.77 643.5,-34.9"/>
<polygon fill="midnightblue" stroke="midnightblue" points="640,-61.5 643.5,-71.5 647,-61.5 640,-61.5"/>
</g>
</g>
</svg>
