<?xml version="1.0" encoding="UTF-8" standalone="no"?>
<!DOCTYPE svg PUBLIC "-//W3C//DTD SVG 1.1//EN"
 "http://www.w3.org/Graphics/SVG/1.1/DTD/svg11.dtd">
<!-- Generated by graphviz version 2.43.0 (0)
 -->
<!-- Title: firmware/sys/network/include/uniqueid.h Pages: 1 -->
<svg width="314pt" height="101pt"
 viewBox="0.00 0.00 314.00 101.00" xmlns="http://www.w3.org/2000/svg" xmlns:xlink="http://www.w3.org/1999/xlink">
<g id="graph0" class="graph" transform="scale(1 1) rotate(0) translate(4 97)">
<title>firmware/sys/network/include/uniqueid.h</title>
<!-- Node1 -->
<g id="node1" class="node">
<title>Node1</title>
<g id="a_node1"><a xlink:title="cpuid address">
<polygon fill="#bfbfbf" stroke="black" points="78.5,-58.5 78.5,-92.5 223.5,-92.5 223.5,-58.5 78.5,-58.5"/>
<text text-anchor="start" x="86.5" y="-78.9" font-family="Helvetica,sans-Serif" font-size="12.00">firmware/sys/network</text>
<text text-anchor="middle" x="151" y="-65.9" font-family="Helvetica,sans-Serif" font-size="12.00">/include/uniqueid.h</text>
</a>
</g>
</g>
<!-- Node2 -->
<g id="node2" class="node">
<title>Node2</title>
<g id="a_node2"><a xlink:title=" ">
<polygon fill="none" stroke="#bfbfbf" points="0,-0.5 0,-21.5 102,-21.5 102,-0.5 0,-0.5"/>
<text text-anchor="middle" x="51" y="-7.9" font-family="Helvetica,sans-Serif" font-size="12.00">periph/cpuid.h</text>
</a>
</g>
</g>
<!-- Node1&#45;&gt;Node2 -->
<g id="edge1" class="edge">
<title>Node1&#45;&gt;Node2</title>
<path fill="none" stroke="midnightblue" d="M125.25,-58.4C109.82,-48.76 90.32,-36.57 75.18,-27.11"/>
<polygon fill="midnightblue" stroke="midnightblue" points="76.72,-23.95 66.39,-21.62 73.01,-29.88 76.72,-23.95"/>
</g>
<!-- Node3 -->
<g id="node3" class="node">
<title>Node3</title>
<g id="a_node3"><a xlink:title=" ">
<polygon fill="none" stroke="#bfbfbf" points="120,-0.5 120,-21.5 182,-21.5 182,-0.5 120,-0.5"/>
<text text-anchor="middle" x="151" y="-7.9" font-family="Helvetica,sans-Serif" font-size="12.00">board.h</text>
</a>
</g>
</g>
<!-- Node1&#45;&gt;Node3 -->
<g id="edge2" class="edge">
<title>Node1&#45;&gt;Node3</title>
<path fill="none" stroke="midnightblue" d="M151,-58.4C151,-50.36 151,-40.54 151,-32.01"/>
<polygon fill="midnightblue" stroke="midnightblue" points="154.5,-31.8 151,-21.8 147.5,-31.8 154.5,-31.8"/>
</g>
<!-- Node4 -->
<g id="node4" class="node">
<title>Node4</title>
<g id="a_node4"><a xlink:title=" ">
<polygon fill="none" stroke="#bfbfbf" points="200,-0.5 200,-21.5 306,-21.5 306,-0.5 200,-0.5"/>
<text text-anchor="middle" x="253" y="-7.9" font-family="Helvetica,sans-Serif" font-size="12.00">net/ipv6/addr.h</text>
</a>
</g>
</g>
<!-- Node1&#45;&gt;Node4 -->
<g id="edge3" class="edge">
<title>Node1&#45;&gt;Node4</title>
<path fill="none" stroke="midnightblue" d="M177.27,-58.4C193.16,-48.67 213.27,-36.34 228.78,-26.84"/>
<polygon fill="midnightblue" stroke="midnightblue" points="230.61,-29.83 237.31,-21.62 226.95,-23.86 230.61,-29.83"/>
</g>
</g>
</svg>
