<?xml version="1.0" encoding="UTF-8" standalone="no"?>
<!DOCTYPE svg PUBLIC "-//W3C//DTD SVG 1.1//EN"
 "http://www.w3.org/Graphics/SVG/1.1/DTD/svg11.dtd">
<!-- Generated by graphviz version 2.43.0 (0)
 -->
<!-- Title: firmware/sys/uniqueid/include/uniqueid.h Pages: 1 -->
<svg width="394pt" height="101pt"
 viewBox="0.00 0.00 393.50 101.00" xmlns="http://www.w3.org/2000/svg" xmlns:xlink="http://www.w3.org/1999/xlink">
<g id="graph0" class="graph" transform="scale(1 1) rotate(0) translate(4 97)">
<title>firmware/sys/uniqueid/include/uniqueid.h</title>
<!-- Node1 -->
<g id="node1" class="node">
<title>Node1</title>
<g id="a_node1"><a xlink:title="IPV6 address.">
<polygon fill="#bfbfbf" stroke="black" points="107,-58.5 107,-92.5 254,-92.5 254,-58.5 107,-58.5"/>
<text text-anchor="start" x="115" y="-78.9" font-family="Helvetica,sans-Serif" font-size="12.00">firmware/sys/uniqueid</text>
<text text-anchor="middle" x="180.5" y="-65.9" font-family="Helvetica,sans-Serif" font-size="12.00">/include/uniqueid.h</text>
</a>
</g>
</g>
<!-- Node2 -->
<g id="node2" class="node">
<title>Node2</title>
<g id="a_node2"><a xlink:title=" ">
<polygon fill="none" stroke="#bfbfbf" points="0,-0.5 0,-21.5 61,-21.5 61,-0.5 0,-0.5"/>
<text text-anchor="middle" x="30.5" y="-7.9" font-family="Helvetica,sans-Serif" font-size="12.00">stdint.h</text>
</a>
</g>
</g>
<!-- Node1&#45;&gt;Node2 -->
<g id="edge1" class="edge">
<title>Node1&#45;&gt;Node2</title>
<path fill="none" stroke="midnightblue" d="M141.87,-58.4C117.41,-48.21 86.15,-35.19 62.97,-25.53"/>
<polygon fill="midnightblue" stroke="midnightblue" points="64.16,-22.23 53.58,-21.62 61.47,-28.69 64.16,-22.23"/>
</g>
<!-- Node3 -->
<g id="node3" class="node">
<title>Node3</title>
<g id="a_node3"><a xlink:title=" ">
<polygon fill="none" stroke="#bfbfbf" points="79.5,-0.5 79.5,-21.5 181.5,-21.5 181.5,-0.5 79.5,-0.5"/>
<text text-anchor="middle" x="130.5" y="-7.9" font-family="Helvetica,sans-Serif" font-size="12.00">periph/cpuid.h</text>
</a>
</g>
</g>
<!-- Node1&#45;&gt;Node3 -->
<g id="edge2" class="edge">
<title>Node1&#45;&gt;Node3</title>
<path fill="none" stroke="midnightblue" d="M167.62,-58.4C160.61,-49.63 151.91,-38.76 144.7,-29.75"/>
<polygon fill="midnightblue" stroke="midnightblue" points="147.32,-27.42 138.34,-21.8 141.85,-31.8 147.32,-27.42"/>
</g>
<!-- Node4 -->
<g id="node4" class="node">
<title>Node4</title>
<g id="a_node4"><a xlink:title=" ">
<polygon fill="none" stroke="#bfbfbf" points="199.5,-0.5 199.5,-21.5 261.5,-21.5 261.5,-0.5 199.5,-0.5"/>
<text text-anchor="middle" x="230.5" y="-7.9" font-family="Helvetica,sans-Serif" font-size="12.00">board.h</text>
</a>
</g>
</g>
<!-- Node1&#45;&gt;Node4 -->
<g id="edge3" class="edge">
<title>Node1&#45;&gt;Node4</title>
<path fill="none" stroke="midnightblue" d="M193.38,-58.4C200.39,-49.63 209.09,-38.76 216.3,-29.75"/>
<polygon fill="midnightblue" stroke="midnightblue" points="219.15,-31.8 222.66,-21.8 213.68,-27.42 219.15,-31.8"/>
</g>
<!-- Node5 -->
<g id="node5" class="node">
<title>Node5</title>
<g id="a_node5"><a xlink:title=" ">
<polygon fill="none" stroke="#bfbfbf" points="279.5,-0.5 279.5,-21.5 385.5,-21.5 385.5,-0.5 279.5,-0.5"/>
<text text-anchor="middle" x="332.5" y="-7.9" font-family="Helvetica,sans-Serif" font-size="12.00">net/ipv6/addr.h</text>
</a>
</g>
</g>
<!-- Node1&#45;&gt;Node5 -->
<g id="edge4" class="edge">
<title>Node1&#45;&gt;Node5</title>
<path fill="none" stroke="midnightblue" d="M219.64,-58.4C244.43,-48.21 276.11,-35.19 299.59,-25.53"/>
<polygon fill="midnightblue" stroke="midnightblue" points="301.19,-28.66 309.11,-21.62 298.53,-22.18 301.19,-28.66"/>
</g>
</g>
</svg>
