<?xml version="1.0" encoding="UTF-8" standalone="no"?>
<!DOCTYPE svg PUBLIC "-//W3C//DTD SVG 1.1//EN"
 "http://www.w3.org/Graphics/SVG/1.1/DTD/svg11.dtd">
<!-- Generated by graphviz version 2.43.0 (0)
 -->
<!-- Title: boards/vs203/include/board.h Pages: 1 -->
<svg width="316pt" height="114pt"
 viewBox="0.00 0.00 316.00 114.00" xmlns="http://www.w3.org/2000/svg" xmlns:xlink="http://www.w3.org/1999/xlink">
<g id="graph0" class="graph" transform="scale(1 1) rotate(0) translate(4 110)">
<title>boards/vs203/include/board.h</title>
<!-- Node1 -->
<g id="node1" class="node">
<title>Node1</title>
<g id="a_node1"><a xlink:title="Board specific definitions for the VS203 board.">
<polygon fill="#bfbfbf" stroke="black" points="81,-71.5 81,-105.5 224,-105.5 224,-71.5 81,-71.5"/>
<text text-anchor="start" x="89" y="-91.9" font-family="Helvetica,sans-Serif" font-size="12.00">boards/vs203/include</text>
<text text-anchor="middle" x="152.5" y="-78.9" font-family="Helvetica,sans-Serif" font-size="12.00">/board.h</text>
</a>
</g>
</g>
<!-- Node2 -->
<g id="node2" class="node">
<title>Node2</title>
<g id="a_node2"><a xlink:href="vs203_2include_2gpio__params_8h.html" target="_top" xlink:title="Board specific configuration of direct mapped GPIOs.">
<polygon fill="none" stroke="black" points="0,-0.5 0,-34.5 143,-34.5 143,-0.5 0,-0.5"/>
<text text-anchor="start" x="8" y="-20.9" font-family="Helvetica,sans-Serif" font-size="12.00">boards/vs203/include</text>
<text text-anchor="middle" x="71.5" y="-7.9" font-family="Helvetica,sans-Serif" font-size="12.00">/gpio_params.h</text>
</a>
</g>
</g>
<!-- Node1&#45;&gt;Node2 -->
<g id="edge1" class="edge">
<title>Node1&#45;&gt;Node2</title>
<path fill="none" stroke="midnightblue" d="M126.01,-64.94C114.41,-55.05 101.05,-43.67 90.47,-34.66"/>
<polygon fill="midnightblue" stroke="midnightblue" points="123.83,-67.68 133.71,-71.5 128.37,-62.35 123.83,-67.68"/>
</g>
<!-- Node3 -->
<g id="node3" class="node">
<title>Node3</title>
<g id="a_node3"><a xlink:href="uniqueid_8h.html" target="_top" xlink:title="IPV6 address.">
<polygon fill="none" stroke="black" points="161,-0.5 161,-34.5 308,-34.5 308,-0.5 161,-0.5"/>
<text text-anchor="start" x="169" y="-20.9" font-family="Helvetica,sans-Serif" font-size="12.00">firmware/sys/uniqueid</text>
<text text-anchor="middle" x="234.5" y="-7.9" font-family="Helvetica,sans-Serif" font-size="12.00">/include/uniqueid.h</text>
</a>
</g>
</g>
<!-- Node1&#45;&gt;Node3 -->
<g id="edge2" class="edge">
<title>Node1&#45;&gt;Node3</title>
<path fill="none" stroke="midnightblue" d="M179.31,-64.94C191.06,-55.05 204.58,-43.67 215.3,-34.66"/>
<polygon fill="midnightblue" stroke="midnightblue" points="176.92,-62.38 171.52,-71.5 181.42,-67.74 176.92,-62.38"/>
</g>
</g>
</svg>
