<?xml version="1.0" encoding="UTF-8" standalone="no"?>
<!DOCTYPE svg PUBLIC "-//W3C//DTD SVG 1.1//EN"
 "http://www.w3.org/Graphics/SVG/1.1/DTD/svg11.dtd">
<!-- Generated by graphviz version 2.43.0 (0)
 -->
<!-- Title: boards/vs203/include/periph_conf.h Pages: 1 -->
<svg width="656pt" height="101pt"
 viewBox="0.00 0.00 656.00 101.00" xmlns="http://www.w3.org/2000/svg" xmlns:xlink="http://www.w3.org/1999/xlink">
<g id="graph0" class="graph" transform="scale(1 1) rotate(0) translate(4 97)">
<title>boards/vs203/include/periph_conf.h</title>
<!-- Node1 -->
<g id="node1" class="node">
<title>Node1</title>
<g id="a_node1"><a xlink:title="Peripheral MCU configuration for the VS203 board.">
<polygon fill="#bfbfbf" stroke="black" points="181,-58.5 181,-92.5 324,-92.5 324,-58.5 181,-58.5"/>
<text text-anchor="start" x="189" y="-78.9" font-family="Helvetica,sans-Serif" font-size="12.00">boards/vs203/include</text>
<text text-anchor="middle" x="252.5" y="-65.9" font-family="Helvetica,sans-Serif" font-size="12.00">/periph_conf.h</text>
</a>
</g>
</g>
<!-- Node2 -->
<g id="node2" class="node">
<title>Node2</title>
<g id="a_node2"><a xlink:title=" ">
<polygon fill="none" stroke="#bfbfbf" points="0,-0.5 0,-21.5 61,-21.5 61,-0.5 0,-0.5"/>
<text text-anchor="middle" x="30.5" y="-7.9" font-family="Helvetica,sans-Serif" font-size="12.00">stdint.h</text>
</a>
</g>
</g>
<!-- Node1&#45;&gt;Node2 -->
<g id="edge1" class="edge">
<title>Node1&#45;&gt;Node2</title>
<path fill="none" stroke="midnightblue" d="M195.62,-58.49C156.68,-47.52 105.98,-33.25 71.09,-23.43"/>
<polygon fill="midnightblue" stroke="midnightblue" points="71.82,-20 61.25,-20.66 69.92,-26.74 71.82,-20"/>
</g>
<!-- Node3 -->
<g id="node3" class="node">
<title>Node3</title>
<g id="a_node3"><a xlink:title=" ">
<polygon fill="none" stroke="#bfbfbf" points="79.5,-0.5 79.5,-21.5 129.5,-21.5 129.5,-0.5 79.5,-0.5"/>
<text text-anchor="middle" x="104.5" y="-7.9" font-family="Helvetica,sans-Serif" font-size="12.00">cpu.h</text>
</a>
</g>
</g>
<!-- Node1&#45;&gt;Node3 -->
<g id="edge2" class="edge">
<title>Node1&#45;&gt;Node3</title>
<path fill="none" stroke="midnightblue" d="M214.39,-58.4C190.26,-48.21 159.41,-35.19 136.54,-25.53"/>
<polygon fill="midnightblue" stroke="midnightblue" points="137.85,-22.28 127.27,-21.62 135.12,-28.73 137.85,-22.28"/>
</g>
<!-- Node4 -->
<g id="node4" class="node">
<title>Node4</title>
<g id="a_node4"><a xlink:title=" ">
<polygon fill="none" stroke="#bfbfbf" points="147.5,-0.5 147.5,-21.5 241.5,-21.5 241.5,-0.5 147.5,-0.5"/>
<text text-anchor="middle" x="194.5" y="-7.9" font-family="Helvetica,sans-Serif" font-size="12.00">periph_cpu.h</text>
</a>
</g>
</g>
<!-- Node1&#45;&gt;Node4 -->
<g id="edge3" class="edge">
<title>Node1&#45;&gt;Node4</title>
<path fill="none" stroke="midnightblue" d="M237.56,-58.4C229.26,-49.45 218.92,-38.31 210.45,-29.19"/>
<polygon fill="midnightblue" stroke="midnightblue" points="212.96,-26.75 203.59,-21.8 207.83,-31.51 212.96,-26.75"/>
</g>
<!-- Node5 -->
<g id="node5" class="node">
<title>Node5</title>
<g id="a_node5"><a xlink:title=" ">
<polygon fill="none" stroke="#bfbfbf" points="259.5,-0.5 259.5,-21.5 361.5,-21.5 361.5,-0.5 259.5,-0.5"/>
<text text-anchor="middle" x="310.5" y="-7.9" font-family="Helvetica,sans-Serif" font-size="12.00">periph/cpuid.h</text>
</a>
</g>
</g>
<!-- Node1&#45;&gt;Node5 -->
<g id="edge4" class="edge">
<title>Node1&#45;&gt;Node5</title>
<path fill="none" stroke="midnightblue" d="M267.44,-58.4C275.74,-49.45 286.08,-38.31 294.55,-29.19"/>
<polygon fill="midnightblue" stroke="midnightblue" points="297.17,-31.51 301.41,-21.8 292.04,-26.75 297.17,-31.51"/>
</g>
<!-- Node6 -->
<g id="node6" class="node">
<title>Node6</title>
<g id="a_node6"><a xlink:title=" ">
<polygon fill="none" stroke="#bfbfbf" points="380,-0.5 380,-21.5 497,-21.5 497,-0.5 380,-0.5"/>
<text text-anchor="middle" x="438.5" y="-7.9" font-family="Helvetica,sans-Serif" font-size="12.00">cfg_clk_default.h</text>
</a>
</g>
</g>
<!-- Node1&#45;&gt;Node6 -->
<g id="edge5" class="edge">
<title>Node1&#45;&gt;Node6</title>
<path fill="none" stroke="midnightblue" d="M300.4,-58.4C331.5,-47.95 371.48,-34.52 400.41,-24.8"/>
<polygon fill="midnightblue" stroke="midnightblue" points="401.79,-28.03 410.15,-21.53 399.56,-21.39 401.79,-28.03"/>
</g>
<!-- Node7 -->
<g id="node7" class="node">
<title>Node7</title>
<g id="a_node7"><a xlink:title=" ">
<polygon fill="none" stroke="#bfbfbf" points="515,-0.5 515,-21.5 648,-21.5 648,-0.5 515,-0.5"/>
<text text-anchor="middle" x="581.5" y="-7.9" font-family="Helvetica,sans-Serif" font-size="12.00">cfg_timer_default.h</text>
</a>
</g>
</g>
<!-- Node1&#45;&gt;Node7 -->
<g id="edge6" class="edge">
<title>Node1&#45;&gt;Node7</title>
<path fill="none" stroke="midnightblue" d="M324.29,-60.86C383.21,-49.67 465.68,-34 521.21,-23.45"/>
<polygon fill="midnightblue" stroke="midnightblue" points="522.09,-26.85 531.26,-21.54 520.78,-19.97 522.09,-26.85"/>
</g>
</g>
</svg>
